<svg width="64" height="64" viewBox="0 0 64 64" fill="none" xmlns="http://www.w3.org/2000/svg">
  <rect x="0.5" y="0.5" width="63" height="63" rx="31.5" fill="currentColor" fill-opacity="0.1"/>
  <rect x="0.5" y="0.5" width="63" height="63" rx="31.5" stroke="currentColor" stroke-opacity="0.2"/>
  <path d="M13 32C13 21.2304 21.7304 12.5 32.5 12.5C38.3028 12.5 43.5165 15.0383 47.0844 19.0558L42.7643 22.8924C40.2464 20.0573 36.5829 18.2778 32.5 18.2778C24.9214 18.2778 18.7778 24.4214 18.7778 32C18.7778 39.5786 24.9214 45.7222 32.5 45.7222C36.5829 45.7222 40.2464 43.9427 42.7643 41.1076L47.0844 44.9442C43.5165 48.9617 38.3028 51.5 32.5 51.5C21.7304 51.5 13 42.7696 13 32Z" fill="currentColor" fill-opacity="0.15"/>
  <path d="M23.8118 32.0287C29.1903 32.4042 32.0942 35.2572 32.5208 40.5931C32.5235 40.6288 32.5727 40.6288 32.5755 40.5931C33.0048 35.2572 35.9059 32.4015 41.2844 32.0287C41.32 32.0287 41.32 31.9767 41.2844 31.9739C35.9059 31.5985 33.002 28.7455 32.5755 23.4095C32.5727 23.3739 32.5235 23.3739 32.5208 23.4095C32.0915 28.7455 29.1903 31.6012 23.8118 31.9739C23.7763 31.9739 23.7763 32.026 23.8118 32.0287Z" fill="currentColor" fill-opacity="0.15"/>
</svg>
