<svg width="154" height="101" viewBox="0 0 154 101" fill="none" xmlns="http://www.w3.org/2000/svg">
    <rect width="154" height="101" rx="8" fill="#F3F3F3"/>
    <path d="M0 8C0 3.58172 3.58172 0 8 0H13V101H8C3.58172 101 0 97.4183 0 93V8Z" fill="#D9D9D9"/>
    <path d="M13 0H38V101H13V0Z" fill="#E5E5E5"/>
    <circle cx="92.5" cy="31.5" r="7.5" fill="#5D5D5D"/>
    <rect x="51" y="78" width="86" height="18" rx="2" fill="#CFCFCF"/>
    <rect x="51" y="46" width="86" height="7" rx="2" fill="#CFCFCF"/>
    <rect x="51" y="55" width="58" height="7" rx="2" fill="#CFCFCF"/>
    <rect x="18" y="6" width="13" height="4" rx="2" fill="#CFCFCF"/>
    <rect x="18" y="17" width="13" height="4" rx="2" fill="#CFCFCF"/>
    <rect x="18" y="24" width="13" height="4" rx="2" fill="#CFCFCF"/>
    <rect x="18" y="37" width="13" height="4" rx="2" fill="#CFCFCF"/>
    <rect x="18" y="44" width="13" height="4" rx="2" fill="#CFCFCF"/>
    <rect x="18" y="51" width="13" height="4" rx="2" fill="#CFCFCF"/>
    <rect x="18" y="57" width="13" height="4" rx="2" fill="#CFCFCF"/>
    <rect x="4" y="14" width="4" height="4" rx="2" fill="#9D9D9D"/>
    <rect x="4" y="22" width="4" height="4" rx="2" fill="#9D9D9D"/>
    <rect x="4" y="30" width="4" height="4" rx="2" fill="#9D9D9D"/>
    <rect x="4" y="38" width="4" height="4" rx="2" fill="#9D9D9D"/>
    <rect x="4" y="87" width="4" height="4" rx="2" fill="#9D9D9D"/>
    <rect x="4" y="80" width="4" height="4" rx="2" fill="#9D9D9D"/>
</svg>
