<svg width="156" height="39" viewBox="0 0 156 39" fill="none" xmlns="http://www.w3.org/2000/svg">
<path d="M0 19.5C0 8.73045 8.73045 0 19.5 0C25.3028 0 30.5165 2.53831 34.0844 6.55577L29.7643 10.3924C27.2464 7.55726 23.5829 5.77778 19.5 5.77778C11.9214 5.77778 5.77778 11.9214 5.77778 19.5C5.77778 27.0786 11.9214 33.2222 19.5 33.2222C23.5829 33.2222 27.2464 31.4427 29.7643 28.6076L34.0844 32.4442C30.5165 36.4617 25.3028 39 19.5 39C8.73045 39 0 30.2696 0 19.5Z" fill="url(#paint0_linear_438_5979)"/>
<path d="M10.8118 19.5274C16.1903 19.9029 19.0942 22.7559 19.5208 28.0918C19.5235 28.1274 19.5727 28.1274 19.5755 28.0918C20.0048 22.7559 22.9059 19.9001 28.2844 19.5274C28.32 19.5274 28.32 19.4754 28.2844 19.4726C22.9059 19.0972 20.002 16.2442 19.5755 10.9082C19.5727 10.8726 19.5235 10.8726 19.5208 10.9082C19.0915 16.2442 16.1903 19.0999 10.8118 19.4726C10.7763 19.4726 10.7763 19.5247 10.8118 19.5274Z" fill="white"/>
<path d="M54.8643 22.3838C55.9308 22.3839 56.8215 22.7365 57.5361 23.4404C58.2506 24.1444 58.7094 25.1413 58.9121 26.4316L56.8799 26.5283C56.7412 25.7604 56.4906 25.1788 56.1279 24.7842C55.776 24.3789 55.3548 24.1759 54.8643 24.1758C54.3629 24.1758 53.9409 24.3412 53.5996 24.6719C53.269 24.9919 53.0183 25.4615 52.8477 26.0801C52.677 26.6987 52.5918 27.4507 52.5918 28.3359C52.5918 29.2106 52.677 29.9575 52.8477 30.5762C53.0183 31.1948 53.269 31.6644 53.5996 31.9844C53.9409 32.3044 54.3629 32.4639 54.8643 32.4639C55.3761 32.4638 55.8191 32.2508 56.1924 31.8242C56.5657 31.3869 56.8163 30.7519 56.9443 29.9199L58.9756 30C58.7836 31.344 58.3249 32.3891 57.5996 33.1357C56.885 33.8823 55.9734 34.2558 54.8643 34.2559C53.9363 34.2559 53.1517 34.0161 52.5117 33.5361C51.8718 33.0562 51.3814 32.3734 51.04 31.4883C50.7094 30.6029 50.5439 29.5519 50.5439 28.3359C50.544 27.1093 50.7094 26.0533 51.04 25.168C51.3813 24.2828 51.8718 23.6001 52.5117 23.1201C53.1517 22.6295 53.9363 22.3838 54.8643 22.3838Z" fill="white"/>
<path fill-rule="evenodd" clip-rule="evenodd" d="M64.3936 25.2637C65.1936 25.2637 65.8929 25.445 66.4902 25.8076C67.0982 26.1703 67.5668 26.6884 67.8975 27.3604C68.228 28.0215 68.3935 28.8105 68.3936 29.7275C68.3936 30.6342 68.2281 31.4237 67.8975 32.0957C67.5668 32.7677 67.0982 33.2858 66.4902 33.6484C65.8929 34.0111 65.1936 34.1924 64.3936 34.1924C63.5939 34.1923 62.89 34.0109 62.2822 33.6484C61.6849 33.2858 61.2203 32.7677 60.8896 32.0957C60.5591 31.4238 60.3936 30.6341 60.3936 29.7275C60.3936 28.8212 60.5591 28.0322 60.8896 27.3604C61.2203 26.6884 61.6849 26.1703 62.2822 25.8076C62.8901 25.4452 63.5939 25.2637 64.3936 25.2637ZM64.3936 26.96C63.743 26.96 63.2416 27.2057 62.8896 27.6963C62.5378 28.1762 62.3614 28.8533 62.3613 29.7275C62.3613 30.6022 62.5376 31.2857 62.8896 31.7764C63.2416 32.2562 63.7431 32.496 64.3936 32.4961C65.044 32.4961 65.5455 32.2561 65.8975 31.7764C66.2495 31.2857 66.4258 30.6022 66.4258 29.7275C66.4257 28.8531 66.2494 28.1762 65.8975 27.6963C65.5455 27.2056 65.0442 26.96 64.3936 26.96Z" fill="white"/>
<path fill-rule="evenodd" clip-rule="evenodd" d="M77.6035 34H75.8115L75.7637 32.6719C75.5397 33.1198 75.2038 33.4884 74.7559 33.7764C74.3185 34.0537 73.7955 34.1924 73.1875 34.1924C72.4728 34.1924 71.8537 34.0161 71.3311 33.6641C70.8085 33.3014 70.4032 32.7892 70.1152 32.1279C69.8379 31.456 69.6992 30.6555 69.6992 29.7275C69.6993 28.7997 69.8379 28.005 70.1152 27.3438C70.4032 26.6719 70.8085 26.1596 71.3311 25.8076C71.8537 25.445 72.4728 25.2637 73.1875 25.2637C73.7847 25.2637 74.302 25.4025 74.7393 25.6797C75.1873 25.9464 75.5132 26.2722 75.7158 26.6562V22.6396H77.6035V34ZM73.6035 26.96C72.9955 26.96 72.521 27.2056 72.1797 27.6963C71.8385 28.1762 71.6671 28.8531 71.667 29.7275C71.667 30.6022 71.8384 31.2857 72.1797 31.7764C72.521 32.2561 73.0066 32.4961 73.6357 32.4961C74.0516 32.496 74.4144 32.3841 74.7236 32.1602C75.0436 31.9362 75.2883 31.6211 75.459 31.2158C75.6297 30.7998 75.7158 30.3035 75.7158 29.7275C75.7158 29.1411 75.6296 28.6455 75.459 28.2402C75.2883 27.8243 75.0436 27.5092 74.7236 27.2959C74.4143 27.0719 74.0408 26.96 73.6035 26.96Z" fill="white"/>
<path fill-rule="evenodd" clip-rule="evenodd" d="M83.6289 25.2637C84.3968 25.2637 85.0745 25.445 85.6611 25.8076C86.2585 26.1703 86.7221 26.6884 87.0527 27.3604C87.394 28.0323 87.5654 28.8319 87.5654 29.7598V30.2559H81.6133C81.6666 30.9812 81.8746 31.5359 82.2373 31.9199C82.6106 32.3039 83.096 32.4961 83.6934 32.4961C84.1519 32.4961 84.5305 32.3891 84.8291 32.1758C85.1384 31.9518 85.3514 31.6635 85.4688 31.3115L87.4053 31.4561C87.1386 32.3094 86.6849 32.981 86.0449 33.4717C85.4049 33.9517 84.6105 34.1924 83.6611 34.1924C82.8611 34.1924 82.1568 34.0111 81.5488 33.6484C80.9515 33.2858 80.4879 32.7677 80.1572 32.0957C79.8266 31.4237 79.6611 30.6341 79.6611 29.7275C79.6612 28.8317 79.8266 28.0528 80.1572 27.3916C80.4879 26.7198 80.9467 26.1975 81.5332 25.8242C82.1305 25.4509 82.829 25.2637 83.6289 25.2637ZM83.6133 26.96C83.0799 26.96 82.6372 27.1254 82.2852 27.4561C81.9438 27.776 81.7249 28.2506 81.6289 28.8799H85.5176C85.4642 28.2293 85.2661 27.7498 84.9248 27.4404C84.5835 27.1205 84.1465 26.96 83.6133 26.96Z" fill="white"/>
<path fill-rule="evenodd" clip-rule="evenodd" d="M112.41 25.2637C113.178 25.2637 113.856 25.445 114.442 25.8076C115.04 26.1703 115.503 26.6884 115.834 27.3604C116.175 28.0323 116.347 28.8319 116.347 29.7598V30.2559H110.395C110.448 30.9812 110.656 31.5359 111.019 31.9199C111.392 32.3039 111.877 32.4961 112.475 32.4961C112.933 32.4961 113.312 32.3891 113.61 32.1758C113.92 31.9518 114.133 31.6635 114.25 31.3115L116.187 31.4561C115.92 32.3094 115.466 32.981 114.826 33.4717C114.186 33.9517 113.392 34.1924 112.442 34.1924C111.642 34.1924 110.938 34.0111 110.33 33.6484C109.733 33.2858 109.269 32.7677 108.938 32.0957C108.608 31.4237 108.442 30.6341 108.442 29.7275C108.442 28.8317 108.608 28.0528 108.938 27.3916C109.269 26.7198 109.728 26.1975 110.314 25.8242C110.912 25.4509 111.61 25.2637 112.41 25.2637ZM112.395 26.96C111.861 26.96 111.418 27.1254 111.066 27.4561C110.725 27.776 110.506 28.2506 110.41 28.8799H114.299C114.245 28.2293 114.047 27.7498 113.706 27.4404C113.365 27.1205 112.928 26.96 112.395 26.96Z" fill="white"/>
<path d="M93.1748 29.3223L94.8389 22.6396H97.2393V34H95.3828V26.0713L93.8311 32.5283H92.5195L90.9668 26.0674V34H89.1113V22.6396H91.5107L93.1748 29.3223Z" fill="white"/>
<path d="M104.272 32.4639H107.057V34H99.1211V32.4639H102.385V26.9922H99.2812V25.4561H104.272V32.4639Z" fill="white"/>
<path d="M104.225 24.3203H102.305V22.5283H104.225V24.3203Z" fill="white"/>
<path d="M120.452 16.7598H118.66L123.46 3H125.252L120.452 16.7598Z" fill="#C447EB"/>
<path d="M139.224 11.1924C139.224 11.9175 139.384 12.4775 139.704 12.8721C140.035 13.2666 140.514 13.4638 141.144 13.4639C141.773 13.4639 142.247 13.2666 142.567 12.8721C142.898 12.4775 143.063 11.9175 143.063 11.1924V3.63965H145.048V11.0645C145.048 12.3975 144.701 13.4321 144.008 14.168C143.325 14.8933 142.37 15.2559 141.144 15.2559C139.917 15.2558 138.957 14.8933 138.264 14.168C137.581 13.4321 137.24 12.3975 137.24 11.0645V3.63965H139.224V11.1924Z" fill="#C447EB"/>
<path d="M58.416 5.46387H53.3604V8.42383H58.2236V10.1836H53.3604V13.1758H58.5439V15H51.376V3.63965H58.416V5.46387Z" fill="#C447EB"/>
<path fill-rule="evenodd" clip-rule="evenodd" d="M64.5059 3.63965C65.2843 3.63966 65.9721 3.78937 66.5693 4.08789C67.1667 4.38656 67.6312 4.8026 67.9619 5.33594C68.2926 5.86927 68.458 6.50424 68.458 7.24023C68.458 7.96542 68.2925 8.59468 67.9619 9.12793C67.6312 9.66126 67.1667 10.0773 66.5693 10.376C65.9721 10.6639 65.2843 10.8076 64.5059 10.8076H62.8896V15H60.9062V3.63965H64.5059ZM62.8896 9H64.2979C65.0125 8.99999 65.5405 8.85041 65.8818 8.55176C66.2337 8.24247 66.4101 7.80537 66.4102 7.24023C66.4102 6.65362 66.2338 6.21078 65.8818 5.91211C65.5405 5.61346 65.0125 5.46388 64.2979 5.46387H62.8896V9Z" fill="#C447EB"/>
<path fill-rule="evenodd" clip-rule="evenodd" d="M78.4512 15H76.4199L75.7031 12.3125H72.2725L71.5557 15H69.5234L72.7559 3.63965H75.2197L78.4512 15ZM72.7461 10.5361H75.2295L73.9873 5.87988L72.7461 10.5361Z" fill="#C447EB"/>
<path d="M83.5811 10.3223L85.2451 3.63965H87.6455V15H85.7891V7.07129L84.2373 13.5283H82.9258L81.373 7.06738V15H79.5176V3.63965H81.917L83.5811 10.3223Z" fill="#C447EB"/>
<path fill-rule="evenodd" clip-rule="evenodd" d="M107.232 15H105.201L104.484 12.3125H101.054L100.337 15H98.3047L101.537 3.63965H104.001L107.232 15ZM101.527 10.5361H104.011L102.769 5.87988L101.527 10.5361Z" fill="#C447EB"/>
<path d="M115.946 5.46387H113.354V13.1758H115.946V15H108.778V13.1758H111.37V5.46387H108.778V3.63965H115.946V5.46387Z" fill="#C447EB"/>
<path fill-rule="evenodd" clip-rule="evenodd" d="M131.374 3.63965C132.59 3.63966 133.545 3.94377 134.238 4.55176C134.932 5.15972 135.278 5.99197 135.278 7.04785C135.278 7.59185 135.155 8.07228 134.91 8.48828C134.675 8.90423 134.36 9.23516 133.966 9.48047C133.77 9.59701 133.564 9.68737 133.35 9.75391C133.808 9.84134 134.174 9.99409 134.446 10.2158C134.852 10.5358 135.086 11.064 135.15 11.7998L135.422 15H133.438L133.198 12.2637C133.166 11.8586 133.086 11.5442 132.958 11.3203C132.841 11.0963 132.653 10.9418 132.397 10.8564C132.152 10.7712 131.811 10.7275 131.374 10.7275H129.758V15H127.774V3.63965H131.374ZM129.758 8.9043H131.326C131.945 8.90426 132.414 8.75468 132.734 8.45605C133.065 8.1574 133.229 7.73032 133.229 7.17578C133.229 6.6214 133.065 6.20006 132.734 5.91211C132.414 5.61348 131.945 5.46391 131.326 5.46387H129.758V8.9043Z" fill="#C447EB"/>
<path d="M152.562 11.7998V3.63965H154.481V15H152.354L148.913 6.83984V15H146.993V3.63965H149.121L152.562 11.7998Z" fill="#C447EB"/>
<defs>
<linearGradient id="paint0_linear_438_5979" x1="28.2148" y1="-5.44074" x2="-18.1065" y2="51.3472" gradientUnits="userSpaceOnUse">
<stop offset="0.0192308" stop-color="#ECB1FF"/>
<stop offset="0.375" stop-color="#C447EB"/>
<stop offset="1" stop-color="#3E1866"/>
</linearGradient>
</defs>
</svg>
