<svg width="14" height="14" viewBox="0 0 14 14" fill="none" xmlns="http://www.w3.org/2000/svg">
<path d="M0.744384 6.47801L3.49498 7.39399L4.41157 10.1445C4.55979 10.5883 4.97592 10.8889 5.44444 10.8889C5.91296 10.8889 6.32923 10.5883 6.47732 10.1445L7.3939 7.39399L10.1445 6.47801C10.5891 6.3292 10.8889 5.91368 10.8889 5.44445C10.8889 4.9752 10.5891 4.55968 10.1445 4.41087L7.3939 3.49491L6.47732 0.744363C6.32909 0.300533 5.91296 4.07496e-08 5.44444 0C4.97592 -4.07269e-08 4.55966 0.300531 4.41157 0.744363L3.49498 3.49489L0.744384 4.41087C0.299815 4.55968 4.11937e-08 4.9752 0 5.44445C-4.11937e-08 5.91368 0.299815 6.3292 0.744384 6.47801Z" fill="currentColor"/>
<path d="M8.14954 11.7937L9.52483 12.2517L9.98313 13.6269C10.0572 13.8489 10.2653 13.9991 10.4996 13.9991C10.7338 13.9991 10.942 13.8489 11.016 13.6269L11.4743 12.2517L12.8496 11.7937C13.0719 11.7193 13.2218 11.5115 13.2218 11.2769C13.2218 11.0423 13.0719 10.8345 12.8496 10.7601L11.4743 10.3021L11.016 8.92687C10.9419 8.70495 10.7338 8.55469 10.4996 8.55469C10.2653 8.55469 10.0572 8.70495 9.98313 8.92687L9.52483 10.3021L8.14954 10.7601C7.92725 10.8345 7.77734 11.0423 7.77734 11.2769C7.77734 11.5115 7.92725 11.7193 8.14954 11.7937Z" fill="currentColor"/>
</svg>
