<svg width="18" height="18" viewBox="0 0 18 18" fill="none" xmlns="http://www.w3.org/2000/svg">
<path d="M10.5 1.5C11.0125 1.5 11.4418 1.49979 11.792 1.52832C12.1062 1.55395 12.4071 1.60554 12.6943 1.72852L12.8164 1.78516L12.8174 1.78613C13.311 2.03803 13.7125 2.43969 13.9639 2.93359C14.129 3.25739 14.1923 3.59816 14.2217 3.95703C14.2405 4.18753 14.245 4.45274 14.2471 4.75293L14.3164 4.78516L14.3174 4.78613C14.811 5.03803 15.2125 5.43969 15.4639 5.93359C15.629 6.25739 15.6923 6.59816 15.7217 6.95703C15.7412 7.196 15.7462 7.47223 15.748 7.78613C15.9482 7.8679 16.1376 7.97473 16.3125 8.11621L16.4814 8.26855L16.6338 8.4375C16.9614 8.84236 17.105 9.32338 17.1748 9.84277C17.2517 10.415 17.25 11.1374 17.25 12C17.25 12.8627 17.2517 13.5851 17.1748 14.1572C17.105 14.6768 16.9613 15.1575 16.6338 15.5625L16.4814 15.7314C16.0441 16.1682 15.501 16.345 14.9072 16.4248C14.3351 16.5017 13.6127 16.5 12.75 16.5H5.25C4.38732 16.5 3.66483 16.5016 3.09277 16.4248C2.4991 16.3451 1.95569 16.169 1.51855 15.7314C1.08188 15.2942 0.905022 14.751 0.825195 14.1572C0.748324 13.5852 0.75 12.8629 0.75 12C0.75 11.1373 0.748448 10.4148 0.825195 9.84277C0.904883 9.2491 1.08103 8.70569 1.51855 8.26855C1.73827 8.04914 1.98496 7.89491 2.25098 7.78613C2.25278 7.47223 2.25876 7.196 2.27832 6.95703C2.30771 6.59831 2.37115 6.25727 2.53613 5.93359L2.6377 5.75293C2.85391 5.40039 3.15039 5.10391 3.50293 4.8877L3.68359 4.78613C3.70616 4.77463 3.72922 4.76445 3.75195 4.75391C3.75398 4.45331 3.75943 4.18778 3.77832 3.95703C3.80771 3.59831 3.87115 3.25727 4.03613 2.93359L4.1377 2.75293C4.38984 2.3418 4.75154 2.00637 5.18359 1.78613C5.50738 1.621 5.84816 1.55772 6.20703 1.52832C6.55738 1.49964 6.9874 1.5 7.5 1.5H10.5ZM5.25 9C4.34518 9 3.74192 9.00122 3.29297 9.06152C2.86562 9.11896 2.69151 9.21782 2.5791 9.33008C2.4672 9.44188 2.36885 9.61487 2.31152 10.042C2.25126 10.491 2.25 11.0944 2.25 12C2.25 12.9055 2.25118 13.5091 2.31152 13.958C2.36895 14.3849 2.46779 14.5585 2.58008 14.6709C2.69188 14.7828 2.86488 14.8811 3.29199 14.9385C3.741 14.9987 4.34439 15 5.25 15H12.75C13.6548 15 14.2581 14.9988 14.707 14.9385C15.1344 14.881 15.3085 14.7822 15.4209 14.6699C15.5328 14.5575 15.6312 14.3833 15.6885 13.957C15.7488 13.5081 15.75 12.9048 15.75 12C15.75 11.0949 15.7488 10.4911 15.6885 10.042C15.631 9.61462 15.5327 9.44093 15.4209 9.3291C15.3085 9.217 15.1339 9.1189 14.707 9.06152C14.2581 9.00122 13.6548 9 12.75 9H5.25ZM11.4004 10.7998C11.649 10.4687 12.1189 10.4019 12.4502 10.6504C12.7813 10.899 12.8481 11.3689 12.5996 11.7002L12.375 12C11.9791 12.5277 11.6432 13.0056 11.1299 13.2617L11.1309 13.2627C10.6188 13.5187 10.0353 13.5 9.375 13.5H8.625C7.96467 13.5 7.3812 13.5187 6.86914 13.2627C6.35626 13.0065 6.02075 12.5274 5.625 12L5.40039 11.7002C5.15195 11.3689 5.21871 10.899 5.5498 10.6504C5.88107 10.4019 6.35102 10.4687 6.59961 10.7998L6.8252 11.0996C7.31262 11.7492 7.418 11.8605 7.53906 11.9209C7.65996 11.9813 7.81408 12 8.625 12H9.375C10.1859 12 10.3391 11.9813 10.46 11.9209C10.581 11.8605 10.6874 11.7492 11.1748 11.0996L11.4004 10.7998ZM6 6C5.46278 6 5.105 6.00095 4.83008 6.02344C4.56394 6.04522 4.44147 6.08365 4.36426 6.12305C4.15279 6.23087 3.98087 6.40279 3.87305 6.61426C3.83365 6.69147 3.79522 6.81394 3.77344 7.08008C3.76309 7.20655 3.75706 7.35053 3.75391 7.52148C4.19204 7.5011 4.69158 7.5 5.25 7.5H12.75C13.308 7.5 13.8072 7.50114 14.2451 7.52148C14.242 7.35054 14.2369 7.20655 14.2266 7.08008C14.2102 6.88056 14.1847 6.76192 14.1562 6.68262L14.127 6.61426C14.0192 6.40261 13.8473 6.23003 13.6357 6.12207C13.5583 6.08291 13.4357 6.04507 13.1709 6.02344C12.8958 6.001 12.5373 6 12 6H6ZM7.5 3C6.96278 3 6.605 3.00095 6.33008 3.02344C6.06394 3.04522 5.94147 3.08365 5.86426 3.12305C5.65279 3.23087 5.48087 3.40279 5.37305 3.61426C5.33365 3.69147 5.29522 3.81394 5.27344 4.08008C5.26345 4.20219 5.25712 4.34063 5.25391 4.50391C5.47963 4.49978 5.72816 4.5 6 4.5H12C12.2715 4.5 12.5197 4.49982 12.7451 4.50391C12.7419 4.34064 12.7366 4.20219 12.7266 4.08008C12.7102 3.88056 12.6847 3.76192 12.6562 3.68262L12.627 3.61426C12.5192 3.40261 12.3473 3.23003 12.1357 3.12207C12.0583 3.08291 11.9357 3.04507 11.6709 3.02344C11.3958 3.001 11.0373 3 10.5 3H7.5Z" fill="currentColor"/>
</svg>
