<svg width="18" height="18" viewBox="0 0 18 18" fill="none" xmlns="http://www.w3.org/2000/svg">
    <path d="M6.3291 4.66505C6.51428 4.2947 6.96455 4.14417 7.33496 4.32911C7.70532 4.51429 7.85584 4.96456 7.6709 5.33497L5.83789 9.00001L7.6709 12.665C7.85584 13.0355 7.70532 13.4857 7.33496 13.6709C6.96455 13.8558 6.51428 13.7053 6.3291 13.335L4.3291 9.33497C4.22379 9.12404 4.22379 8.87598 4.3291 8.66505L6.3291 4.66505Z" fill="currentColor"/>
    <path d="M13 8.25001C13.4142 8.25001 13.75 8.5858 13.75 9.00001C13.75 9.41422 13.4142 9.75001 13 9.75001H6C5.58579 9.75001 5.25 9.41422 5.25 9.00001C5.25 8.5858 5.58579 8.25001 6 8.25001H13Z" fill="currentColor"/>
</svg>
