<svg width="18" height="18" viewBox="0 0 18 18" fill="currentColor" xmlns="http://www.w3.org/2000/svg">
<path d="M14.25 8C14.25 7.30965 13.6904 6.75 13 6.75H5C4.30964 6.75 3.75 7.30965 3.75 8V13C3.75 13.6904 4.30964 14.25 5 14.25H13C13.6904 14.25 14.25 13.6904 14.25 13V8ZM15.75 13C15.75 14.5188 14.5188 15.75 13 15.75H5C3.48122 15.75 2.25 14.5188 2.25 13V8C2.25 6.48122 3.48122 5.25 5 5.25H13C14.5188 5.25 15.75 6.48122 15.75 8V13Z" fill="currentColor"/>
<path d="M3 8C3 6.89544 3.89543 6 5 6H13C14.1046 6 15 6.89544 15 8V13C15 14.1046 14.1046 15 13 15H5C3.89543 15 3 14.1046 3 13V8Z" fill="currentColor" fill-opacity="0.3"/>
<path d="M8.25 5V2C8.25 1.58579 8.58579 1.25 9 1.25C9.41421 1.25 9.75 1.58579 9.75 2V5C9.75 5.41421 9.41421 5.75 9 5.75C8.58579 5.75 8.25 5.41421 8.25 5Z" fill="currentColor"/>
<path d="M15 12V9C15 8.44772 15.4477 8 16 8C16.5523 8 17 8.44772 17 9V12L16.9951 12.1025C16.9438 12.6067 16.5177 13 16 13C15.4823 13 15.0562 12.6067 15.0049 12.1025L15 12Z" fill="currentColor"/>
<path d="M1 12L1 9C1 8.44772 1.44772 8 2 8C2.55228 8 3 8.44772 3 9V12L2.99512 12.1025C2.94379 12.6067 2.51768 13 2 13C1.48232 13 1.05621 12.6067 1.00488 12.1025L1 12Z" fill="currentColor"/>
<path d="M10.5 2.5C10.5 3.32843 9.82843 4 9 4C8.17157 4 7.5 3.32843 7.5 2.5C7.5 1.67157 8.17157 1 9 1C9.82843 1 10.5 1.67157 10.5 2.5Z" fill="currentColor"/>
<path d="M8 10C8 10.5523 7.55228 11 7 11C6.44772 11 6 10.5523 6 10C6 9.44772 6.44772 9 7 9C7.55228 9 8 9.44772 8 10Z" fill="currentColor"/>
<path d="M12 10C12 10.5523 11.5523 11 11 11C10.4477 11 10 10.5523 10 10C10 9.44772 10.4477 9 11 9C11.5523 9 12 9.44772 12 10Z" fill="currentColor"/>
</svg>
