<svg width="16" height="16" viewBox="0 0 16 16" fill="none" xmlns="http://www.w3.org/2000/svg">
    <path d="M9.0282 9.11084V4.88916C9.0282 3.58523 7.97078 2.52795 6.66687 2.52783C5.36286 2.52783 4.30554 3.58515 4.30554 4.88916V9.55518C4.30554 11.7183 6.05942 13.4722 8.22253 13.4722C10.3855 13.472 12.1385 11.7182 12.1385 9.55518V6.6665C12.1387 6.2525 12.4746 5.91668 12.8885 5.9165C13.3027 5.9165 13.6384 6.25239 13.6385 6.6665V9.55518C13.6385 12.5466 11.2139 14.972 8.22253 14.9722C5.23099 14.9722 2.80554 12.5467 2.80554 9.55518V4.88916C2.80554 2.75673 4.53444 1.02783 6.66687 1.02783C8.7992 1.02795 10.5282 2.7568 10.5282 4.88916V9.11084C10.5282 10.3841 9.49571 11.4163 8.22253 11.4165C6.9497 11.4165 5.91687 10.3856 5.91687 9.11182V5.3335C5.91687 4.91928 6.25266 4.5835 6.66687 4.5835C7.08098 4.58361 7.41687 4.91935 7.41687 5.3335V9.11182C7.41687 9.55622 7.77714 9.9165 8.22253 9.9165C8.66728 9.91633 9.0282 9.55563 9.0282 9.11084Z" fill="currentColor" fill-opacity="0.5"/>
</svg>
