<svg width="18" height="18" viewBox="0 0 18 18" fill="currentColor" xmlns="http://www.w3.org/2000/svg">
    <path d="M10.25 10.25V5.5C10.25 3.98122 9.01878 2.75 7.5 2.75C5.98122 2.75 4.75 3.98122 4.75 5.5V10.75C4.75 13.2353 6.76472 15.25 9.25 15.25C11.7353 15.25 13.75 13.2353 13.75 10.75V7.5C13.75 7.08579 14.0858 6.75 14.5 6.75C14.9142 6.75 15.25 7.08579 15.25 7.5V10.75C15.25 14.0637 12.5637 16.75 9.25 16.75C5.93629 16.75 3.25 14.0637 3.25 10.75V5.5C3.25 3.15279 5.15279 1.25 7.5 1.25C9.84721 1.25 11.75 3.15279 11.75 5.5V10.25C11.75 11.6307 10.6307 12.75 9.25 12.75C7.86981 12.75 6.75005 11.6321 6.75 10.251V6C6.75 5.58579 7.08579 5.25 7.5 5.25C7.91421 5.25 8.25 5.58579 8.25 6V10.251C8.25005 10.8027 8.69725 11.25 9.25 11.25C9.80228 11.25 10.25 10.8023 10.25 10.25Z" fill="currentColor"/>
</svg>
