<svg width="24" height="14" viewBox="0 0 24 14" fill="none" xmlns="http://www.w3.org/2000/svg">
    <path d="M6.55046 5.09908C6.55046 5.38513 6.58139 5.61705 6.6355 5.78714C6.69735 5.95722 6.77466 6.14276 6.88289 6.34376C6.92155 6.40561 6.93701 6.46746 6.93701 6.52157C6.93701 6.59888 6.89063 6.67619 6.79012 6.7535L6.30307 7.0782C6.2335 7.12459 6.16392 7.14778 6.10207 7.14778C6.02476 7.14778 5.94745 7.10912 5.87014 7.03955C5.76191 6.92358 5.66914 6.79989 5.59183 6.67619C5.51452 6.54477 5.43721 6.39788 5.35217 6.22007C4.74916 6.93131 3.99152 7.28694 3.07927 7.28694C2.42988 7.28694 1.9119 7.10139 1.53309 6.73031C1.15427 6.35922 0.960999 5.86444 0.960999 5.24597C0.960999 4.58884 1.19293 4.05541 1.66451 3.6534C2.1361 3.25139 2.76231 3.05038 3.55859 3.05038C3.82144 3.05038 4.09203 3.07358 4.37807 3.11223C4.66412 3.15089 4.95789 3.21273 5.26713 3.28231V2.71795C5.26713 2.1304 5.14343 1.72066 4.90378 1.481C4.65639 1.24135 4.23891 1.12538 3.64363 1.12538C3.37305 1.12538 3.09474 1.1563 2.80869 1.22588C2.52265 1.29546 2.24433 1.3805 1.97375 1.48874C1.85006 1.54285 1.75728 1.57378 1.70317 1.58924C1.64905 1.6047 1.6104 1.61243 1.57947 1.61243C1.47124 1.61243 1.41712 1.53512 1.41712 1.37277V0.993955C1.41712 0.87026 1.43259 0.777489 1.47124 0.723373C1.50989 0.669256 1.57947 0.615139 1.68771 0.561023C1.95829 0.421866 2.28299 0.305902 2.6618 0.213131C3.04062 0.112629 3.44263 0.0662431 3.86783 0.0662431C4.78781 0.0662431 5.4604 0.274978 5.89334 0.692449C6.31854 1.10992 6.535 1.74386 6.535 2.59426V5.09908H6.55046ZM3.4117 6.27418C3.66683 6.27418 3.92968 6.2278 4.20799 6.13503C4.4863 6.04226 4.73369 5.87218 4.94243 5.64025C5.06612 5.49336 5.1589 5.33101 5.20528 5.14547C5.25167 4.95993 5.28259 4.73573 5.28259 4.47288V4.14818C5.05839 4.09406 4.81873 4.04767 4.57134 4.01675C4.32395 3.98583 4.0843 3.97037 3.84464 3.97037C3.32666 3.97037 2.94785 4.07087 2.69273 4.2796C2.43761 4.48834 2.31391 4.78211 2.31391 5.16866C2.31391 5.53201 2.40668 5.8026 2.59996 5.98814C2.7855 6.18141 3.05608 6.27418 3.4117 6.27418ZM9.61965 7.10913C9.48049 7.10913 9.38772 7.08593 9.32587 7.03182C9.26402 6.98543 9.20991 6.8772 9.16352 6.73031L7.34675 0.754296C7.30036 0.599678 7.27717 0.499175 7.27717 0.445059C7.27717 0.321364 7.33902 0.251786 7.46271 0.251786H8.22035C8.36723 0.251786 8.46774 0.274978 8.52185 0.329095C8.5837 0.375481 8.63009 0.483714 8.67647 0.630601L9.97527 5.74848L11.1813 0.630601C11.2199 0.475983 11.2663 0.375481 11.3282 0.329095C11.39 0.282709 11.4983 0.251786 11.6374 0.251786H12.2559C12.4028 0.251786 12.5033 0.274978 12.5651 0.329095C12.627 0.375481 12.6811 0.483714 12.712 0.630601L13.9335 5.81033L15.271 0.630601C15.3173 0.475983 15.3715 0.375481 15.4256 0.329095C15.4874 0.282709 15.5879 0.251786 15.7271 0.251786H16.4461C16.5698 0.251786 16.6393 0.313633 16.6393 0.445059C16.6393 0.483714 16.6316 0.522368 16.6239 0.568754C16.6161 0.615139 16.6007 0.676987 16.5698 0.762027L14.7066 6.73804C14.6602 6.89266 14.6061 6.99316 14.5443 7.03955C14.4824 7.08593 14.3819 7.11686 14.2505 7.11686H13.5856C13.4387 7.11686 13.3382 7.09366 13.2764 7.03955C13.2145 6.98543 13.1604 6.88493 13.1295 6.73031L11.9312 1.74386L10.7406 6.72258C10.702 6.8772 10.6556 6.9777 10.5937 7.03182C10.5319 7.08593 10.4237 7.10913 10.2845 7.10913H9.61965ZM19.5539 7.31786C19.1519 7.31786 18.7499 7.27147 18.3633 7.1787C17.9768 7.08593 17.6753 6.98543 17.4743 6.86947C17.3506 6.79989 17.2655 6.72258 17.2346 6.653C17.2037 6.58342 17.1882 6.50611 17.1882 6.43653V6.04226C17.1882 5.87991 17.2501 5.8026 17.366 5.8026C17.4124 5.8026 17.4588 5.81033 17.5052 5.82579C17.5516 5.84125 17.6212 5.87218 17.6985 5.9031C17.9613 6.01906 18.2474 6.11183 18.5489 6.17368C18.8581 6.23553 19.1596 6.26645 19.4689 6.26645C19.9559 6.26645 20.3347 6.18141 20.5976 6.01133C20.8604 5.84125 20.9996 5.59386 20.9996 5.27689C20.9996 5.06043 20.93 4.88262 20.7908 4.73573C20.6517 4.58884 20.3888 4.45741 20.01 4.33372L18.889 3.98583C18.3247 3.80802 17.9072 3.54516 17.6521 3.19727C17.397 2.85711 17.2655 2.47829 17.2655 2.07629C17.2655 1.75159 17.3351 1.46554 17.4743 1.21815C17.6134 0.970762 17.799 0.754296 18.0309 0.584216C18.2628 0.406404 18.5257 0.274978 18.8349 0.182207C19.1442 0.0894359 19.4689 0.0507812 19.809 0.0507812C19.9791 0.0507812 20.1569 0.0585122 20.327 0.081705C20.5048 0.104898 20.6672 0.135822 20.8295 0.166745C20.9841 0.2054 21.131 0.244055 21.2702 0.29044C21.4093 0.336826 21.5176 0.383211 21.5949 0.429597C21.7031 0.491445 21.7804 0.553292 21.8268 0.62287C21.8732 0.684718 21.8964 0.769758 21.8964 0.877991V1.24135C21.8964 1.40369 21.8345 1.48874 21.7186 1.48874C21.6567 1.48874 21.5562 1.45781 21.4248 1.39596C20.9841 1.19496 20.4893 1.09446 19.9404 1.09446C19.4998 1.09446 19.1519 1.16404 18.9122 1.31092C18.6726 1.45781 18.5489 1.68201 18.5489 1.99898C18.5489 2.21544 18.6262 2.40099 18.7808 2.54787C18.9354 2.69476 19.2215 2.84165 19.6312 2.97307L20.729 3.32097C21.2856 3.49878 21.6876 3.74617 21.9273 4.06314C22.167 4.38011 22.2829 4.74346 22.2829 5.14547C22.2829 5.4779 22.2133 5.7794 22.0819 6.04226C21.9428 6.30511 21.7572 6.53704 21.5176 6.72258C21.2779 6.91585 20.9918 7.05501 20.6594 7.15551C20.3115 7.26374 19.9482 7.31786 19.5539 7.31786Z" fill="currentColor"/>
    <path fill-rule="evenodd" clip-rule="evenodd" d="M21.0152 11.0743C18.4717 12.9529 14.7763 13.9502 11.5989 13.9502C7.14586 13.9502 3.1335 12.3035 0.102977 9.56674C-0.136682 9.35027 0.0797845 9.0565 0.365829 9.22658C3.64375 11.1284 7.68702 12.2803 11.8695 12.2803C14.6912 12.2803 17.7914 11.6927 20.6441 10.4867C21.0693 10.2934 21.4326 10.765 21.0152 11.0743Z" fill="currentColor"/>
    <path fill-rule="evenodd" clip-rule="evenodd" d="M22.0742 9.86931C21.7495 9.45184 19.925 9.6683 19.0978 9.7688C18.8504 9.79973 18.8118 9.58326 19.036 9.42091C20.4894 8.40043 22.8783 8.6942 23.1566 9.03436C23.4349 9.38226 23.0793 11.7711 21.7186 12.9153C21.5099 13.0931 21.3089 13.0003 21.4016 12.7684C21.7109 12.003 22.3989 10.279 22.0742 9.86931Z" fill="currentColor"/>
</svg>
