<svg width="18" height="18" viewBox="0 0 18 18" fill="currentColor" xmlns="http://www.w3.org/2000/svg">
    <path d="M9 15.75C7.42817 15.75 6.03548 14.9859 5.1709 13.8096L3.4502 15.0996C3.11893 15.3481 2.64898 15.2813 2.40039 14.9502C2.15195 14.6189 2.21871 14.149 2.5498 13.9004L4.47852 12.4551C4.33102 11.9964 4.25 11.5077 4.25 11L4.25 10.25L2.5 10.25C2.08579 10.25 1.75 9.91421 1.75 9.5C1.75 9.08579 2.08579 8.75 2.5 8.75L4.25 8.75L4.25 7.41113C4.25001 7.23891 4.2645 7.07002 4.29102 6.90527L2.54981 5.59961C2.21871 5.35102 2.15195 4.88107 2.40039 4.5498C2.64898 4.2187 3.11893 4.15194 3.4502 4.40039L4.9043 5.49121C5.25043 5.03996 5.71284 4.68302 6.25 4.4707L6.25 4C6.25 2.48122 7.48122 1.25 9 1.25C10.5188 1.25 11.75 2.48122 11.75 4L11.75 4.4707C12.2874 4.68309 12.7505 5.03973 13.0967 5.49121L14.5498 4.40039C14.8811 4.15194 15.351 4.21871 15.5996 4.5498C15.8481 4.88107 15.7813 5.35102 15.4502 5.59961L13.71 6.90527C13.7365 7.06997 13.75 7.23896 13.75 7.41113L13.75 8.75L15.5 8.75C15.9142 8.75 16.25 9.08579 16.25 9.5C16.25 9.91421 15.9142 10.25 15.5 10.25L13.75 10.25L13.75 11C13.75 11.5076 13.6699 11.9965 13.5225 12.4551L15.4502 13.9004C15.7813 14.149 15.8481 14.6189 15.5996 14.9502C15.351 15.2813 14.8811 15.3481 14.5498 15.0996L12.8301 13.8096C11.9655 14.9862 10.572 15.75 9 15.75ZM10.25 4C10.25 3.30964 9.69036 2.75 9 2.75C8.30965 2.75 7.75 3.30965 7.75 4L7.75 4.25L10.25 4.25L10.25 4ZM9 14.25C10.7949 14.25 12.25 12.7949 12.25 11L12.25 7.41113C12.2499 6.49377 11.5062 5.75011 10.5889 5.75L7.41113 5.75C6.49377 5.75012 5.75012 6.49377 5.75 7.41113L5.75 11C5.75 12.7949 7.20508 14.25 9 14.25Z" fill="currentColor"/>
</svg>
