<svg width="18" height="18" viewBox="0 0 18 18" fill="none" xmlns="http://www.w3.org/2000/svg">
<path d="M7.50293 4C7.27348 4.91892 7.68717 5.98291 8.74609 6.375L10.1162 6.88184L10.624 8.25293C10.7099 8.4851 10.8288 8.68619 10.9707 8.85645C9.00959 9.56638 7.5 11.2814 7.5 13.5C7.5 14.4198 7.75959 15.2529 8.20312 15.9639C7.97211 15.9868 7.73762 16 7.5 16C6.77741 16 6.08292 15.8894 5.43359 15.6885L1.53223 15.9629C1.26469 15.9817 1.05203 15.7443 1.10449 15.4854L1.67676 12.667C1.24404 11.8635 1 10.9582 1 10C1 6.68629 3.91015 4 7.5 4H7.50293Z" fill="currentColor" fill-opacity="0.7"/>
<path d="M13 9.99939C15.2089 9.9994 16.9996 11.5667 17 13.4994C17 14.058 16.849 14.5856 16.583 15.0541L16.9355 16.6986C16.9679 16.8497 16.8374 16.9888 16.6729 16.9779L14.2715 16.8177C13.872 16.9349 13.4446 16.9994 13 16.9994C10.7909 16.9993 9 15.4323 9 13.4994C9.00037 11.5667 10.7912 9.99947 13 9.99939ZM12.0303 1.26697C12.1914 0.831956 12.8075 0.832033 12.9688 1.26697L13.6357 3.06873C13.6864 3.20536 13.7941 3.31297 13.9307 3.36365L15.7324 4.03064C16.1677 4.19172 16.1677 4.80804 15.7324 4.96912L13.9307 5.63513C13.7939 5.68576 13.6864 5.79428 13.6357 5.93103L12.9688 7.73279C12.8076 8.16783 12.1914 8.16789 12.0303 7.73279L11.3643 5.93103C11.3136 5.79432 11.2051 5.68574 11.0684 5.63513L9.2666 4.96912C8.83173 4.80787 8.83168 4.19183 9.2666 4.03064L11.0684 3.36365C11.2052 3.313 11.3136 3.20559 11.3643 3.06873L12.0303 1.26697Z" fill="currentColor"/>
</svg>
