<svg width="18" height="18" viewBox="0 0 18 18" fill="currentColor" xmlns="http://www.w3.org/2000/svg">
    <path d="M9 1C13.4183 1 17 4.35786 17 8.5C17 12.6421 13.4183 16 9 16C8.11695 16 7.26792 15.864 6.47363 15.6162C6.46178 15.6125 6.44891 15.6105 6.43652 15.6113L1.6543 15.9531C1.32509 15.9764 1.06417 15.6801 1.12891 15.3564L1.82617 11.8682C1.82842 11.8569 1.82877 11.8452 1.82715 11.834L1.81641 11.8018C1.29438 10.8054 1 9.68499 1 8.5C1 4.35786 4.58172 1 9 1ZM9 2.5C5.31749 2.5 2.5 5.27601 2.5 8.5C2.5 9.43269 2.73138 10.3151 3.14551 11.1055C3.31363 11.4265 3.36937 11.7993 3.29688 12.1621L2.85645 14.3633L6.3291 14.1152C6.47997 14.1045 6.63061 14.1155 6.77637 14.1465L6.91992 14.1846L7.16699 14.2559C7.74816 14.4138 8.36267 14.5 9 14.5C12.6825 14.5 15.5 11.724 15.5 8.5C15.5 5.27601 12.6825 2.5 9 2.5ZM9.54004 5.58105C9.77146 5.46534 10.053 5.55877 10.1689 5.79004L11.4189 8.29004C11.4849 8.42201 11.4849 8.57799 11.4189 8.70996L10.1689 11.21C10.053 11.4412 9.77146 11.5347 9.54004 11.4189C9.30877 11.303 9.21534 11.0215 9.33105 10.79L10.2422 8.96875H6C5.74112 8.96875 5.53125 8.75888 5.53125 8.5C5.53125 8.24112 5.74112 8.03125 6 8.03125H10.2422L9.33105 6.20996C9.21534 5.97854 9.30877 5.69695 9.54004 5.58105Z" fill="currentColor"/>
</svg>
