<svg width="18" height="18" viewBox="0 0 18 18" fill="none" xmlns="http://www.w3.org/2000/svg">
<path d="M8.96875 1.09009C9.85459 1.0901 10.7091 1.21788 11.5117 1.45435L11.209 2.27173L9.75879 2.80981C7.91586 3.4922 7.91607 6.09889 9.75879 6.78149L11.209 7.31763L11.7471 8.76978C12.4293 10.6133 15.0364 10.6133 15.7188 8.76978L16.2549 7.31763L17.1543 6.98462C17.3395 7.63761 17.4395 8.32383 17.4395 9.03149C17.4394 13.4171 13.6468 16.9728 8.96875 16.9729C8.0266 16.9729 7.12097 16.8259 6.27441 16.5598L1.19043 16.9231C0.8421 16.9475 0.566369 16.6338 0.634766 16.2913L1.37988 12.5608C0.816203 11.4976 0.498077 10.2994 0.498047 9.03149C0.498048 4.6457 4.29057 1.09009 8.96875 1.09009ZM13.2373 1.37329C13.4079 0.912402 14.0589 0.912392 14.2295 1.37329L14.9355 3.28052C14.9892 3.42543 15.1041 3.54038 15.249 3.59399L17.1562 4.29907C17.6171 4.46962 17.6171 5.12164 17.1562 5.29224L15.249 5.99829C15.1044 6.05193 14.9892 6.16618 14.9355 6.31079L14.2295 8.21899L14.1924 8.30005C14.1556 8.36541 14.1066 8.41711 14.0518 8.45825C14.0456 8.46289 14.0396 8.4676 14.0332 8.47192C14.0221 8.47947 14.0106 8.48582 13.999 8.49243C13.9886 8.4984 13.9785 8.5048 13.9678 8.51001C13.9535 8.51693 13.9386 8.52202 13.9238 8.52759C13.9163 8.53043 13.909 8.53388 13.9014 8.53638C13.8862 8.54131 13.871 8.54551 13.8555 8.54907C13.8451 8.55146 13.8347 8.55316 13.8242 8.55493C13.8135 8.55674 13.8028 8.55865 13.792 8.55981C13.7777 8.56137 13.7634 8.56232 13.749 8.56274C13.736 8.56312 13.723 8.5633 13.71 8.56274C13.6988 8.56228 13.6878 8.56095 13.6768 8.55981C13.6637 8.55845 13.6507 8.55723 13.6377 8.55493C13.6275 8.55313 13.6175 8.55048 13.6074 8.5481C13.5919 8.54442 13.5767 8.54045 13.5615 8.5354C13.5516 8.53212 13.5419 8.52853 13.5322 8.52466C13.521 8.52015 13.51 8.5153 13.499 8.51001C13.4602 8.49131 13.4233 8.4683 13.3896 8.4397C13.3839 8.43477 13.3777 8.43027 13.3721 8.42505C13.3595 8.41337 13.3484 8.40011 13.3369 8.38696C13.3307 8.37987 13.3242 8.373 13.3184 8.36548C13.2853 8.32323 13.257 8.27474 13.2363 8.21899L12.5312 6.31079C12.4776 6.16612 12.3624 6.05189 12.2178 5.99829L10.3096 5.29224C10.2693 5.27727 10.2334 5.25729 10.2002 5.2356C10.1386 5.19537 10.0881 5.1461 10.0508 5.08911C10.0258 5.05098 10.0073 5.00961 9.99316 4.96704C9.98299 4.93635 9.97425 4.90519 9.96973 4.87329C9.96608 4.84775 9.96488 4.82192 9.96484 4.79614C9.96484 4.74443 9.97176 4.69263 9.98633 4.64282C10.0295 4.49436 10.1372 4.36307 10.3096 4.29907L10.7344 4.14087L12.2178 3.59302C12.3262 3.55275 12.418 3.4778 12.4795 3.38208L12.5312 3.28052L12.9893 2.03931L13.2373 1.37329Z" fill="currentColor"/>
</svg>
