<svg width="18" height="18" viewBox="0 0 18 18" fill="none" xmlns="http://www.w3.org/2000/svg">
    <path d="M8.21387 7.53125C8.47259 7.20784 8.94511 7.15541 9.26855 7.41406C9.592 7.67282 9.6445 8.1453 9.38574 8.46875L6.46484 12.1191C6.03667 12.6544 5.23857 12.6985 4.75391 12.2139L3.46973 10.9307C3.1769 10.6378 3.17703 10.163 3.46973 9.87012C3.76262 9.57722 4.23738 9.57722 4.53027 9.87012L5.53808 10.877L8.21387 7.53125Z" fill="currentColor"/>
    <path d="M11 8.28711L11 14C11 14.6904 10.4404 15.25 9.75 15.25L3.75 15.25C3.05964 15.25 2.5 14.6904 2.5 14L2.5 6C2.5 5.30964 3.05964 4.75 3.75 4.75L8.69531 4.75C8.7815 4.75 8.86252 4.79411 8.9082 4.86719L10.9619 8.1543C10.9867 8.19403 11 8.24025 11 8.28711ZM12.5 8.28711C12.5 7.95921 12.4081 7.63745 12.2344 7.35938L10.1797 4.07227C9.85987 3.56071 9.29862 3.25 8.69531 3.25L3.75 3.25C2.23122 3.25 1 4.48122 1 6L1 14C1 15.5188 2.23122 16.75 3.75 16.75L9.75 16.75C11.2688 16.75 12.5 15.5188 12.5 14L12.5 8.28711Z" fill="currentColor"/>
    <path d="M14 11.75L14 6.03711C14 5.99025 13.9867 5.94403 13.9619 5.9043L11.9082 2.61719C11.8625 2.54411 11.7815 2.5 11.6953 2.5L6.75 2.5C6.43084 2.5 6.13962 2.61961 5.91872 2.81646C5.80132 2.92107 5.65739 3 5.50013 3L4.76455 3C4.43291 3 4.19426 2.67996 4.3583 2.39173C4.83136 1.56054 5.72522 1 6.75 1L11.6953 1C12.2986 1 12.8599 1.31071 13.1797 1.82227L15.2344 5.10937C15.4081 5.38745 15.5 5.70921 15.5 6.03711L15.5 11.75C15.5 13.0989 14.5288 14.221 13.2475 14.4551C12.9758 14.5048 12.75 14.2761 12.75 14V13.5C12.75 13.2239 12.9826 13.0093 13.2369 12.9016C13.6853 12.7118 14 12.2676 14 11.75Z" fill="currentColor"/>
</svg>
