<svg width="18" height="18" viewBox="0 0 18 18" fill="none" xmlns="http://www.w3.org/2000/svg">
    <path d="M14.25 9C14.25 6.10051 11.8995 3.75 9 3.75C6.10051 3.75 3.75 6.10051 3.75 9C3.75 11.8995 6.10051 14.25 9 14.25C11.8995 14.25 14.25 11.8995 14.25 9ZM15.75 9C15.75 12.7279 12.7279 15.75 9 15.75C5.27208 15.75 2.25 12.7279 2.25 9C2.25 5.27208 5.27208 2.25 9 2.25C12.7279 2.25 15.75 5.27208 15.75 9Z" fill="#03FE06"/>
    <path d="M6.00586 9.56445C5.69426 9.29167 5.66283 8.81754 5.93555 8.50586C6.20833 8.19426 6.68246 8.16283 6.99414 8.43555L8.44727 9.70801L11.4521 6.48828C11.7348 6.18567 12.209 6.16959 12.5117 6.45215C12.8143 6.7348 12.8304 7.20898 12.5479 7.51172L9.04785 11.2617C8.7716 11.5575 8.31046 11.581 8.00586 11.3145L6.00586 9.56445Z" fill="#03FE06"/>
</svg>
