<svg width="18" height="18" viewBox="0 0 18 18" fill="none" xmlns="http://www.w3.org/2000/svg">
    <path d="M9.53524 7.09146L15.5456 1.08105C15.8357 0.791017 16.3066 0.791017 16.5966 1.08105C16.8867 1.37108 16.8867 1.84201 16.5966 2.13204L10.5862 8.14245C10.2962 8.43248 9.82528 8.43249 9.53524 8.14245C9.24521 7.85242 9.24521 7.38149 9.53524 7.09146Z" fill="currentColor"/>
    <path d="M1.16297 8.44925L4.95042 6.97242C5.04448 6.93574 5.15141 6.96876 5.20843 7.05207C6.62 9.11465 8.39252 10.9053 10.4406 12.3377L10.6138 12.4588C10.7034 12.5215 10.7363 12.6387 10.6923 12.7388L9.08499 16.399C8.9051 16.8087 8.40654 16.9674 8.0229 16.7373L6.99698 16.1218C4.69725 14.742 2.77251 12.8174 1.39262 10.5177L0.795942 9.52331C0.55927 9.12888 0.73441 8.61636 1.16297 8.44925Z" fill="currentColor"/>
    <path d="M6.52527 5.49557C6.91579 5.10505 7.54896 5.10505 7.93948 5.49557L12.1821 9.73821C12.5726 10.1287 12.5726 10.7619 12.1821 11.1524L11.6642 11.6703C11.553 11.7815 11.3804 11.8028 11.2456 11.7219L11.2456 11.7219C9.07491 10.4195 7.25822 8.60278 5.95583 6.43213L5.95583 6.43213C5.87492 6.29728 5.89617 6.12467 6.00737 6.01347L6.52527 5.49557Z" fill="currentColor"/>
</svg>
