<svg width="18" height="18" viewBox="0 0 18 18" fill="none" xmlns="http://www.w3.org/2000/svg">
<path d="M10.2832 2.2793C10.4051 1.8837 10.825 1.66166 11.2207 1.7832C11.6165 1.90506 11.8385 2.3249 11.7168 2.7207L7.7168 15.7207C7.59493 16.1165 7.17515 16.3386 6.7793 16.2168C6.38371 16.0948 6.16144 15.675 6.2832 15.2793L10.2832 2.2793Z" fill="currentColor" fill-opacity="0.4"/>
<path d="M4.41406 6.53101C4.67271 6.2077 5.14531 6.15544 5.46875 6.41382C5.7922 6.67258 5.84469 7.14506 5.58594 7.46851L3.96094 9.49976L5.58594 11.531C5.84469 11.8545 5.7922 12.3269 5.46875 12.5857C5.14531 12.8443 4.67278 12.7919 4.41406 12.4685L2.41406 9.96851C2.19526 9.69463 2.19508 9.30479 2.41406 9.03101L4.41406 6.53101ZM12.5312 6.41382C12.8546 6.15517 13.3271 6.20791 13.5859 6.53101L15.5859 9.03101C15.8051 9.30492 15.8051 9.69459 15.5859 9.96851L13.5859 12.4685C13.3272 12.7919 12.8547 12.8444 12.5312 12.5857C12.2082 12.3269 12.1555 11.8543 12.4141 11.531L14.0391 9.49976L12.4141 7.46851C12.1557 7.14512 12.2081 6.6725 12.5312 6.41382Z" fill="currentColor"/>
</svg>
