<svg width="18" height="18" viewBox="0 0 18 18" fill="none" xmlns="http://www.w3.org/2000/svg">
    <circle cx="9" cy="9" r="2" stroke="currentColor" stroke-width="1.5" stroke-linecap="round" stroke-linejoin="round"/>
    <path d="M9.7998 2C10.573 2 11.2002 2.62719 11.2002 3.40039V4.2168L11.8223 3.56445C12.3558 3.00529 13.2423 2.98423 13.8018 3.51758L14.959 4.62207C15.5186 5.15564 15.5394 6.04198 15.0059 6.60156L14.8018 6.81543C15.4793 6.91329 16 7.49556 16 8.2002V9.7998C16 10.573 15.3728 11.2002 14.5996 11.2002H14.3066L14.959 11.8223C15.5186 12.3558 15.5394 13.2422 15.0059 13.8018L13.9023 14.959C13.3688 15.5186 12.4824 15.5394 11.9229 15.0059L11.2002 14.3174V14.5996C11.2002 15.3728 10.573 16 9.7998 16H8.2002C7.5069 16 6.93188 15.4955 6.82031 14.834L6.70215 14.959C6.16858 15.5186 5.28224 15.5394 4.72266 15.0059L3.56445 13.9023C3.00517 13.3688 2.98437 12.4824 3.51758 11.9229L4.20703 11.2002H3.40039C2.62719 11.2002 2 10.573 2 9.7998V8.2002C2 7.427 2.62719 6.7998 3.40039 6.7998H3.66699L3.56445 6.70215C3.00523 6.16861 2.9843 5.28216 3.51758 4.72266L4.62207 3.56445C5.15561 3.00523 6.04207 2.9843 6.60156 3.51758L6.7998 3.70703V3.40039C6.7998 2.62719 7.427 2 8.2002 2H9.7998ZM8.2002 3.2002C8.08974 3.2002 8 3.28993 8 3.40039V4.30469C7.41662 4.42833 6.87269 4.65818 6.38867 4.97266L5.77344 4.38574C5.69353 4.30971 5.56642 4.31282 5.49023 4.39258L4.38574 5.55078C4.30972 5.63069 4.31282 5.7578 4.39258 5.83398L4.97266 6.3877C4.65798 6.87183 4.42937 7.41642 4.30566 8H3.40039C3.28993 8 3.2002 8.08974 3.2002 8.2002V9.7998C3.2002 9.91026 3.28993 10 3.40039 10H4.30566C4.45563 10.7075 4.76053 11.3574 5.18457 11.9121L4.38574 12.751C4.30994 12.8308 4.31323 12.957 4.39258 13.0332L5.55078 14.1387C5.63069 14.2146 5.75783 14.2106 5.83398 14.1309L6.70508 13.2168C7.10552 13.4352 7.54075 13.597 8 13.6943V14.5996C8 14.7101 8.08974 14.7998 8.2002 14.7998H9.7998C9.91026 14.7998 10 14.7101 10 14.5996V13.6943C10.5773 13.572 11.1155 13.3456 11.5957 13.0361L12.751 14.1387C12.8309 14.2145 12.9571 14.2105 13.0332 14.1309L14.1387 12.9736C14.2147 12.8937 14.2106 12.7666 14.1309 12.6904L13.0166 11.627C13.3364 11.139 13.5693 10.5897 13.6943 10H14.5996C14.7101 10 14.7998 9.91026 14.7998 9.7998V8.2002C14.7998 8.08974 14.7101 8 14.5996 8H13.6943C13.5986 7.54852 13.4404 7.1204 13.2275 6.72559L14.1387 5.77344C14.2146 5.69353 14.2106 5.56639 14.1309 5.49023L12.9736 4.38574C12.8938 4.30965 12.7667 4.31289 12.6904 4.39258L11.9248 5.19434C11.3673 4.76519 10.713 4.45579 10 4.30469V3.40039C10 3.28993 9.91026 3.2002 9.7998 3.2002H8.2002Z" fill="currentColor"/>
</svg>
