<svg width="18" height="18" viewBox="0 0 18 18" fill="none" xmlns="http://www.w3.org/2000/svg">
    <path d="M9.25 4C9.25 3.58579 9.58579 3.25 10 3.25C10.4142 3.25 10.75 3.58579 10.75 4V7.25H14C14.4142 7.25 14.75 7.58579 14.75 8C14.75 8.41421 14.4142 8.75 14 8.75H10C9.58579 8.75 9.25 8.41421 9.25 8V4Z" fill="currentColor"/>
    <path d="M8.75 14C8.75 14.4142 8.41421 14.75 8 14.75C7.58579 14.75 7.25 14.4142 7.25 14L7.25 10.75L4 10.75C3.58579 10.75 3.25 10.4142 3.25 10C3.25 9.58579 3.58579 9.25 4 9.25L8 9.25C8.41421 9.25 8.75 9.58579 8.75 10L8.75 14Z" fill="currentColor"/>
</svg>
