<svg width="18" height="18" viewBox="0 0 18 18" fill="currentColor" xmlns="http://www.w3.org/2000/svg">
<path d="M2.51211 12.5753C2.36604 12.8136 2.20199 13.09 2.06265 13.3102C2.0027 13.4115 1.98489 13.5323 2.01305 13.6466C2.0412 13.7609 2.11308 13.8596 2.21322 13.9215L5.1347 15.7193C5.18547 15.7507 5.24197 15.7716 5.30091 15.7809C5.35984 15.7901 5.42004 15.7876 5.47798 15.7734C5.53592 15.7591 5.59046 15.7335 5.6384 15.698C5.68633 15.6625 5.72672 15.6178 5.7572 15.5665C5.87406 15.371 6.02463 15.117 6.18868 14.8451C7.34604 12.9349 8.51014 13.1686 10.6091 14.1709L13.5059 15.5485C13.5602 15.5744 13.6191 15.589 13.6792 15.5917C13.7393 15.5944 13.7993 15.5849 13.8556 15.564C13.912 15.543 13.9636 15.511 14.0074 15.4697C14.0511 15.4284 14.0862 15.3788 14.1104 15.3238L15.5015 12.1776C15.5487 12.0696 15.5516 11.9473 15.5096 11.8372C15.4676 11.7271 15.3839 11.6378 15.2767 11.5888C14.6655 11.3011 13.4497 10.7281 12.3553 10.2C8.418 8.28751 5.07178 8.41111 2.51211 12.5753Z" fill="currentColor"/>
<path d="M15.6116 5.43548C15.7576 5.19727 15.9217 4.92085 16.061 4.70061C16.121 4.59931 16.1388 4.47852 16.1106 4.36422C16.0825 4.24992 16.0106 4.15122 15.9105 4.08935L12.989 2.29152C12.9378 2.25707 12.8801 2.23351 12.8195 2.22231C12.7589 2.21112 12.6966 2.21252 12.6365 2.22643C12.5764 2.24034 12.5199 2.26647 12.4703 2.30318C12.4208 2.3399 12.3793 2.38641 12.3485 2.43984C12.2316 2.63535 12.0811 2.8893 11.917 3.16122C10.7597 5.07142 9.59557 4.8377 7.4966 3.83541L4.60882 2.46456C4.55452 2.43871 4.49558 2.42402 4.4355 2.42137C4.37542 2.41871 4.31542 2.42814 4.25905 2.4491C4.20267 2.47006 4.15108 2.50211 4.10732 2.54337C4.06357 2.58463 4.02853 2.63424 4.0043 2.68929L2.61323 5.8355C2.56599 5.9435 2.56307 6.06574 2.60511 6.17588C2.64714 6.28601 2.73077 6.37523 2.83796 6.42429C3.44922 6.71194 4.66501 7.285 5.75944 7.81312C9.70569 9.72332 13.0519 9.59522 15.6116 5.43548Z" fill="currentColor"/>
</svg>
