<svg width="18" height="18" viewBox="0 0 18 18" fill="none" xmlns="http://www.w3.org/2000/svg">
<path d="M4.60254 7.0719C4.89537 6.77945 5.37029 6.7794 5.66309 7.0719C5.95568 7.36469 5.95557 7.83959 5.66309 8.13245L3.58203 10.2125C2.42149 11.3731 2.42184 13.2558 3.58203 14.4166C4.74283 15.5772 6.62542 15.5764 7.78613 14.4156L9.86621 12.3356C10.1589 12.0432 10.6339 12.0434 10.9268 12.3356C11.2195 12.6283 11.2193 13.1032 10.9268 13.3961L8.84668 15.4772C7.10018 17.2236 4.26805 17.2235 2.52148 15.4772C0.775511 13.7306 0.77516 10.8984 2.52148 9.15198L4.60254 7.0719ZM10.4277 6.4967C10.7206 6.20454 11.1956 6.20433 11.4883 6.4967C11.781 6.78939 11.7805 7.26431 11.4883 7.55725L7.52832 11.5182C7.23551 11.811 6.76067 11.8108 6.46777 11.5182C6.17498 11.2253 6.17495 10.7505 6.46777 10.4576L10.4277 6.4967ZM9.15234 2.52307C10.8989 0.776524 13.731 0.776519 15.4775 2.52307C17.2237 4.26967 17.223 7.10087 15.4766 8.84729L13.3965 10.9283C13.1037 11.2208 12.6288 11.2207 12.3359 10.9283C12.0434 10.6355 12.0434 10.1606 12.3359 9.8678L14.416 7.78674C15.5766 6.6261 15.5773 4.74443 14.417 3.58362C13.2562 2.42285 11.3737 2.42286 10.2129 3.58362L8.13281 5.66467C7.83997 5.95724 7.36412 5.95726 7.07129 5.66467C6.7785 5.37186 6.77866 4.89606 7.07129 4.60315L9.15234 2.52307Z" fill="currentColor"/>
</svg>
