<svg width="18" height="18" viewBox="0 0 18 18" fill="none" xmlns="http://www.w3.org/2000/svg">
    <path d="M15.25 10V4C15.25 3.30964 14.6904 2.75 14 2.75H8C7.30964 2.75 6.75 3.30964 6.75 4V6C6.75 6.41421 6.41421 6.75 6 6.75C5.58579 6.75 5.25 6.41421 5.25 6V4C5.25 2.48122 6.48122 1.25 8 1.25H14C15.5188 1.25 16.75 2.48122 16.75 4V10C16.75 11.5188 15.5188 12.75 14 12.75H12C11.5858 12.75 11.25 12.4142 11.25 12C11.25 11.5858 11.5858 11.25 12 11.25H14C14.6904 11.25 15.25 10.6904 15.25 10Z" fill="currentColor"/>
    <path d="M11.25 8C11.25 7.30964 10.6904 6.75 10 6.75H4C3.30964 6.75 2.75 7.30964 2.75 8V14C2.75 14.6904 3.30964 15.25 4 15.25H10C10.6904 15.25 11.25 14.6904 11.25 14V8ZM12.75 14C12.75 15.5188 11.5188 16.75 10 16.75H4C2.48122 16.75 1.25 15.5188 1.25 14V8C1.25 6.48122 2.48122 5.25 4 5.25H10C11.5188 5.25 12.75 6.48122 12.75 8V14Z" fill="currentColor"/>
</svg>
