<svg width="18" height="18" viewBox="0 0 18 18" fill="none" xmlns="http://www.w3.org/2000/svg">
    <path d="M3.51993 13.4194L13.4194 3.5199C13.7123 3.22701 14.1872 3.22701 14.4801 3.5199C14.773 3.8128 14.773 4.28767 14.4801 4.58056L4.58059 14.4801C4.28769 14.773 3.81282 14.773 3.51993 14.4801C3.22703 14.1872 3.22703 13.7123 3.51993 13.4194Z" fill="currentColor"/>
    <path d="M14.4801 13.4194C14.773 13.7123 14.773 14.1872 14.4801 14.4801C14.1872 14.773 13.7123 14.773 13.4194 14.4801L3.51992 4.58056C3.22703 4.28767 3.22703 3.8128 3.51992 3.5199C3.81282 3.22701 4.28769 3.22701 4.58058 3.5199L14.4801 13.4194Z" fill="currentColor"/>
</svg>
