<svg width="18" height="18" viewBox="0 0 18 18" fill="none" xmlns="http://www.w3.org/2000/svg">
<path d="M8.91895 2C9.13841 2.00062 9.32297 2.07518 9.47266 2.22363C9.62241 2.37235 9.69723 2.55717 9.69629 2.77734V3.63379C10.1889 3.71157 10.6165 3.87029 10.9795 4.11035C11.3424 4.35037 11.6407 4.64477 11.874 4.99414C11.9907 5.16266 12.0134 5.35119 11.9424 5.55859C11.8713 5.76582 11.7256 5.91515 11.5049 6.00586C11.3234 6.08364 11.1349 6.08666 10.9404 6.01562C10.7461 5.94457 10.5649 5.81765 10.3965 5.63574C10.228 5.4538 10.0298 5.31518 9.80273 5.21875C9.57562 5.12231 9.29355 5.0733 8.95703 5.07227C8.38684 5.07232 7.95238 5.19917 7.6543 5.45215C7.3564 5.70513 7.20703 6.01928 7.20703 6.39453C7.20706 6.82227 7.40215 7.15899 7.79102 7.40527C8.17987 7.65153 8.85349 7.91143 9.8125 8.18359C10.7069 8.44284 11.3853 8.85386 11.8457 9.41797C12.3061 9.98208 12.5356 10.6338 12.5352 11.3721C12.5352 12.2924 12.2632 12.993 11.7188 13.4727C11.1743 13.9522 10.4999 14.2495 9.69629 14.3662V15.2227C9.69619 15.4426 9.62163 15.6272 9.47266 15.7764C9.32342 15.9256 9.13861 16.0004 8.91895 16C8.69858 16 8.51307 15.9257 8.36426 15.7764C8.21558 15.6271 8.14124 15.4423 8.14063 15.2227V14.3281C7.55732 14.1985 7.04522 13.9715 6.60449 13.6475C6.16375 13.3234 5.80738 12.8695 5.53516 12.2861C5.44444 12.1047 5.44094 11.9135 5.52539 11.7129C5.60989 11.5123 5.76263 11.3667 5.98242 11.2754C6.16381 11.1977 6.35157 11.2008 6.5459 11.2852C6.74034 11.3697 6.88946 11.5092 6.99316 11.7031C7.21352 12.092 7.49307 12.3867 7.83008 12.5879C8.16705 12.7889 8.58179 12.8892 9.07422 12.8887C9.6056 12.8886 10.0557 12.7688 10.4248 12.5293C10.794 12.2897 10.979 11.9172 10.9795 11.4111C10.9795 10.9574 10.8369 10.5975 10.5518 10.332C10.2665 10.0666 9.60516 9.76521 8.56836 9.42773C7.45368 9.07776 6.68922 8.65963 6.27441 8.17383C5.85962 7.688 5.65138 7.09501 5.65137 6.39453C5.65137 5.55194 5.92431 4.89733 6.46875 4.43066C7.01312 3.96409 7.57034 3.69863 8.14062 3.63379V2.77734C8.14072 2.55738 8.21532 2.37279 8.36426 2.22363C8.51359 2.0743 8.69909 1.99948 8.91895 2Z" fill="currentColor"/>
</svg>
