<svg width="18" height="18" viewBox="0 0 18 18" fill="none" xmlns="http://www.w3.org/2000/svg">
<path d="M7.8457 1.25C8.89717 1.25 9.75 2.10283 9.75 3.1543C9.75024 3.37713 9.93141 3.55762 10.1543 3.55762H13.6543C14.8118 3.55786 15.75 4.49677 15.75 5.6543V6.29492C16.359 6.46535 16.749 7.10766 16.5645 7.75391L15.6377 10.9941C14.9335 10.3757 14.0109 10 13 10H8C5.79086 10 4 11.7909 4 14V14.75C2.48122 14.75 1.25 13.5188 1.25 12V4C1.25 2.48122 2.48122 1.25 4 1.25H7.8457Z" fill="currentColor" fill-opacity="0.7"/>
<path d="M9 11.25C9.41414 11.2501 9.75 11.5858 9.75 12C9.75 12.4142 9.41414 12.7499 9 12.75C7.62351 12.75 6.75 13.6557 6.75 14.5C6.75 15.3443 7.62351 16.25 9 16.25C9.41414 16.2501 9.75 16.5858 9.75 17C9.75 17.4142 9.41414 17.7499 9 17.75C7.06278 17.75 5.25 16.4172 5.25 14.5C5.25 12.5828 7.06278 11.25 9 11.25ZM12 11.25C13.9372 11.2501 15.75 12.5829 15.75 14.5C15.75 16.4171 13.9372 17.7499 12 17.75C11.5858 17.75 11.25 17.4142 11.25 17C11.25 16.5858 11.5858 16.25 12 16.25C13.3764 16.2499 14.25 15.3442 14.25 14.5C14.25 13.6558 13.3764 12.7501 12 12.75C11.5858 12.75 11.25 12.4142 11.25 12C11.25 11.5858 11.5858 11.25 12 11.25ZM11.5 13.75C11.9141 13.7501 12.25 14.0858 12.25 14.5C12.25 14.9142 11.9141 15.2499 11.5 15.25H9.5C9.08579 15.25 8.75 14.9142 8.75 14.5C8.75 14.0858 9.08579 13.75 9.5 13.75H11.5ZM16 6.25C16.2352 6.25008 16.457 6.36115 16.5986 6.54883C16.7401 6.73665 16.7853 6.97993 16.7207 7.20605L15.6377 10.9951C14.9334 10.3764 14.0102 10 12.999 10H7.99902C5.79026 10.0004 3.99902 11.7911 3.99902 14V14.748C2.04385 14.7247 0.732914 12.721 1.50586 10.917L3.31055 6.7041C3.42877 6.42873 3.70033 6.25019 4 6.25H16Z" fill="currentColor"/>
</svg>
