<svg width="18" height="18" viewBox="0 0 18 18" fill="none" xmlns="http://www.w3.org/2000/svg">
<path d="M14.1191 6.49121C14.738 6.54385 15.1979 7.08815 15.1455 7.70703L14.5068 15.2422C14.3808 16.7306 13.1354 17.875 11.6416 17.875H6.3584C4.86468 17.875 3.61921 16.7306 3.49316 15.2422L2.85547 7.70703C2.80314 7.08812 3.26197 6.5438 3.88086 6.49121C4.49979 6.43879 5.044 6.89774 5.09668 7.5166L5.73535 15.0518C5.76276 15.3753 6.03372 15.625 6.3584 15.625L11.6416 15.625C11.9663 15.625 12.2372 15.3753 12.2646 15.0518L12.9033 7.5166C12.956 6.89778 13.5002 6.43885 14.1191 6.49121ZM9 0.375C10.3005 0.375 11.3764 1.3213 11.585 2.5625L15 2.5625C15.6213 2.5625 16.125 3.06618 16.125 3.6875C16.1249 4.30877 15.6213 4.8125 15 4.8125L3 4.8125C2.37873 4.8125 1.87507 4.30877 1.875 3.6875C1.875 3.06618 2.37868 2.5625 3 2.5625L6.41504 2.5625C6.62357 1.3213 7.69953 0.375 9 0.375Z" fill="currentColor"/>
</svg>
