<svg width="18" height="18" viewBox="0 0 18 18" fill="none" xmlns="http://www.w3.org/2000/svg">
    <path d="M9.5 1.25C11.2949 1.25 12.75 2.70507 12.75 4.5H11.25C11.25 3.5335 10.4665 2.75 9.5 2.75H8.5C7.5335 2.75 6.75 3.5335 6.75 4.5H5.25C5.25 2.70507 6.70507 1.25 8.5 1.25H9.5Z" fill="currentColor"/>
    <path d="M15 3.75C15.4142 3.75 15.75 4.08579 15.75 4.5C15.75 4.91421 15.4142 5.25 15 5.25H3C2.58579 5.25 2.25 4.91421 2.25 4.5C2.25 4.08579 2.58579 3.75 3 3.75H15Z" fill="currentColor"/>
    <path d="M13.9603 6.52496C14.3721 6.56681 14.6717 6.93437 14.6302 7.34625L13.9281 14.2769C13.7858 15.6811 12.604 16.7494 11.1927 16.7496H6.80793C5.3965 16.7496 4.21389 15.6812 4.0716 14.2769L3.36946 7.34625C3.32793 6.9343 3.62838 6.5667 4.04035 6.52496C4.4523 6.48344 4.8199 6.78389 4.86164 7.19586L5.56379 14.1255C5.62847 14.7638 6.16637 15.2496 6.80793 15.2496H11.1927C11.8341 15.2494 12.3712 14.7637 12.4359 14.1255L13.138 7.19586C13.1798 6.78375 13.5482 6.4832 13.9603 6.52496Z" fill="currentColor"/>
    <path d="M8.25 12V10C8.25 9.58579 8.58579 9.25 9 9.25C9.41421 9.25 9.75 9.58579 9.75 10V12C9.75 12.4142 9.41421 12.75 9 12.75C8.58579 12.75 8.25 12.4142 8.25 12Z" fill="currentColor"/>
</svg>
