<svg width="18" height="18" viewBox="0 0 18 18" fill="none" xmlns="http://www.w3.org/2000/svg">
    <path d="M9.91895 3.25C12.3845 3.25 14.4309 4.99896 14.9453 7.32422C14.4187 7.14377 13.8596 7.03338 13.2783 7.00684C12.7189 5.67632 11.4206 4.75 9.91895 4.75C8.19795 4.75019 6.74352 5.96561 6.36328 7.61523C6.29505 7.91101 6.05525 8.13658 5.75586 8.18652C4.62636 8.37446 3.75002 9.37508 3.75 10.5957C3.75 12.0184 4.89332 13.25 6.14551 13.25H7.00586C7.02717 13.7698 7.11437 14.2725 7.25977 14.75H6.14551C3.92365 14.75 2.25 12.6982 2.25 10.5957C2.25002 8.81724 3.4167 7.30614 5.03027 6.81934C5.71028 4.75163 7.63524 3.25018 9.91895 3.25Z" fill="currentColor"/>
    <path d="M14.3259 10.2378C14.6188 9.94493 15.0937 9.94493 15.3866 10.2378C15.6794 10.5307 15.6794 11.0056 15.3866 11.2985L11.6742 15.0108C11.3813 15.3037 10.9065 15.3037 10.6136 15.0108C10.3207 14.7179 10.3207 14.243 10.6136 13.9501L14.3259 10.2378Z" fill="currentColor"/>
    <path d="M10.597 11.3283C10.3005 11.039 10.2946 10.5642 10.5838 10.2677C10.873 9.97115 11.3478 9.96522 11.6444 10.2544L15.4028 13.9201C15.6993 14.2093 15.7052 14.6841 15.416 14.9807C15.1268 15.2772 14.652 15.2831 14.3554 14.9939L10.597 11.3283Z" fill="currentColor"/>
</svg>
