<svg width="18" height="18" viewBox="0 0 18 18" fill="none" xmlns="http://www.w3.org/2000/svg">
<path d="M1.97513 16.735C1.55213 16.7211 1.22813 16.4654 1.18538 16.0446C1.15125 15.7146 1.125 15.2245 1.125 14.5C1.125 13.7755 1.152 11.285 1.185 10.9554C1.22813 10.5346 1.55213 10.2789 1.97513 10.2646C2.22525 10.2564 2.56012 10.25 3 10.25C3.43988 10.25 3.77475 10.2564 4.02487 10.265C4.44788 10.2789 4.77187 10.5346 4.81462 10.9554C4.84837 11.2854 4.875 13.7755 4.875 14.5C4.875 15.2245 4.848 15.715 4.815 16.0446C4.77188 16.4654 4.44788 16.7211 4.02487 16.7354C3.77437 16.7436 3.43988 16.75 3 16.75C2.56012 16.75 2.22525 16.7436 1.97513 16.735Z" fill="currentColor" fill-opacity="0.4"/>
<path d="M7.2225 15.8564C7.25775 16.3435 7.59637 16.6953 8.08387 16.7253C8.32012 16.7399 8.62125 16.75 9 16.75C9.37913 16.75 9.67988 16.7399 9.91613 16.7253C10.4036 16.6956 10.7423 16.3435 10.7775 15.8564C10.8255 15.196 10.875 14.0001 10.875 11.875C10.875 9.74988 10.8255 3.554 10.7775 2.89362C10.7423 2.4065 10.4036 2.05475 9.91613 2.02475C9.67988 2.01012 9.37875 2 9 2C8.62125 2 8.32012 2.01012 8.08387 2.02475C7.59637 2.05438 7.25775 2.4065 7.2225 2.89362C7.1745 3.554 7.125 9.74988 7.125 11.875C7.125 14.0001 7.1745 15.196 7.2225 15.8564Z" fill="currentColor"/>
<path d="M12.9526 15.9221C12.9924 16.3946 13.3385 16.7115 13.8125 16.7321C14.1248 16.7448 14.4374 16.7508 14.75 16.7501C15.1407 16.7501 15.4482 16.7426 15.6879 16.7321C16.1615 16.7115 16.5076 16.3946 16.5474 15.9221C16.5882 15.4353 16.625 14.6448 16.625 13.3751C16.625 12.1053 16.5882 7.31483 16.5474 6.82808C16.5076 6.35558 16.1615 6.03871 15.6875 6.01808C15.4483 6.00758 15.1407 6.00008 14.75 6.00008C14.4373 5.99922 14.1246 6.00522 13.8121 6.01808C13.3385 6.03871 12.9924 6.35558 12.9526 6.82808C12.9118 7.31483 12.875 12.1053 12.875 13.3751C12.875 14.6448 12.9118 15.4353 12.9526 15.9221Z" fill="currentColor" fill-opacity="0.7"/>
</svg>
