<svg width="18" height="18" viewBox="0 0 18 18" fill="none" xmlns="http://www.w3.org/2000/svg">
    <path d="M9.91895 3.25C12.3845 3.25 14.4309 4.99896 14.9453 7.32422C14.4187 7.14377 13.8596 7.03338 13.2783 7.00684C12.7189 5.67632 11.4206 4.75 9.91895 4.75C8.19795 4.75019 6.74352 5.96561 6.36328 7.61523C6.29505 7.91101 6.05525 8.13658 5.75586 8.18652C4.62636 8.37446 3.75002 9.37508 3.75 10.5957C3.75 12.0184 4.89332 13.25 6.14551 13.25H7.00586C7.02717 13.7698 7.11437 14.2725 7.25977 14.75H6.14551C3.92365 14.75 2.25 12.6982 2.25 10.5957C2.25002 8.81724 3.4167 7.30614 5.03027 6.81934C5.71028 4.75163 7.63524 3.25018 9.91895 3.25Z" fill="currentColor"/>
    <path d="M9.66502 15.171C9.29466 14.9858 9.14414 14.5356 9.32908 14.1652C9.51426 13.7948 9.96453 13.6443 10.3349 13.8292L13 15.1622L15.665 13.8292C16.0354 13.6443 16.4857 13.7948 16.6709 14.1652C16.8558 14.5356 16.7053 14.9858 16.3349 15.171L13.3349 16.671C13.124 16.7763 12.8759 16.7763 12.665 16.671L9.66502 15.171Z" fill="currentColor"/>
    <path d="M12.25 10C12.25 9.58579 12.5858 9.25 13 9.25C13.4142 9.25 13.75 9.58579 13.75 10L13.75 15.25C13.75 15.6642 13.4142 16 13 16C12.5858 16 12.25 15.6642 12.25 15.25L12.25 10Z" fill="currentColor"/>
</svg>
