<svg width="18" height="18" viewBox="0 0 18 18" fill="none" xmlns="http://www.w3.org/2000/svg">
    <path d="M4.66504 8.6709C4.29468 8.48572 4.14416 8.03545 4.3291 7.66504C4.51428 7.29469 4.96455 7.14416 5.33496 7.3291L9 9.16211L12.665 7.3291C13.0354 7.14416 13.4857 7.29469 13.6709 7.66504C13.8558 8.03545 13.7053 8.48572 13.335 8.6709L9.33496 10.6709C9.12403 10.7762 8.87597 10.7762 8.66504 10.6709L4.66504 8.6709Z" fill="currentColor"/>
    <path d="M8.25 3C8.25 2.58579 8.58578 2.25 9 2.25C9.41421 2.25 9.75 2.58579 9.75 3V9C9.75 9.41421 9.41421 9.75 9 9.75C8.58579 9.75 8.25 9.41421 8.25 9L8.25 3Z" fill="currentColor"/>
    <path d="M3.99999 14.25L13.5 14.25C14.1903 14.25 14.75 13.6904 14.75 13V11.5C14.75 11.0858 15.0858 10.75 15.5 10.75C15.9142 10.75 16.25 11.0858 16.25 11.5V13C16.25 14.5188 15.0188 15.75 13.5 15.75L3.99999 15.75C2.48121 15.75 1.24999 14.5188 1.24999 13L1.24999 11.5C1.24999 11.0858 1.58578 10.75 1.99999 10.75C2.4142 10.75 2.74999 11.0858 2.74999 11.5L2.74999 13C2.74999 13.6904 3.30963 14.25 3.99999 14.25Z" fill="currentColor"/>
</svg>
