<svg width="18" height="18" viewBox="0 0 18 18" fill="none" xmlns="http://www.w3.org/2000/svg">
    <path d="M14.4957 3.18201L15.5564 2.12135L16.2635 2.82846L15.2028 3.88912L14.4957 3.18201ZM12.3744 3.18201L5.95034 9.60605C5.25646 10.3 4.76379 11.1696 4.52577 12.1217L3.9471 14.4377L6.26315 13.859C7.21523 13.621 8.08478 13.1284 8.77877 12.4345L15.2028 6.01044C15.7886 5.42465 15.7886 4.4749 15.2028 3.88912L16.2635 2.82846L16.3698 2.94032C17.3996 4.08001 17.3996 5.81954 16.3698 6.95923L16.2635 7.0711L9.83943 13.4951C8.9532 14.3812 7.84288 15.01 6.62706 15.314L3.31319 16.142C3.01232 16.2171 2.69417 16.1292 2.47488 15.9099C2.2556 15.6906 2.16773 15.3725 2.24286 15.0716L3.07081 11.7578C3.37477 10.5419 4.00357 9.43161 4.88968 8.54539L11.3137 2.12135L11.4256 2.01501C12.5653 0.985232 14.3048 0.985232 15.4445 2.01501L15.5564 2.12135L14.4957 3.18201C13.9099 2.59622 12.9602 2.59622 12.3744 3.18201Z" fill="currentColor"/>
    <path d="M4.46966 10.5304C4.17677 10.2375 4.17677 9.7626 4.46966 9.46971C4.76255 9.17682 5.23743 9.17682 5.53032 9.46971L9.06585 13.0052C9.35875 13.2981 9.35875 13.773 9.06585 14.0659C8.77296 14.3588 8.29809 14.3588 8.00519 14.0659L4.46966 10.5304Z" fill="currentColor"/>
</svg>
