<svg width="18" height="18" viewBox="0 0 18 18" fill="none" xmlns="http://www.w3.org/2000/svg">
    <path d="M14.75 8C14.75 8.41421 14.4142 8.75 14 8.75C13.5858 8.75 13.25 8.41421 13.25 8V4.75L10 4.75C9.58579 4.75 9.25 4.41421 9.25 4C9.25 3.58579 9.58579 3.25 10 3.25L14 3.25C14.4142 3.25 14.75 3.58579 14.75 4V8Z" fill="currentColor"/>
    <path d="M3.25 10C3.25 9.58579 3.58579 9.25 4 9.25C4.41421 9.25 4.75 9.58579 4.75 10V13.25H8C8.41421 13.25 8.75 13.5858 8.75 14C8.75 14.4142 8.41421 14.75 8 14.75H4C3.58579 14.75 3.25 14.4142 3.25 14V10Z" fill="currentColor"/>
</svg>
