<svg width="18" height="18" viewBox="0 0 18 18" fill="none" xmlns="http://www.w3.org/2000/svg">
    <path d="M5 16C3.34315 16 2 14.6569 2 13C2 11.3431 3.34315 10 5 10C6.65685 10 8 11.3431 8 13C8 14.6569 6.65685 16 5 16Z" fill="currentColor" fill-opacity="0.3"/>
    <path d="M5 8C3.34315 8 2 6.65685 2 5C2 3.34315 3.34315 2 5 2C6.65685 2 8 3.34315 8 5C8 6.65685 6.65685 8 5 8Z" fill="currentColor" fill-opacity="0.3"/>
    <path d="M16 13C16 14.6569 14.6569 16 13 16C11.3431 16 10 14.6569 10 13C10 11.3431 11.3431 10 13 10C14.6569 10 16 11.3431 16 13Z" fill="currentColor" fill-opacity="0.3"/>
    <path d="M13 3V7M11 5H15" stroke="currentColor" stroke-width="1.5" stroke-linecap="round"/>
</svg>
