<svg width="18" height="18" viewBox="0 0 18 18" fill="none" xmlns="http://www.w3.org/2000/svg">
<path d="M14 13.25C14.4142 13.25 14.75 13.5858 14.75 14V15.7861L15.665 15.3291C16.0354 15.1442 16.4857 15.2948 16.6709 15.665C16.8558 16.0354 16.7053 16.4857 16.335 16.6709L14.335 17.6709C14.124 17.7762 13.876 17.7762 13.665 17.6709L11.665 16.6709C11.2947 16.4857 11.1442 16.0354 11.3291 15.665C11.5143 15.2948 11.9646 15.1442 12.335 15.3291L13.25 15.7861V14C13.25 13.5858 13.5858 13.25 14 13.25Z" fill="currentColor"/>
<path fill-rule="evenodd" clip-rule="evenodd" d="M14 1.25C15.5188 1.25 16.75 2.48122 16.75 4V10C16.75 10.9665 15.9665 11.75 15 11.75H11.5C10.8096 11.75 10.25 12.3096 10.25 13V15.5C10.25 16.1904 9.69036 16.75 9 16.75H4C2.48122 16.75 1.25 15.5188 1.25 14V4C1.25 2.48122 2.48122 1.25 4 1.25H14ZM4 2.75C3.30964 2.75 2.75 3.30964 2.75 4V14C2.75 14.6904 3.30964 15.25 4 15.25H8.75V13C8.75 11.4812 9.98122 10.25 11.5 10.25H15C15.1381 10.25 15.25 10.1381 15.25 10V4C15.25 3.30964 14.6904 2.75 14 2.75H4Z" fill="currentColor"/>
</svg>
