<svg width="18" height="18" viewBox="0 0 18 18" fill="none" xmlns="http://www.w3.org/2000/svg">
<path d="M16.75 13.0001C16.7499 14.5188 15.5187 15.7501 14 15.7501L4.5 15.7501C2.98126 15.7501 1.75007 14.5188 1.75 13.0001L1.75 11.5001C1.75 11.0859 2.08579 10.7501 2.5 10.7501C2.91421 10.7501 3.25 11.0859 3.25 11.5001L3.25 13.0001C3.25007 13.6904 3.80969 14.2501 4.5 14.2501L14 14.2501C14.6903 14.2501 15.2499 13.6904 15.25 13.0001L15.25 11.5001C15.25 11.0859 15.5858 10.7501 16 10.7501C16.4142 10.7501 16.75 11.0859 16.75 11.5001L16.75 13.0001ZM13.335 4.32922C13.7053 4.51442 13.8558 4.96469 13.6709 5.33508C13.4857 5.70534 13.0354 5.8559 12.665 5.67102L9.75 4.21301L9.75 10.0001C9.74993 10.4143 9.41417 10.7501 9 10.7501C8.58583 10.7501 8.25007 10.4143 8.25 10.0001L8.25 4.21301L5.33496 5.67102C4.9646 5.8559 4.5143 5.70534 4.3291 5.33508C4.14417 4.96469 4.29472 4.51442 4.66504 4.32922L8.66504 2.32922C8.87597 2.22391 9.12403 2.22391 9.33496 2.32922L13.335 4.32922Z" fill="currentColor"/>
</svg>
