<svg width="32" height="32" viewBox="8 8 16 16" fill="none" xmlns="http://www.w3.org/2000/svg">
<path fill-rule="evenodd" clip-rule="evenodd" d="M15.7179 13.2451C16.4252 12.5385 17.5014 12.4302 18.3244 12.916L16.8556 14.3848C16.6465 14.5944 16.6463 14.9341 16.8556 15.1436C17.0653 15.3529 17.4059 15.353 17.6154 15.1436L19.0842 13.6748C19.5697 14.4979 19.4601 15.5751 18.7531 16.2822C18.1389 16.896 17.2461 17.058 16.4826 16.7725L12.6242 20.6299C12.7831 21.2232 12.6326 21.882 12.1672 22.3477C11.4729 23.0419 10.3478 23.0419 9.65349 22.3477C8.95926 21.6534 8.95924 20.5282 9.65349 19.834C10.1178 19.3698 10.7743 19.2173 11.3664 19.374L15.2258 15.5156C14.9407 14.7522 15.1041 13.859 15.7179 13.2451ZM11.5383 20.4629C11.1911 20.1158 10.6285 20.1158 10.2814 20.4629C9.93461 20.81 9.93443 21.3727 10.2814 21.7197C10.6285 22.0667 11.1911 22.0665 11.5383 21.7197C11.8853 21.3726 11.8853 20.81 11.5383 20.4629ZM19.6867 9.33691C21.3468 9.42151 22.6671 10.7945 22.6672 12.4756V17.2998C22.6672 19.0355 21.2593 20.4433 19.5236 20.4434H18.0002C17.6321 20.4432 17.3342 20.1445 17.3342 19.7764C17.3345 19.4086 17.6323 19.1105 18.0002 19.1104H19.5236C20.5229 19.1103 21.3342 18.2991 21.3342 17.2998V12.4756C21.334 11.5391 20.6221 10.7679 19.7101 10.6748L19.5236 10.666L14.6994 10.666C13.7001 10.666 12.8899 11.4763 12.8898 12.4756V14.4434C12.8898 14.8115 12.5909 15.1102 12.2228 15.1104C11.8546 15.1104 11.5558 14.8115 11.5558 14.4434V12.4756C11.556 10.7399 12.9637 9.33203 14.6994 9.33203L19.5236 9.33203L19.6867 9.33691Z" fill="currentColor"/>
</svg>
