<svg width="18" height="18" viewBox="0 0 18 18" fill="currentColor" xmlns="http://www.w3.org/2000/svg">
    <path d="M3.75 6.78616L3.75 12.2139C3.75 13.2678 4.55084 14.1348 5.57715 14.2393L5.78613 14.25H11.2139C12.3382 14.25 13.25 13.3382 13.25 12.2139V10C13.25 9.58581 13.5858 9.25003 14 9.25003C14.4142 9.25003 14.75 9.58581 14.75 10V12.2139C14.75 14.1666 13.1666 15.75 11.2139 15.75H5.78613L5.60352 15.7451C3.73547 15.6503 2.25 14.1055 2.25 12.2139L2.25 6.78616C2.25 4.83344 3.83341 3.25003 5.78613 3.25003L7.5 3.25003C7.91421 3.25003 8.25 3.58581 8.25 4.00003C8.25 4.41424 7.91421 4.75003 7.5 4.75003L5.78613 4.75003C4.66184 4.75003 3.75 5.66186 3.75 6.78616Z" fill="currentColor"/>
    <path d="M15.7503 6.00031C15.7503 6.41444 15.4145 6.75009 15.0004 6.75023C14.5862 6.75023 14.2505 6.41453 14.2505 6.00031L14.2512 3.63523L11.8771 3.24025C11.4685 3.17217 11.1917 2.78566 11.2598 2.37708C11.3279 1.96853 11.7151 1.69236 12.1236 1.76043L15.1233 2.26038C15.485 2.32064 15.7503 2.63399 15.7503 3.00063V6.00031Z" fill="currentColor"/>
    <path d="M10.3703 8.25795C10.0688 8.54204 9.5944 8.52829 9.3103 8.22688C9.02627 7.92551 9.04013 7.45102 9.34137 7.16691L14.3415 2.45402C14.643 2.1701 15.1182 2.1844 15.4022 2.48578C15.6861 2.78723 15.6718 3.2624 15.3704 3.54644L10.3703 8.25795Z" fill="currentColor"/>
</svg>
