<svg width="18" height="18" viewBox="0 0 18 18" fill="none" xmlns="http://www.w3.org/2000/svg">
    <path d="M8.75 7C8.75 7.13807 8.86193 7.25 9 7.25H13C13.1381 7.25 13.25 7.13807 13.25 7V4.83301C13.2498 4.69509 13.138 4.58301 13 4.58301L10.9775 4.58301C10.522 4.58301 10.0845 4.40544 9.75781 4.08789L9.48242 3.82031C9.43586 3.77519 9.37344 3.75008 9.30859 3.75H9C8.86193 3.75 8.75 3.86193 8.75 4L8.75 7ZM7.25 4C7.25 3.0335 8.0335 2.25 9 2.25H9.30859C9.76408 2.25008 10.2017 2.4276 10.5283 2.74512L10.8027 3.01269C10.8494 3.05806 10.9125 3.08301 10.9775 3.08301L13 3.08301C13.9664 3.08301 14.7498 3.86666 14.75 4.83301V7C14.75 7.9665 13.9665 8.75 13 8.75H9C8.0335 8.75 7.25 7.9665 7.25 7L7.25 4Z" fill="currentColor"/>
    <path d="M8.75 15C8.75 15.1381 8.86193 15.25 9 15.25H13C13.1381 15.25 13.25 15.1381 13.25 15V12.833C13.2498 12.6951 13.138 12.583 13 12.583H10.9775C10.522 12.583 10.0845 12.4054 9.75781 12.0879L9.48242 11.8203C9.43586 11.7752 9.37344 11.7501 9.30859 11.75H9C8.86193 11.75 8.75 11.8619 8.75 12V15ZM7.25 12C7.25 11.0335 8.0335 10.25 9 10.25H9.30859C9.76408 10.2501 10.2017 10.4276 10.5283 10.7451L10.8027 11.0127C10.8494 11.0581 10.9125 11.083 10.9775 11.083H13C13.9664 11.083 14.7498 11.8667 14.75 12.833V15C14.75 15.9665 13.9665 16.75 13 16.75H9C8.0335 16.75 7.25 15.9665 7.25 15V12Z" fill="currentColor"/>
    <path d="M2.25 13V1.5C2.25 1.08579 2.58579 0.75 3 0.75C3.41421 0.75 3.75 1.08579 3.75 1.5V13C3.75 13.1381 3.86193 13.25 4 13.25H8C8.41421 13.25 8.75 13.5858 8.75 14C8.75 14.4142 8.41421 14.75 8 14.75H4C3.0335 14.75 2.25 13.9665 2.25 13Z" fill="currentColor"/>
    <path d="M8 5.25C8.41421 5.25 8.75 5.58579 8.75 6C8.75 6.41421 8.41421 6.75 8 6.75H3C2.58579 6.75 2.25 6.41421 2.25 6C2.25 5.58579 2.58579 5.25 3 5.25H8Z" fill="currentColor"/>
</svg>
