<svg width="12" height="12" viewBox="0 0 12 12" fill="none" xmlns="http://www.w3.org/2000/svg">
    <path d="M9.70801 4.57227L9.70801 9.33301C9.70801 9.9082 9.24214 10.3748 8.66699 10.375H3.66699C3.0917 10.375 2.625 9.9083 2.625 9.33301L2.625 2.66699C2.625 2.0917 3.0917 1.625 3.66699 1.625L7.78809 1.625C7.85985 1.625 7.92676 1.66184 7.96484 1.72266L9.67676 4.46191C9.69742 4.495 9.708 4.53326 9.70801 4.57227ZM10.958 4.57227C10.958 4.29902 10.8811 4.03153 10.7363 3.7998L9.02441 1.06055C8.75791 0.634203 8.29087 0.375 7.78809 0.375L3.66699 0.375C2.40134 0.375 1.375 1.40134 1.375 2.66699L1.375 9.33301C1.375 10.5987 2.40134 11.625 3.66699 11.625H8.66699C9.9325 11.6248 10.958 10.5986 10.958 9.33301L10.958 4.57227Z" fill="currentColor"/>
    <path d="M4.49967 4.125C4.15465 4.12482 3.87467 3.84507 3.87467 3.5C3.87467 3.15493 4.15465 2.87518 4.49967 2.875H4.91667C5.26184 2.875 5.54167 3.15482 5.54167 3.5C5.54167 3.84518 5.26184 4.125 4.91667 4.125H4.49967Z" fill="currentColor"/>
    <path d="M4.5 9.125C4.15482 9.125 3.875 8.84518 3.875 8.5C3.875 8.15482 4.15482 7.875 4.5 7.875L7 7.875C7.34518 7.875 7.625 8.15482 7.625 8.5C7.625 8.84518 7.34518 9.125 7 9.125H4.5Z" fill="currentColor"/>
    <path d="M4.5 6.625C4.15482 6.625 3.875 6.34518 3.875 6C3.875 5.65482 4.15482 5.375 4.5 5.375L7 5.375C7.34518 5.375 7.625 5.65482 7.625 6C7.625 6.34518 7.34518 6.625 7 6.625L4.5 6.625Z" fill="currentColor"/>
</svg>
