<svg width="18" height="18" viewBox="0 0 18 18" fill="none" xmlns="http://www.w3.org/2000/svg">
<path d="M7.8457 2.25C8.89717 2.25 9.75 3.10283 9.75 4.1543C9.75024 4.37713 9.93141 4.55762 10.1543 4.55762H14.6543C15.8118 4.55786 16.75 5.49677 16.75 6.6543V7.25H17C17.2174 7.25 17.424 7.34454 17.5664 7.50879C17.7088 7.67304 17.7729 7.89122 17.7422 8.10645L17.667 8.62695C17.6666 8.62983 17.6674 8.63287 17.667 8.63574L16.9873 13.3887C16.9752 13.4735 16.9589 13.5568 16.9395 13.6387C16.6669 14.7836 15.6914 15.6304 14.5195 15.7383C14.4358 15.746 14.3511 15.75 14.2656 15.75H4C2.48122 15.75 1.25 14.5188 1.25 13V5C1.25 3.48122 2.48122 2.25 4 2.25H7.8457ZM3.44922 12.6562C3.22108 13.4547 3.82094 14.2499 4.65137 14.25H14.2656C14.8876 14.2499 15.415 13.7925 15.5029 13.1768L16.1338 8.75H4.56543L3.44922 12.6562ZM4 3.75C3.30964 3.75 2.75 4.30964 2.75 5V9.64453L3.2793 7.79395C3.37133 7.47204 3.66518 7.25 4 7.25H15.25V6.6543C15.25 6.3252 14.9833 6.05786 14.6543 6.05762H10.1543C9.10298 6.05762 8.25024 5.20556 8.25 4.1543C8.25 3.93126 8.06874 3.75 7.8457 3.75H4Z" fill="currentColor"/>
</svg>
