<svg width="18" height="18" viewBox="0 0 18 18" fill="none" xmlns="http://www.w3.org/2000/svg">
    <path fill-rule="evenodd" clip-rule="evenodd" d="M7.8457 2.25C8.89717 2.25 9.75 3.10283 9.75 4.1543C9.75024 4.37713 9.93141 4.55762 10.1543 4.55762H14.6543C15.8118 4.55786 16.75 5.49677 16.75 6.6543V7.25H17C17.2174 7.25 17.424 7.34454 17.5664 7.50879C17.7088 7.67304 17.7729 7.89122 17.7422 8.10645L17.667 8.62695C17.6666 8.62983 17.6674 8.63287 17.667 8.63574L17.4717 10H15.9561L16.1338 8.75H4.56543L3.44922 12.6562C3.22108 13.4547 3.82094 14.2499 4.65137 14.25H10V15C10 15.2564 10.0252 15.507 10.0713 15.75H4C2.48122 15.75 1.25 14.5188 1.25 13V5C1.25 3.48122 2.48122 2.25 4 2.25H7.8457ZM4 3.75C3.30964 3.75 2.75 4.30964 2.75 5V9.64453L3.2793 7.79395C3.37133 7.47204 3.66518 7.25 4 7.25H15.25V6.6543C15.25 6.3252 14.9833 6.05786 14.6543 6.05762H10.1543C9.10298 6.05762 8.25024 5.20556 8.25 4.1543C8.25 3.93126 8.06874 3.75 7.8457 3.75H4Z" fill="currentColor"/>
    <path d="M15.665 11.3291C16.0354 11.1442 16.4857 11.2947 16.6709 11.665L17.6709 13.665C17.7762 13.876 17.7762 14.124 17.6709 14.335L16.6709 16.335C16.4857 16.7053 16.0354 16.8558 15.665 16.6709C15.2947 16.4857 15.1442 16.0354 15.3291 15.665L15.7861 14.75H12C11.5858 14.75 11.25 14.4142 11.25 14C11.25 13.5858 11.5858 13.25 12 13.25H15.7861L15.3291 12.335C15.1442 11.9646 15.2947 11.5143 15.665 11.3291Z" fill="currentColor"/>
</svg>
