<svg width="18" height="18" viewBox="0 0 18 18" fill="none" xmlns="http://www.w3.org/2000/svg">
    <path d="M14.25 10.7129V5C14.25 4.30964 13.6904 3.75 13 3.75H5C4.30964 3.75 3.75 4.30964 3.75 5V13C3.75 13.6904 4.30964 14.25 5 14.25H11.9453C12.0315 14.25 12.1125 14.2059 12.1582 14.1328L14.2119 10.8457C14.2367 10.806 14.25 10.7597 14.25 10.7129ZM15.75 10.7129C15.75 11.0408 15.6581 11.3625 15.4844 11.6406L13.4297 14.9277C13.1099 15.4393 12.5486 15.75 11.9453 15.75H5C3.48122 15.75 2.25 14.5188 2.25 13V5C2.25 3.48122 3.48122 2.25 5 2.25H13C14.5188 2.25 15.75 3.48122 15.75 5V10.7129Z" fill="currentColor"/>
    <path d="M9 6.25C9.41421 6.25 9.75 6.58579 9.75 7C9.75 7.41421 9.41421 7.75 9 7.75H6C5.58579 7.75 5.25 7.41421 5.25 7C5.25 6.58579 5.58579 6.25 6 6.25H9Z" fill="currentColor"/>
    <path d="M9 9.25C9.41421 9.25 9.75 9.58579 9.75 10C9.75 10.4142 9.41421 10.75 9 10.75H6C5.58579 10.75 5.25 10.4142 5.25 10C5.25 9.58579 5.58579 9.25 6 9.25H9Z" fill="currentColor"/>
    <path d="M14.5503 8.40039C14.8816 8.15188 15.3515 8.21851 15.6001 8.54981C15.8486 8.88118 15.7811 9.35108 15.4497 9.59961L11.8267 12.3174C11.7633 12.365 11.7468 12.4196 11.7476 12.4531C11.7621 13.0648 11.8505 14.0252 12.1704 14.665C12.3555 15.0355 12.2059 15.4857 11.8354 15.6709C11.465 15.8561 11.0148 15.7054 10.8296 15.335C10.3489 14.3734 10.2635 13.1184 10.2485 12.4883C10.2352 11.9254 10.5134 11.4275 10.9272 11.1172L14.5503 8.40039Z" fill="currentColor"/>
</svg>
