<svg width="18" height="18" viewBox="0 0 18 18" fill="none" xmlns="http://www.w3.org/2000/svg">
<path d="M8.99955 0.644531C9.39506 0.644584 9.71537 0.964825 9.71537 1.36035C9.71501 1.75557 9.39484 2.07612 8.99955 2.07617C7.63035 2.07625 6.29132 2.4815 5.15287 3.24219C4.82829 3.45908 4.52484 3.70289 4.24369 3.96875C4.20141 4.00868 4.159 4.04879 4.11771 4.08984L4.11576 4.0918C3.4706 4.73402 2.95481 5.50053 2.60307 6.34961C2.07918 7.61447 1.94255 9.00684 2.20951 10.3496C2.47667 11.6925 3.13586 12.9273 4.10404 13.8955C5.06873 14.8601 6.2971 15.5191 7.63432 15.7881C7.79953 15.8213 7.96597 15.8472 8.13236 15.8682C8.13487 15.8685 8.13768 15.8697 8.14018 15.8701C9.20843 16.0036 10.2941 15.8851 11.3101 15.5254C11.3701 15.5042 11.4303 15.4819 11.4898 15.459C11.5428 15.4386 11.5964 15.4182 11.649 15.3965C12.7503 14.9403 13.7132 14.2084 14.4458 13.2754L14.5992 13.0713C14.6489 13.0026 14.6982 12.9328 14.7456 12.8623C14.8405 12.7212 14.9304 12.5766 15.0142 12.4297C15.21 12.0862 15.6472 11.9656 15.9908 12.1611C16.3343 12.357 16.455 12.7951 16.2593 13.1387C16.1647 13.3047 16.063 13.4682 15.9566 13.6279C15.9537 13.6326 15.9508 13.638 15.9478 13.6426C15.8886 13.7312 15.8276 13.8192 15.7652 13.9053C15.7382 13.9426 15.7088 13.9788 15.6812 14.0156C14.904 15.0505 13.8979 15.8917 12.7417 16.4707C12.7399 16.4716 12.7377 16.4727 12.7359 16.4736C12.6793 16.5019 12.6212 16.5286 12.564 16.5557C12.5322 16.5707 12.5003 16.5869 12.4683 16.6016C12.372 16.6456 12.2744 16.6882 12.1763 16.7285C12.1328 16.7464 12.0883 16.7631 12.0445 16.7803C10.7449 17.2888 9.34064 17.464 7.96049 17.291C7.95829 17.2907 7.95585 17.2903 7.95365 17.29C7.89097 17.2821 7.82774 17.273 7.76518 17.2637C7.73176 17.2587 7.69797 17.2544 7.66459 17.249C7.62354 17.2424 7.58253 17.2338 7.54154 17.2266C7.48432 17.2164 7.42675 17.2067 7.36967 17.1953C5.74892 16.8729 4.25987 16.0757 3.09135 14.9072C1.92305 13.7387 1.12663 12.2495 0.804238 10.6289C0.589169 9.54708 0.59279 8.43853 0.806191 7.36719C0.807294 7.36031 0.806759 7.35257 0.808144 7.3457L0.87455 7.0459C0.878388 7.03007 0.884296 7.01386 0.888222 6.99805C0.898748 6.95541 0.910225 6.91261 0.921425 6.87012C0.932263 6.82938 0.941356 6.78753 0.952675 6.74707C0.953538 6.74446 0.95581 6.74189 0.956582 6.73926C1.04575 6.42196 1.15282 6.10842 1.27982 5.80176C1.62355 4.97201 2.09821 4.20842 2.67924 3.53613C2.68246 3.53218 2.68468 3.52632 2.68803 3.52246C2.69841 3.5105 2.7098 3.49921 2.72025 3.4873C2.74744 3.45634 2.77562 3.42608 2.80326 3.39551C2.84414 3.35026 2.88537 3.30515 2.92728 3.26074C2.94797 3.23885 2.96886 3.21698 2.98978 3.19531C3.02884 3.15483 3.06703 3.11296 3.10697 3.07324C3.25257 2.92847 3.40403 2.7893 3.55912 2.65625C3.56197 2.65384 3.56602 2.65277 3.56889 2.65039C3.81892 2.4365 4.08147 2.23587 4.35697 2.05176C5.10335 1.55304 5.9217 1.18246 6.77787 0.946289C6.78319 0.944698 6.78812 0.940975 6.7935 0.939453C6.81216 0.934345 6.83142 0.930747 6.85014 0.925781C6.88418 0.916719 6.91851 0.908045 6.95268 0.899414C7.00946 0.885111 7.06642 0.87054 7.12357 0.857422C7.16923 0.846904 7.21543 0.837873 7.26127 0.828125C7.3049 0.81887 7.34833 0.807425 7.39213 0.798828C7.41269 0.794799 7.43405 0.791962 7.45463 0.788086C7.47275 0.784677 7.49117 0.781607 7.50932 0.77832C7.59309 0.76305 7.67724 0.749054 7.76127 0.736328C7.77225 0.734683 7.78348 0.733047 7.79447 0.731445C7.86276 0.721391 7.93114 0.710403 7.99955 0.702148C8.00518 0.701471 8.0115 0.702632 8.01713 0.702148C8.34195 0.663695 8.67018 0.644547 8.99955 0.644531ZM11.2134 6.53027C11.4721 6.20702 11.9447 6.15475 12.2681 6.41309C12.5915 6.67183 12.644 7.14433 12.3853 7.46777L9.46439 11.1182C9.03622 11.6534 8.23812 11.6976 7.75346 11.2129L6.46928 9.92969C6.17675 9.63683 6.17668 9.16195 6.46928 8.86914C6.76207 8.57636 7.23691 8.57656 7.52982 8.86914L8.53764 9.87598L11.2134 6.53027ZM16.5689 7.74512C16.9634 7.71712 17.3055 8.01372 17.3335 8.4082C17.348 8.61214 17.3556 8.81801 17.355 9.02344C17.3544 9.22861 17.3462 9.43409 17.3306 9.6377C17.2999 10.0316 16.9561 10.327 16.5621 10.2969C16.2174 10.2702 15.9476 10.003 15.9058 9.67285L15.9029 9.52832C15.9093 9.44409 15.9142 9.35901 15.9175 9.27441L15.9224 9.01953C15.9226 8.93445 15.9224 8.84848 15.9195 8.76367L15.9058 8.50977C15.8778 8.11549 16.1748 7.77356 16.5689 7.74512ZM14.5962 3.75C14.9086 3.50791 15.3586 3.56489 15.6011 3.87695C15.6638 3.95769 15.7249 4.04086 15.7847 4.12402L15.9595 4.37695C16.0163 4.46254 16.072 4.54932 16.1255 4.63672L16.2818 4.90137C16.4752 5.24567 16.3531 5.68176 16.0093 5.87598C15.7079 6.04535 15.3349 5.97398 15.1167 5.72266L15.0328 5.60352C14.9913 5.52991 14.9481 5.45697 14.9038 5.38477L14.7671 5.16992C14.673 5.02819 14.5731 4.88964 14.4693 4.75586C14.2271 4.44353 14.2843 3.99254 14.5962 3.75ZM11.5015 1.04102L11.6421 1.07324C11.7391 1.10559 11.8362 1.13981 11.9322 1.17578L12.2183 1.28906C12.313 1.32861 12.4076 1.36921 12.5005 1.41211L12.7769 1.5459C13.1295 1.72463 13.2707 2.15606 13.0923 2.50879C12.9356 2.81711 12.5853 2.96404 12.2642 2.87598L12.1294 2.82422C12.0538 2.78589 11.9771 2.74849 11.8999 2.71289L11.6665 2.61035C11.5097 2.54488 11.3504 2.48614 11.19 2.43262C10.8152 2.30755 10.6124 1.90128 10.7369 1.52637C10.8463 1.19804 11.1708 1.00116 11.5015 1.04102Z" fill="currentColor"/>
</svg>
