<svg width="18" height="18" viewBox="0 0 18 18" fill="none" xmlns="http://www.w3.org/2000/svg">
    <path d="M8.6709 13.3349C8.48572 13.7053 8.03545 13.8558 7.66504 13.6709C7.29469 13.4857 7.14416 13.0354 7.3291 12.665L9.16211 8.99999L7.32911 5.33495C7.14416 4.96454 7.29469 4.51427 7.66504 4.32909C8.03545 4.14415 8.48573 4.29467 8.6709 4.66503L10.6709 8.66503C10.7762 8.87596 10.7762 9.12402 10.6709 9.33495L8.6709 13.3349Z" fill="currentColor"/>
    <path d="M3 9.74999C2.58579 9.74999 2.25 9.4142 2.25 8.99999C2.25 8.58577 2.58579 8.24999 3 8.24999L9 8.24999C9.41422 8.24999 9.75 8.58578 9.75 8.99999C9.75 9.4142 9.41422 9.74999 9 9.74999L3 9.74999Z" fill="currentColor"/>
    <path d="M14.25 14V4.5C14.25 3.80964 13.6904 3.25 13 3.25H11.5C11.0858 3.25 10.75 2.91421 10.75 2.5C10.75 2.08579 11.0858 1.75 11.5 1.75H13C14.5188 1.75 15.75 2.98122 15.75 4.5V14C15.75 15.5188 14.5188 16.75 13 16.75H11.5C11.0858 16.75 10.75 16.4142 10.75 16C10.75 15.5858 11.0858 15.25 11.5 15.25H13C13.6904 15.25 14.25 14.6904 14.25 14Z" fill="currentColor"/>
</svg>
