<svg width="16" height="18" viewBox="0 0 16 18" fill="none" xmlns="http://www.w3.org/2000/svg">
<path d="M15.8084 8.53694L8.69001 1.41852L8 0.728516L2.64154 6.08698L0.191577 8.53694C0.0689041 8.65976 0 8.82626 0 8.99985C0 9.17345 0.0689041 9.33994 0.191577 9.46277L5.08713 14.3583L8 17.2712L13.3585 11.9127L13.4414 11.8298L15.8084 9.46277C15.9311 9.33994 16 9.17345 16 8.99985C16 8.82626 15.9311 8.65976 15.8084 8.53694ZM8 11.4454L5.55441 8.99985L8 6.55426L10.4456 8.99985L8 11.4454Z" fill="#F8F8F8"/>
<path d="M8 6.55463C7.23083 5.78537 6.79727 4.74302 6.79399 3.65518C6.79072 2.56735 7.218 1.52241 7.98253 0.748535L2.63062 6.09827L5.54349 9.01114L8 6.55463Z" fill="url(#paint0_linear_162_26562)"/>
<path d="M10.4521 8.99268L7.99994 11.4448C8.38261 11.8273 8.68617 12.2814 8.89328 12.7812C9.1004 13.281 9.207 13.8167 9.207 14.3577C9.207 14.8987 9.1004 15.4344 8.89328 15.9342C8.68617 16.434 8.38261 16.8881 7.99994 17.2706L13.365 11.9055L10.4521 8.99268Z" fill="url(#paint1_linear_162_26562)"/>
<defs>
<linearGradient id="paint0_linear_162_26562" x1="7.56328" y1="4.08065" x2="4.14819" y2="7.49575" gradientUnits="userSpaceOnUse">
<stop offset="0.18" stop-color="white"/>
<stop offset="1" stop-color="#C7C7C7"/>
</linearGradient>
<linearGradient id="paint1_linear_162_26562" x1="8.46722" y1="13.8904" x2="11.8758" y2="10.4819" gradientUnits="userSpaceOnUse">
<stop offset="0.18" stop-color="#C7C7C7"/>
<stop offset="1" stop-color="white"/>
</linearGradient>
</defs>
</svg>
