<svg width="18" height="18" viewBox="0 0 18 18" fill="none" xmlns="http://www.w3.org/2000/svg">
<path d="M12.375 2.8457C13.6915 2.8457 14.9849 3.19232 16.125 3.85059C16.357 3.98456 16.5 4.23208 16.5 4.5V14.25C16.5 14.5179 16.357 14.7654 16.125 14.8994C15.8929 15.0334 15.6071 15.0334 15.375 14.8994C14.4629 14.3728 13.4282 14.0957 12.375 14.0957C11.3218 14.0957 10.2871 14.3728 9.375 14.8994C9.14295 15.0334 8.85705 15.0334 8.625 14.8994C7.7129 14.3728 6.6782 14.0957 5.625 14.0957C4.5718 14.0957 3.5371 14.3728 2.625 14.8994C2.39295 15.0334 2.10705 15.0334 1.875 14.8994C1.64298 14.7654 1.5 14.5179 1.5 14.25V4.5C1.50001 4.23208 1.64298 3.98456 1.875 3.85059C3.01514 3.19232 4.30848 2.8457 5.625 2.8457C6.79926 2.8457 7.95489 3.12176 9 3.64844C10.0451 3.12176 11.2007 2.8457 12.375 2.8457ZM5.625 4.3457C4.71353 4.3457 3.81627 4.55397 3 4.95117V13.0703C3.83654 12.7577 4.72531 12.5957 5.625 12.5957C6.52469 12.5957 7.41346 12.7577 8.25 13.0703V4.95117C7.43373 4.55397 6.53647 4.3457 5.625 4.3457ZM12.375 4.3457C11.4635 4.3457 10.5663 4.55397 9.75 4.95117V13.0703C10.5865 12.7577 11.4753 12.5957 12.375 12.5957C13.2747 12.5957 14.1635 12.7577 15 13.0703V4.95117C14.1837 4.55397 13.2865 4.3457 12.375 4.3457Z" fill="currentColor"/>
</svg>
