<svg width="18" height="18" viewBox="0 0 18 18" fill="none" xmlns="http://www.w3.org/2000/svg">
<path fill-rule="evenodd" clip-rule="evenodd" d="M8.88097 3.2818C9.38034 2.64009 10.4053 3.09891 10.2599 3.89899L9.69249 7.02106H13.3038C13.8634 7.02114 14.194 7.64814 13.878 8.10993L8.99425 15.2476C8.54332 15.9062 7.51117 15.5392 7.57726 14.7437L7.87999 11.1138H4.21202C3.63325 11.1136 3.30704 10.4478 3.66222 9.99079L8.88097 3.2818Z" fill="currentColor" fill-opacity="0.4"/>
<path fill-rule="evenodd" clip-rule="evenodd" d="M8.90711 1.95209C9.51708 1.16839 10.7691 1.72885 10.5917 2.706L9.8993 6.51947H14.3104C14.9937 6.5197 15.3973 7.28553 15.0116 7.84955L9.04579 16.5683C8.49504 17.3733 7.23432 16.9251 7.31532 15.9531L7.68446 11.5195H3.20399C2.4969 11.5192 2.09893 10.7057 2.53309 10.1474L8.90711 1.95209ZM4.53309 10.0195H8.39149C8.8885 10.0197 9.27931 10.445 9.23817 10.9404L8.98231 14.0048L13.079 8.01947H9.12C8.58973 8.01947 8.18833 7.53922 8.28309 7.01752L8.71473 4.64252L4.53309 10.0195Z" fill="currentColor"/>
</svg>
