<svg width="18" height="18" viewBox="0 0 18 18" fill="none" xmlns="http://www.w3.org/2000/svg">
    <path d="M13.6709 13.335C13.4857 13.7053 13.0354 13.8558 12.665 13.6709C12.2947 13.4857 12.1442 13.0354 12.3291 12.665L14.1621 9L12.3291 5.33496C12.1442 4.96455 12.2947 4.51428 12.665 4.3291C13.0354 4.14416 13.4857 4.29469 13.6709 4.66504L15.6709 8.66504C15.7762 8.87597 15.7762 9.12403 15.6709 9.33496L13.6709 13.335Z" fill="currentColor"/>
    <path d="M8 9.75C7.58579 9.75 7.25 9.41421 7.25 9C7.25 8.58579 7.58579 8.25 8 8.25L14 8.25C14.4142 8.25 14.75 8.58579 14.75 9C14.75 9.41422 14.4142 9.75 14 9.75H8Z" fill="currentColor"/>
    <path d="M3.75 14V4.5C3.75 3.80964 4.30964 3.25 5 3.25H8.5C8.91421 3.25 9.25 2.91421 9.25 2.5C9.25 2.08579 8.91421 1.75 8.5 1.75H5C3.48122 1.75 2.25 2.98122 2.25 4.5V14C2.25 15.5188 3.48122 16.75 5 16.75H8.5C8.91421 16.75 9.25 16.4142 9.25 16C9.25 15.5858 8.91421 15.25 8.5 15.25H5C4.30964 15.25 3.75 14.6904 3.75 14Z" fill="currentColor"/>
</svg>
