<svg width="32" height="32" viewBox="8 8 16 16" fill="none" xmlns="http://www.w3.org/2000/svg">
<g clip-path="url(#clip0_mcp_toolkit)">
<path d="M15.3162 8.76459C16.4058 7.72887 18.1288 7.74532 19.198 8.81439L19.2478 8.86615C19.8561 9.506 20.0978 10.3636 19.9802 11.1796C20.7961 11.0622 21.654 11.3049 22.2937 11.913L22.3445 11.9628L22.3777 11.996L22.4275 12.0468C23.447 13.1192 23.447 14.8055 22.4275 15.8779L22.3777 15.9296L16.6863 21.621C16.6139 21.6934 16.6139 21.8113 16.6863 21.8837L17.8543 23.0517C18.0715 23.2689 18.0715 23.6216 17.8543 23.8388C17.6371 24.0559 17.2853 24.0559 17.0681 23.8388L15.8992 22.6699C15.4003 22.1709 15.3924 21.3668 15.8758 20.8583L21.5906 15.1425L21.6209 15.1113C22.2423 14.4575 22.2321 13.4237 21.5906 12.7822L21.5584 12.7499L21.5271 12.7197C20.8733 12.0984 19.8395 12.1085 19.198 12.7499L14.5105 17.4374L14.49 17.457L14.4861 17.4589L14.4451 17.5009L14.4246 17.5204C14.2063 17.7176 13.8694 17.7112 13.659 17.5009C13.4417 17.2837 13.4417 16.9311 13.659 16.7138L18.4119 11.9609L18.4412 11.9306C19.0626 11.2769 19.0531 10.243 18.4119 9.6015C17.7705 8.96011 16.7366 8.94999 16.0828 9.57123L16.0515 9.6015L9.75759 15.8945L9.73708 15.914C9.51873 16.1113 9.1819 16.1049 8.97146 15.8945C8.7543 15.6773 8.75431 15.3256 8.97146 15.1083L15.2644 8.81439L15.3162 8.76459ZM16.8592 10.3701C17.0775 10.1728 17.4143 10.1791 17.6248 10.3896C17.8419 10.6068 17.8418 10.9585 17.6248 11.1757L12.9705 15.831C12.3189 16.4827 12.3188 17.5386 12.9705 18.1904C13.6222 18.842 14.6781 18.842 15.3299 18.1904L19.9851 13.5361C20.2023 13.3191 20.5541 13.3191 20.7713 13.5361C20.9884 13.7533 20.9885 14.1059 20.7713 14.3232L16.117 18.9775C15.0478 20.0466 13.3248 20.063 12.2351 19.0273L12.1834 18.9775C11.0973 17.8913 11.0973 16.13 12.1834 15.0439L16.8377 10.3896L16.8592 10.3701Z" fill="currentColor"/>
</g>
<defs>
<clipPath id="clip0_mcp_toolkit">
<rect width="16" height="16" fill="white" transform="translate(8 8)"/>
</clipPath>
</defs>
</svg>
