<svg width="18" height="19" viewBox="0 0 18 19" fill="none" xmlns="http://www.w3.org/2000/svg">
<path d="M8.50759 2.2646C9.59719 1.22887 11.3202 1.24532 12.3894 2.3144L12.4392 2.36616C13.0475 3.00601 13.2893 3.86355 13.1717 4.67963C13.9876 4.56222 14.8454 4.80495 15.4851 5.41303L15.5359 5.46284L15.5691 5.49604L15.6189 5.54682C16.6384 6.61919 16.6384 8.30552 15.6189 9.37788L15.5691 9.42963L9.87771 15.121C9.80533 15.1934 9.80532 15.3113 9.87771 15.3837L11.0457 16.5517C11.2629 16.7689 11.2629 17.1216 11.0457 17.3388C10.8285 17.5559 10.4767 17.5559 10.2595 17.3388L9.0906 16.1699C8.59168 15.6709 8.58377 14.8668 9.06716 14.3583L9.0906 14.3349L14.782 8.64252L14.8123 8.61127C15.4337 7.9575 15.4235 6.92367 14.782 6.28217L14.7498 6.24995L14.7185 6.21967C14.0647 5.59835 13.0309 5.60847 12.3894 6.24995L7.70193 10.9374L7.68142 10.957C7.68038 10.9579 7.67857 10.958 7.67752 10.9589L7.6365 11.0009L7.61599 11.0205C7.39769 11.2177 7.06083 11.2112 6.85037 11.0009C6.63313 10.7837 6.63313 10.4311 6.85037 10.2138L11.6033 5.46088L11.6326 5.43061C12.254 4.77693 12.2445 3.74305 11.6033 3.10151C10.9619 2.46011 9.92801 2.44999 9.2742 3.07124L9.24295 3.10151L2.949 9.39448L2.92849 9.41401C2.71013 9.61128 2.37331 9.6049 2.16287 9.39448C1.94571 9.17726 1.94572 8.82557 2.16287 8.60835L8.45584 2.3144L8.50759 2.2646ZM10.0506 3.87006C10.2689 3.67277 10.6057 3.67915 10.8162 3.8896C11.0333 4.10678 11.0332 4.45851 10.8162 4.67573L6.16189 9.331C5.5103 9.98267 5.51025 11.0386 6.16189 11.6904C6.81359 12.342 7.86955 12.342 8.52127 11.6904L13.1765 7.03608C13.3937 6.81908 13.7455 6.81906 13.9627 7.03608C14.1799 7.25331 14.1799 7.60595 13.9627 7.82319L9.30837 12.4775C8.23917 13.5466 6.51618 13.563 5.42654 12.5273L5.37478 12.4775C4.2887 11.3913 4.28866 9.63005 5.37478 8.54389L10.0291 3.8896L10.0506 3.87006Z" fill="currentColor"/>
</svg>
