<svg width="18" height="18" viewBox="0 0 18 18" fill="none" xmlns="http://www.w3.org/2000/svg">
    <path d="M16 5.25C16.4142 5.25 16.75 5.58579 16.75 6C16.75 6.41421 16.4142 6.75 16 6.75H14C13.5858 6.75 13.25 6.41421 13.25 6C13.25 5.58579 13.5858 5.25 14 5.25H16Z" fill="currentColor"/>
    <path d="M16 11.25C16.4142 11.25 16.75 11.5858 16.75 12C16.75 12.4142 16.4142 12.75 16 12.75H14C13.5858 12.75 13.25 12.4142 13.25 12C13.25 11.5858 13.5858 11.25 14 11.25H16Z" fill="currentColor"/>
    <path d="M16 8.25C16.4142 8.25 16.75 8.58579 16.75 9C16.75 9.41421 16.4142 9.75 16 9.75H14C13.5858 9.75 13.25 9.41421 13.25 9C13.25 8.58579 13.5858 8.25 14 8.25H16Z" fill="currentColor"/>
    <path d="M4 5.25C4.41421 5.25 4.75 5.58579 4.75 6C4.75 6.41421 4.41421 6.75 4 6.75H2C1.58579 6.75 1.25 6.41421 1.25 6C1.25 5.58579 1.58579 5.25 2 5.25H4Z" fill="currentColor"/>
    <path d="M4 11.25C4.41421 11.25 4.75 11.5858 4.75 12C4.75 12.4142 4.41421 12.75 4 12.75H2C1.58579 12.75 1.25 12.4142 1.25 12C1.25 11.5858 1.58579 11.25 2 11.25H4Z" fill="currentColor"/>
    <path d="M4 8.25C4.41421 8.25 4.75 8.58579 4.75 9C4.75 9.41421 4.41421 9.75 4 9.75H2C1.58579 9.75 1.25 9.41421 1.25 9C1.25 8.58579 1.58579 8.25 2 8.25H4Z" fill="currentColor"/>
    <path d="M12.75 4C12.75 4.41421 12.4142 4.75 12 4.75C11.5858 4.75 11.25 4.41421 11.25 4L11.25 2C11.25 1.58579 11.5858 1.25 12 1.25C12.4142 1.25 12.75 1.58579 12.75 2L12.75 4Z" fill="currentColor"/>
    <path d="M6.75 4C6.75 4.41421 6.41421 4.75 6 4.75C5.58579 4.75 5.25 4.41421 5.25 4L5.25 2C5.25 1.58579 5.58579 1.25 6 1.25C6.41421 1.25 6.75 1.58579 6.75 2L6.75 4Z" fill="currentColor"/>
    <path d="M9.75 4C9.75 4.41421 9.41421 4.75 9 4.75C8.58579 4.75 8.25 4.41421 8.25 4V2C8.25 1.58579 8.58579 1.25 9 1.25C9.41421 1.25 9.75 1.58579 9.75 2L9.75 4Z" fill="currentColor"/>
    <path d="M12.75 16C12.75 16.4142 12.4142 16.75 12 16.75C11.5858 16.75 11.25 16.4142 11.25 16V14C11.25 13.5858 11.5858 13.25 12 13.25C12.4142 13.25 12.75 13.5858 12.75 14V16Z" fill="currentColor"/>
    <path d="M6.75 16C6.75 16.4142 6.41421 16.75 6 16.75C5.58579 16.75 5.25 16.4142 5.25 16L5.25 14C5.25 13.5858 5.58579 13.25 6 13.25C6.41421 13.25 6.75 13.5858 6.75 14V16Z" fill="currentColor"/>
    <path d="M9.75 16C9.75 16.4142 9.41421 16.75 9 16.75C8.58579 16.75 8.25 16.4142 8.25 16L8.25 14C8.25 13.5858 8.58579 13.25 9 13.25C9.41421 13.25 9.75 13.5858 9.75 14V16Z" fill="currentColor"/>
    <path d="M13.25 6C13.25 5.30964 12.6904 4.75 12 4.75L6 4.75C5.30964 4.75 4.75 5.30964 4.75 6L4.75 12C4.75 12.6904 5.30964 13.25 6 13.25H12C12.6904 13.25 13.25 12.6904 13.25 12V6ZM14.75 12C14.75 13.5188 13.5188 14.75 12 14.75H6C4.48122 14.75 3.25 13.5188 3.25 12V6C3.25 4.48122 4.48122 3.25 6 3.25H12C13.5188 3.25 14.75 4.48122 14.75 6V12Z" fill="currentColor"/>
    <path d="M10.25 8C10.25 7.86193 10.1381 7.75 10 7.75H8C7.86193 7.75 7.75 7.86193 7.75 8V10C7.75 10.1381 7.86193 10.25 8 10.25H10C10.1381 10.25 10.25 10.1381 10.25 10V8ZM11.75 10C11.75 10.9665 10.9665 11.75 10 11.75H8C7.0335 11.75 6.25 10.9665 6.25 10V8C6.25 7.0335 7.0335 6.25 8 6.25H10C10.9665 6.25 11.75 7.0335 11.75 8V10Z" fill="currentColor"/>
</svg>
