<svg width="18" height="18" viewBox="0 0 18 18" fill="none" xmlns="http://www.w3.org/2000/svg">
    <path d="M10.5 4.25C10.5 4.94036 9.94036 5.5 9.25 5.5C8.55964 5.5 8 4.94036 8 4.25C8 3.55964 8.55964 3 9.25 3C9.94036 3 10.5 3.55964 10.5 4.25Z" fill="currentColor"/>
    <path d="M10.5 9.25C10.5 9.94036 9.94036 10.5 9.25 10.5C8.55964 10.5 8 9.94036 8 9.25C8 8.55964 8.55964 8 9.25 8C9.94036 8 10.5 8.55964 10.5 9.25Z" fill="currentColor"/>
    <path d="M10.5 14.25C10.5 14.9404 9.94036 15.5 9.25 15.5C8.55964 15.5 8 14.9404 8 14.25C8 13.5596 8.55964 13 9.25 13C9.94036 13 10.5 13.5596 10.5 14.25Z" fill="currentColor"/>
</svg>
