<svg width="32" height="32" viewBox="0 0 32 32" fill="none" xmlns="http://www.w3.org/2000/svg">
<path d="M8 0.5H24C28.1421 0.5 31.5 3.85786 31.5 8V24C31.5 28.1421 28.1421 31.5 24 31.5H8C3.85786 31.5 0.5 28.1421 0.5 24V8C0.5 3.85786 3.85786 0.5 8 0.5Z" fill="#F5A534"/>
<path d="M20.25 14.2871L20.25 20C20.25 20.6904 19.6904 21.25 19 21.25L13 21.25C12.3096 21.25 11.75 20.6904 11.75 20L11.75 12C11.75 11.3096 12.3096 10.75 13 10.75L17.9453 10.75C18.0315 10.75 18.1125 10.7941 18.1582 10.8672L20.2119 14.1543C20.2367 14.194 20.25 14.2403 20.25 14.2871ZM21.75 14.2871C21.75 13.9592 21.6581 13.6375 21.4844 13.3594L19.4297 10.0723C19.1099 9.56071 18.5486 9.25 17.9453 9.25L13 9.25C11.4812 9.25 10.25 10.4812 10.25 12L10.25 20C10.25 21.5188 11.4812 22.75 13 22.75L19 22.75C20.5188 22.75 21.75 21.5188 21.75 20L21.75 14.2871Z" fill="white"/>
<path d="M14 13.75C13.5858 13.75 13.25 13.4142 13.25 13C13.25 12.5858 13.5858 12.25 14 12.25L14.5 12.25C14.9142 12.25 15.25 12.5858 15.25 13C15.25 13.4142 14.9142 13.75 14.5 13.75L14 13.75Z" fill="white"/>
<path d="M14 19.75C13.5858 19.75 13.25 19.4142 13.25 19C13.25 18.5858 13.5858 18.25 14 18.25L17 18.25C17.4142 18.25 17.75 18.5858 17.75 19C17.75 19.4142 17.4142 19.75 17 19.75L14 19.75Z" fill="white"/>
<path d="M14 16.75C13.5858 16.75 13.25 16.4142 13.25 16C13.25 15.5858 13.5858 15.25 14 15.25L17 15.25C17.4142 15.25 17.75 15.5858 17.75 16C17.75 16.4142 17.4142 16.75 17 16.75L14 16.75Z" fill="white"/>
<path d="M17.2793 9.79397C17.3932 9.39577 17.8079 9.16554 18.2061 9.27932C18.6043 9.39317 18.8345 9.80784 18.7207 10.2061L18.0049 12.7119C17.9662 12.8477 18.0477 12.9891 18.1846 13.0235L21.1817 13.7725C21.5834 13.8729 21.8279 14.2799 21.7276 14.6817C21.6271 15.0834 21.2202 15.3279 20.8184 15.2276L17.8213 14.4785C16.8615 14.2386 16.2908 13.2511 16.5625 12.2998L17.2793 9.79397Z" fill="white"/>
</svg>
