<svg width="32" height="32" viewBox="0 0 32 32" fill="none" xmlns="http://www.w3.org/2000/svg">
<path d="M8 0.5H24C28.1421 0.5 31.5 3.85786 31.5 8V24C31.5 28.1421 28.1421 31.5 24 31.5H8C3.85786 31.5 0.5 28.1421 0.5 24V8C0.5 3.85786 3.85786 0.5 8 0.5Z" fill="#06B6D4"/>
<path d="M18.1901 9.56775C19.1783 8.57963 20.6833 8.42782 21.8336 9.10681L19.7809 11.1586C19.4882 11.4513 19.4885 11.9262 19.7809 12.2191C20.0738 12.512 20.5495 12.512 20.8424 12.2191L22.8942 10.1674C23.5731 11.3176 23.4213 12.8226 22.4332 13.8109C21.5097 14.7343 20.1352 14.9263 19.0201 14.3939L16.5602 16.8529L17.9 18.1927C18.2907 17.8037 18.924 17.8047 19.3141 18.1947L22.1422 21.0238C22.5326 21.4143 22.5327 22.0474 22.1422 22.4379L21.4352 23.1449C21.0447 23.5354 20.4117 23.5353 20.0211 23.1449L17.192 20.3168C16.8017 19.9264 16.8019 19.2933 17.192 18.9027L17.193 18.8998L15.8531 17.5599L12.2731 21.141C12.4505 21.8077 12.2804 22.5477 11.7574 23.0707C10.9765 23.8517 9.71038 23.8515 8.92932 23.0707C8.14827 22.2896 8.14827 21.0236 8.92932 20.2426C9.45262 19.7193 10.1929 19.548 10.86 19.726L14.4391 16.1459L11.528 13.2347C11.0993 13.5633 10.474 13.4942 10.1324 13.0551L8.62463 11.1156C8.46994 10.9166 8.48739 10.6337 8.66565 10.4554L9.45569 9.66541C9.63396 9.48721 9.91684 9.4697 10.1158 9.62439L12.0553 11.1332C12.4944 11.4747 12.5634 12.0991 12.235 12.5277L15.1461 15.4388L17.6061 12.9799C17.0743 11.865 17.2669 10.491 18.1901 9.56775ZM11.0406 20.9408C10.6495 20.5594 10.0238 20.5622 9.63635 20.9496C9.24583 21.3401 9.24583 21.9731 9.63635 22.3636C10.0269 22.754 10.66 22.7541 11.0504 22.3636C11.438 21.976 11.4403 21.3495 11.0582 20.9584L11.0406 20.9408Z" fill="white"/>
</svg>
