<svg width="18" height="18" viewBox="0 0 18 18" fill="none" xmlns="http://www.w3.org/2000/svg">
<path fill-rule="evenodd" clip-rule="evenodd" d="M8 2.25C11.1756 2.25 13.75 4.82436 13.75 8C13.75 9.31734 13.3047 10.5295 12.5596 11.499L16.0303 14.9697C16.3231 15.2626 16.3232 15.7374 16.0303 16.0303C15.7374 16.3231 15.2626 16.3231 14.9697 16.0303L11.499 12.5596C10.5295 13.3047 9.31734 13.75 8 13.75C4.82436 13.75 2.25 11.1756 2.25 8C2.25 4.82436 4.82436 2.25 8 2.25ZM8 3.75C5.65279 3.75 3.75 5.65279 3.75 8C3.75 10.3472 5.65279 12.25 8 12.25C10.3472 12.25 12.25 10.3472 12.25 8C12.25 5.65279 10.3472 3.75 8 3.75Z" fill="currentColor"/>
<path d="M8 5.5L8 10.5" stroke="currentColor" stroke-width="1.5" stroke-linecap="round"/>
<path d="M10.5049 7.995L5.50488 7.99499" stroke="currentColor" stroke-width="1.5" stroke-linecap="round"/>
</svg>
