<svg width="18" height="18" viewBox="0 0 18 18" fill="none" xmlns="http://www.w3.org/2000/svg">
<path d="M15.25 8C15.25 7.30964 14.6904 6.75 14 6.75H6C5.30964 6.75 4.75 7.30964 4.75 8V14C4.75 14.6904 5.30964 15.25 6 15.25H14C14.6904 15.25 15.25 14.6904 15.25 14V8ZM16.75 14C16.75 15.5188 15.5188 16.75 14 16.75H6C4.48122 16.75 3.25 15.5188 3.25 14V8C3.25 6.48122 4.48122 5.25 6 5.25H14C15.5188 5.25 16.75 6.48122 16.75 8V14Z" fill="currentColor"/>
<path d="M5.25 6V4C5.25 3.30964 4.69036 2.75 4 2.75C3.30964 2.75 2.75 3.30964 2.75 4V6C2.75 6.41421 2.41421 6.75 2 6.75C1.58579 6.75 1.25 6.41421 1.25 6V4C1.25 2.48122 2.48122 1.25 4 1.25C5.51878 1.25 6.75 2.48122 6.75 4V6C6.75 6.41421 6.41421 6.75 6 6.75C5.58579 6.75 5.25 6.41421 5.25 6Z" fill="currentColor"/>
<path d="M12 11C12 12.1046 11.1046 13 10 13C8.89543 13 8 12.1046 8 11C8 9.89543 8.89543 9 10 9C11.1046 9 12 9.89543 12 11Z" fill="currentColor"/>
</svg>
