<svg width="32" height="32" viewBox="0 0 32 32" fill="none" xmlns="http://www.w3.org/2000/svg">
<path d="M8 0.5H24C28.1421 0.5 31.5 3.85786 31.5 8V24C31.5 28.1421 28.1421 31.5 24 31.5H8C3.85786 31.5 0.5 28.1421 0.5 24V8C0.5 3.85786 3.85786 0.5 8 0.5Z" fill="#F5A534"/>
<path d="M8 0.5H24C28.1421 0.5 31.5 3.85786 31.5 8V24C31.5 28.1421 28.1421 31.5 24 31.5H8C3.85786 31.5 0.5 28.1421 0.5 24V8C0.5 3.85786 3.85786 0.5 8 0.5Z" stroke="#333436"/>
<path d="M22 15.25C22.4142 15.25 22.75 15.5858 22.75 16C22.75 19.7279 19.7279 22.75 16 22.75C13.8972 22.75 12.0213 21.7866 10.7842 20.2812L10.126 21.2793C9.89769 21.6246 9.43243 21.7192 9.0869 21.4912C8.74153 21.2629 8.64586 20.7977 8.87401 20.4521L10.1064 18.5869C10.2364 18.3903 10.4513 18.2663 10.6865 18.252L12.9189 18.1172C13.332 18.0925 13.6877 18.4073 13.7129 18.8203C13.7377 19.2335 13.4228 19.589 13.0098 19.6143L12.2392 19.6602C13.1936 20.6407 14.5252 21.25 16 21.25C18.8995 21.25 21.25 18.8995 21.25 16C21.25 15.5858 21.5858 15.25 22 15.25Z" fill="white"/>
<path d="M16 9.25C18.2223 9.25 20.1918 10.3256 21.4209 11.9805L21.8291 11.165C22.0143 10.7947 22.4645 10.6442 22.8349 10.8291C23.2053 11.0143 23.3558 11.4646 23.1709 11.835L22.1709 13.835C22.0645 14.0476 21.8631 14.1973 21.6289 14.2383L19.1289 14.6758C18.7209 14.7469 18.332 14.4734 18.2607 14.0654C18.1896 13.6576 18.4633 13.2696 18.8711 13.1982L20.2744 12.9521C19.3213 11.6179 17.762 10.75 16 10.75C13.1005 10.75 10.75 13.1005 10.75 16C10.75 16.4142 10.4142 16.75 9.99999 16.75C9.58577 16.75 9.24999 16.4142 9.24999 16C9.24999 12.2721 12.2721 9.25 16 9.25Z" fill="white"/>
</svg>
