<svg width="32" height="32" viewBox="0 0 32 32" fill="none" xmlns="http://www.w3.org/2000/svg">
<path d="M8 0.5H24C28.1421 0.5 31.5 3.85786 31.5 8V24C31.5 28.1421 28.1421 31.5 24 31.5H8C3.85786 31.5 0.5 28.1421 0.5 24V8C0.5 3.85786 3.85786 0.5 8 0.5Z" fill="#F0524F"/>
<path d="M11.4141 13.5312C11.6729 13.2078 12.1453 13.1553 12.4688 13.414C12.7922 13.6728 12.8447 14.1453 12.586 14.4687L10.961 16.5L12.586 18.5312C12.8447 18.8547 12.7922 19.3272 12.4688 19.5859C12.1453 19.8447 11.6729 19.7922 11.4141 19.4687L9.4141 16.9687C9.19497 16.6948 9.19497 16.3051 9.4141 16.0312L11.4141 13.5312Z" fill="white"/>
<path d="M20.586 19.4687C20.3272 19.7922 19.8547 19.8447 19.5313 19.5859C19.2078 19.3272 19.1553 18.8547 19.4141 18.5312L21.0391 16.5L19.4141 14.4687C19.1553 14.1453 19.2078 13.6728 19.5313 13.414C19.8547 13.1553 20.3272 13.2078 20.586 13.5312L22.586 16.0312C22.8051 16.3051 22.8051 16.6948 22.586 16.9687L20.586 19.4687Z" fill="white"/>
<path d="M17.2832 9.27928C17.4051 8.88347 17.8249 8.66139 18.2207 8.78319C18.6166 8.90505 18.8386 9.32483 18.7168 9.72069L14.7168 22.7207C14.595 23.1165 14.1752 23.3386 13.7793 23.2168C13.3835 23.0949 13.1614 22.6751 13.2832 22.2793L17.2832 9.27928Z" fill="white"/>
</svg>
