<svg width="32" height="32" viewBox="0 0 32 32" fill="none" xmlns="http://www.w3.org/2000/svg">
<path d="M8 0.5H24C28.1421 0.5 31.5 3.85786 31.5 8V24C31.5 28.1421 28.1421 31.5 24 31.5H8C3.85786 31.5 0.5 28.1421 0.5 24V8C0.5 3.85786 3.85786 0.5 8 0.5Z" fill="#2297F6"/>
<path d="M8 0.5H24C28.1421 0.5 31.5 3.85786 31.5 8V24C31.5 28.1421 28.1421 31.5 24 31.5H8C3.85786 31.5 0.5 28.1421 0.5 24V8C0.5 3.85786 3.85786 0.5 8 0.5Z" stroke="#333436"/>
<path d="M22.5 16C22.5 12.4101 19.5899 9.5 16 9.5C12.4101 9.5 9.5 12.4101 9.5 16C9.5 19.5899 12.4101 22.5 16 22.5V24C11.5817 24 8 20.4183 8 16C8 11.5817 11.5817 8 16 8C20.4183 8 24 11.5817 24 16C24 20.4183 20.4183 24 16 24V22.5C19.5899 22.5 22.5 19.5899 22.5 16Z" fill="white"/>
<path d="M18.2512 15.2794C18.66 15.6728 18.66 16.3272 18.2512 16.7206L16.1934 18.7007C15.5581 19.312 14.5 18.8618 14.5 17.9801V14.0199C14.5 13.1382 15.5581 12.688 16.1934 13.2993L18.2512 15.2794Z" fill="white"/>
</svg>
