<svg width="32" height="32" viewBox="0 0 32 32" fill="none" xmlns="http://www.w3.org/2000/svg">
<path d="M0 8C0 3.58172 3.58172 0 8 0H24C28.4183 0 32 3.58172 32 8V24C32 28.4183 28.4183 32 24 32H8C3.58172 32 0 28.4183 0 24V8Z" fill="url(#paint0_linear_7531_9372)"/>
<path d="M10 15C10 13.8954 10.8954 13 12 13H20C21.1046 13 22 13.8954 22 15V20C22 21.1046 21.1046 22 20 22H12C10.8954 22 10 21.1046 10 20V15Z" fill="white" fill-opacity="0.4"/>
<path d="M14 16C14.5523 16 15 16.4477 15 17C15 17.5523 14.5523 18 14 18C13.4477 18 13 17.5523 13 17C13 16.4477 13.4477 16 14 16Z" fill="white"/>
<path d="M18 16C18.5523 16 19 16.4477 19 17C19 17.5523 18.5523 18 18 18C17.4477 18 17 17.5523 17 17C17 16.4477 17.4477 16 18 16Z" fill="white"/>
<path fill-rule="evenodd" clip-rule="evenodd" d="M16 8C16.8284 8 17.5 8.67157 17.5 9.5C17.5 10.0549 17.198 10.5384 16.75 10.7979V12C16.75 12.088 16.732 12.1715 16.7041 12.25H20C21.5188 12.25 22.75 13.4812 22.75 15V15.0322C22.83 15.0116 22.9136 15 23 15C23.5523 15 24 15.4477 24 16V19L23.9951 19.1025C23.9438 19.6067 23.5177 20 23 20C22.9135 20 22.83 19.9874 22.75 19.9668V20C22.75 21.5188 21.5188 22.75 20 22.75H12C10.4812 22.75 9.25 21.5188 9.25 20V19.9668C9.16996 19.9874 9.08647 20 9 20C8.48232 20 8.05621 19.6067 8.00488 19.1025L8 19V16C8 15.4477 8.44772 15 9 15C9.08639 15 9.17004 15.0116 9.25 15.0322V15C9.25 13.4812 10.4812 12.25 12 12.25H15.2959C15.268 12.1715 15.25 12.088 15.25 12V10.7979C14.802 10.5384 14.5 10.0549 14.5 9.5C14.5 8.67157 15.1716 8 16 8ZM12 13.75C11.3096 13.75 10.75 14.3096 10.75 15V20C10.75 20.6904 11.3096 21.25 12 21.25H20C20.6904 21.25 21.25 20.6904 21.25 20V15C21.25 14.3096 20.6904 13.75 20 13.75H12Z" fill="white"/>
<defs>
<linearGradient id="paint0_linear_7531_9372" x1="9.46455e-08" y1="21.1429" x2="33.1349" y2="22.0781" gradientUnits="userSpaceOnUse">
<stop stop-color="#672C92"/>
<stop offset="1" stop-color="#547CCC"/>
</linearGradient>
</defs>
</svg>
