<svg width="32" height="32" viewBox="0 0 32 32" fill="none" xmlns="http://www.w3.org/2000/svg">
<path d="M8 0.5H24C28.1421 0.5 31.5 3.85786 31.5 8V24C31.5 28.1421 28.1421 31.5 24 31.5H8C3.85786 31.5 0.5 28.1421 0.5 24V8C0.5 3.85786 3.85786 0.5 8 0.5Z" fill="#8F2EC8"/>
<path d="M8 0.5H24C28.1421 0.5 31.5 3.85786 31.5 8V24C31.5 28.1421 28.1421 31.5 24 31.5H8C3.85786 31.5 0.5 28.1421 0.5 24V8C0.5 3.85786 3.85786 0.5 8 0.5Z" stroke="#333436"/>
<rect x="5.75" y="5.75" width="8.5" height="8.5" rx="2.25" stroke="white" stroke-width="1.5"/>
<rect x="17.75" y="17.75" width="8.5" height="8.5" rx="4.25" stroke="white" stroke-width="1.5" stroke-linecap="square"/>
<path d="M17.5 7.25C17.0858 7.25 16.75 7.58579 16.75 8C16.75 8.41421 17.0858 8.75 17.5 8.75V8V7.25ZM17.5 8V8.75H21V8V7.25H17.5V8ZM23 10H22.25V14H23H23.75V10H23ZM21 8V8.75C21.6904 8.75 22.25 9.30964 22.25 10H23H23.75C23.75 8.48122 22.5188 7.25 21 7.25V8Z" fill="white"/>
<path d="M21.1017 12.7616L22.6313 14.2912C22.6796 14.3395 22.7369 14.3778 22.8 14.4039C22.8631 14.43 22.9307 14.4435 22.9989 14.4435C23.0672 14.4435 23.1348 14.43 23.1979 14.4039C23.261 14.3778 23.3183 14.3395 23.3666 14.2912L24.8972 12.7605" stroke="white" stroke-width="1.5" stroke-linecap="round" stroke-linejoin="round"/>
<path d="M14.4961 24.75C14.9103 24.75 15.2461 24.4142 15.2461 24C15.2461 23.5858 14.9103 23.25 14.4961 23.25V24V24.75ZM14.4961 24V23.25H10.9961V24V24.75H14.4961V24ZM8.99609 22H9.74609V18H8.99609H8.24609V22H8.99609ZM10.9961 24V23.25C10.3057 23.25 9.74609 22.6904 9.74609 22H8.99609H8.24609C8.24609 23.5188 9.47731 24.75 10.9961 24.75V24Z" fill="white"/>
<path d="M10.8944 19.2384L9.36477 17.7088C9.3165 17.6605 9.25918 17.6222 9.1961 17.5961C9.13303 17.57 9.06542 17.5565 8.99715 17.5565C8.92887 17.5565 8.86127 17.57 8.79819 17.5961C8.73512 17.6222 8.6778 17.6605 8.62953 17.7088L7.09885 19.2395" stroke="white" stroke-width="1.5" stroke-linecap="round" stroke-linejoin="round"/>
</svg>
