<svg width="32" height="32" viewBox="0 0 32 32" fill="none" xmlns="http://www.w3.org/2000/svg">
<path d="M8 0.5H24C28.1421 0.5 31.5 3.85786 31.5 8V24C31.5 28.1421 28.1421 31.5 24 31.5H8C3.85786 31.5 0.5 28.1421 0.5 24V8C0.5 3.85786 3.85786 0.5 8 0.5Z" fill="#F5A534"/>
<path d="M8 0.5H24C28.1421 0.5 31.5 3.85786 31.5 8V24C31.5 28.1421 28.1421 31.5 24 31.5H8C3.85786 31.5 0.5 28.1421 0.5 24V8C0.5 3.85786 3.85786 0.5 8 0.5Z" stroke="#333436"/>
<path d="M11.043 13.4795H19.8047" stroke="white" stroke-width="1.5"/>
<path d="M11.043 19.4795H19.8047" stroke="white" stroke-width="1.5"/>
<path d="M11.043 8.88477L11.043 21.7294C11.043 23.9385 12.8338 25.7294 15.043 25.7294H19.8341" stroke="white" stroke-width="1.5"/>
<circle cx="11.043" cy="6.52051" r="1.75" stroke="white" stroke-width="1.5"/>
<circle cx="20.958" cy="13.4795" r="1.75" stroke="white" stroke-width="1.5"/>
<circle cx="20.958" cy="19.4795" r="1.75" stroke="white" stroke-width="1.5"/>
<circle cx="20.958" cy="25.4795" r="1.75" stroke="white" stroke-width="1.5"/>
</svg>
