<svg width="32" height="32" viewBox="0 0 32 32" fill="none" xmlns="http://www.w3.org/2000/svg">
<path d="M0 8C0 3.58172 3.58172 0 8 0H24C28.4183 0 32 3.58172 32 8V24C32 28.4183 28.4183 32 24 32H8C3.58172 32 0 28.4183 0 24V8Z" fill="#259F4C"/>
<path d="M22.5 16C22.5 12.4101 19.5899 9.5 16 9.5C12.4101 9.5 9.5 12.4101 9.5 16C9.5 19.5899 12.4101 22.5 16 22.5V24C11.5817 24 8 20.4183 8 16C8 11.5817 11.5817 8 16 8C20.4183 8 24 11.5817 24 16C24 20.4183 20.4183 24 16 24V22.5C19.5899 22.5 22.5 19.5899 22.5 16Z" fill="white"/>
<path d="M14 16.4L15.284 17.684C15.4526 17.8526 15.7302 17.8372 15.8792 17.651L18.8 14" stroke="white" stroke-width="1.5" stroke-linecap="round"/>
</svg>
