<svg width="32" height="32" viewBox="0 0 32 32" fill="none" xmlns="http://www.w3.org/2000/svg">
<path d="M8 0.5H24C28.1421 0.5 31.5 3.85786 31.5 8V24C31.5 28.1421 28.1421 31.5 24 31.5H8C3.85786 31.5 0.5 28.1421 0.5 24V8C0.5 3.85786 3.85786 0.5 8 0.5Z" fill="#F5A534"/>
<path d="M8 0.5H24C28.1421 0.5 31.5 3.85786 31.5 8V24C31.5 28.1421 28.1421 31.5 24 31.5H8C3.85786 31.5 0.5 28.1421 0.5 24V8C0.5 3.85786 3.85786 0.5 8 0.5Z" stroke="#333436"/>
<path d="M6.60547 16H10.8246C11.9224 16 12.9326 16.5997 13.4583 17.5634L14.7527 19.9366C15.2784 20.9003 16.2885 21.5 17.3864 21.5H23.1055" stroke="white" stroke-width="1.5" stroke-linecap="round"/>
<path d="M23.1055 10.5H17.8864C16.7885 10.5 15.7784 11.0997 15.2527 12.0634L13.9583 14.4366C13.4326 15.4003 12.4224 16 11.3246 16H6.60547" stroke="white" stroke-width="1.5" stroke-linecap="round"/>
<path d="M22.7295 24.9161C22.4998 25.2608 22.0341 25.3539 21.6895 25.1241C21.3448 24.8944 21.2517 24.4287 21.4815 24.0841L23.2041 21.5001L21.4815 18.9161C21.2517 18.5714 21.3448 18.1058 21.6895 17.876C22.0341 17.6463 22.4998 17.7394 22.7295 18.084L24.7295 21.084C24.8975 21.336 24.8975 21.6642 24.7295 21.9161L22.7295 24.9161Z" fill="white"/>
<path d="M22.7295 13.9161C22.4998 14.2608 22.0341 14.3539 21.6895 14.1241C21.3448 13.8944 21.2517 13.4287 21.4815 13.0841L23.2041 10.5001L21.4815 7.91609C21.2517 7.57144 21.3448 7.10581 21.6895 6.87605C22.0341 6.64628 22.4998 6.73941 22.7295 7.08405L24.7295 10.084C24.8975 10.336 24.8975 10.6642 24.7295 10.9161L22.7295 13.9161Z" fill="white"/>
</svg>
