<svg width="18" height="18" viewBox="0 0 18 18" fill="none" xmlns="http://www.w3.org/2000/svg">
    <path d="M12.25 6C12.25 4.20507 10.7949 2.75 9 2.75C7.20508 2.75 5.75 4.20507 5.75 6V10.2275L5.62403 10.416L4.66016 11.8613C4.54965 12.0274 4.66877 12.2497 4.86817 12.25H13.1318C13.3312 12.2497 13.4504 12.0274 13.3398 11.8613L12.376 10.416L12.25 10.2275V6ZM13.75 9.77246L14.5879 11.0293C15.363 12.1922 14.5293 13.7497 13.1318 13.75H4.86817C3.47073 13.7497 2.63705 12.1922 3.41211 11.0293L4.25 9.77246V6C4.25 3.37665 6.37665 1.25 9 1.25C11.6234 1.25 13.75 3.37665 13.75 6V9.77246Z" fill="currentColor"/>
    <path d="M9 17C8.29693 17 7.67989 16.6369 7.3239 16.0881C7.14605 15.814 7.38384 15.5 7.71062 15.5H10.2894C10.6162 15.5 10.854 15.814 10.6761 16.0881C10.3201 16.6369 9.70307 17 9 17Z" fill="currentColor"/>
</svg>
