<svg width="18" height="18" viewBox="0 0 18 18" fill="none" xmlns="http://www.w3.org/2000/svg">
    <path d="M2.75 13C2.75 14.2426 3.75736 15.25 5 15.25L13 15.25C14.2426 15.25 15.25 14.2426 15.25 13L15.25 5C15.25 3.75736 14.2426 2.75 13 2.75L5 2.75C3.75736 2.75 2.75 3.75736 2.75 5L2.75 13ZM1.25 5C1.25 2.92893 2.92893 1.25 5 1.25L13 1.25C15.0711 1.25 16.75 2.92893 16.75 5L16.75 13C16.75 15.0711 15.0711 16.75 13 16.75L5 16.75C2.92893 16.75 1.25 15.0711 1.25 13L1.25 5Z" fill="currentColor"/>
    <path d="M14.2468 7.29805C14.3777 7.69087 14.1658 8.1157 13.7731 8.24684C13.3803 8.37778 12.9554 8.16583 12.8243 7.77314L12.2359 6.00675L10.4696 5.41842C10.0769 5.28727 9.86492 4.86244 9.99586 4.46962C10.127 4.07693 10.5518 3.86498 10.9447 3.99592L13.066 4.70302C13.2896 4.77771 13.465 4.95311 13.5397 5.17673L14.2468 7.29805Z" fill="currentColor"/>
    <path d="M10.5303 8.77302C10.2374 9.06591 9.76256 9.06591 9.46967 8.77302C9.17678 8.48013 9.17678 8.00525 9.46967 7.71236L11.9445 5.23749C12.2374 4.94459 12.7123 4.94459 13.0052 5.23749C13.2981 5.53038 13.2981 6.00525 13.0052 6.29815L10.5303 8.77302Z" fill="currentColor"/>
</svg>
