<svg width="18" height="18" viewBox="0 0 18 18" fill="none" xmlns="http://www.w3.org/2000/svg">
    <path d="M9.3291 4.66505C9.51428 4.2947 9.96455 4.14417 10.335 4.32911C10.7053 4.51429 10.8558 4.96456 10.6709 5.33497L8.83789 9.00001L10.6709 12.665C10.8558 13.0355 10.7053 13.4857 10.335 13.6709C9.96455 13.8559 9.51428 13.7053 9.3291 13.335L7.3291 9.33497C7.22379 9.12404 7.22379 8.87598 7.3291 8.66505L9.3291 4.66505Z" fill="currentColor"/>
    <path d="M15 8.25001C15.4142 8.25001 15.75 8.5858 15.75 9.00001C15.75 9.41422 15.4142 9.75001 15 9.75001H9C8.58579 9.75001 8.25 9.41422 8.25 9.00001C8.25 8.5858 8.58579 8.25001 9 8.25001H15Z" fill="currentColor"/>
    <path d="M3.75 4L3.75 13.5C3.75 14.1904 4.30964 14.75 5 14.75H6.5C6.91421 14.75 7.25 15.0858 7.25 15.5C7.25 15.9142 6.91421 16.25 6.5 16.25H5C3.48122 16.25 2.25 15.0188 2.25 13.5L2.25 4C2.25 2.48122 3.48122 1.25 5 1.25L6.5 1.25C6.91421 1.25 7.25 1.58579 7.25 2C7.25 2.41421 6.91421 2.75 6.5 2.75L5 2.75C4.30964 2.75 3.75 3.30964 3.75 4Z" fill="currentColor"/>
</svg>
