<svg width="18" height="18" viewBox="0 0 18 18" fill="none" xmlns="http://www.w3.org/2000/svg">
<path d="M10.2383 2.95825C10.9217 2.27489 12.0295 2.27501 12.7129 2.95825L15.542 5.78638C16.2252 6.46981 16.2254 7.57864 15.542 8.26196L14.0059 9.79712C13.7718 10.0314 13.6397 10.3497 13.6396 10.6809V11.8518C13.6395 12.5809 13.3503 13.2816 12.835 13.7971L10.0615 16.5696L6.52539 13.0344L4.93555 14.6252C4.64273 14.9178 4.16685 14.9178 3.87402 14.6252C3.58164 14.3325 3.58168 13.8575 3.87402 13.5647L5.46484 11.9739L1.92969 8.43872L4.70312 5.66528C5.21879 5.14974 5.91828 4.85967 6.64746 4.85962H7.81836C8.14965 4.85962 8.46875 4.7285 8.70312 4.49438L10.2383 2.95825ZM11.6523 4.0188C11.5546 3.92138 11.3964 3.92124 11.2988 4.0188L9.76367 5.55493C9.24799 6.07035 8.54748 6.35962 7.81836 6.35962H6.64746C6.31611 6.35967 5.99803 6.49159 5.76367 6.72583L4.05078 8.43872L10.0615 14.4485L11.7744 12.7366C12.0086 12.5023 12.1405 12.183 12.1406 11.8518V10.6809C12.1407 9.95187 12.43 9.25218 12.9453 8.73657L14.4814 7.20044C14.5786 7.10287 14.5786 6.94444 14.4814 6.84692L11.6523 4.0188Z" fill="currentColor"/>
</svg>
