<svg width="18" height="18" viewBox="0 0 18 18" fill="none" xmlns="http://www.w3.org/2000/svg">
<path d="M10.2383 2.95825C10.9217 2.27489 12.0295 2.27501 12.7129 2.95825L15.542 5.78638C16.2252 6.46981 16.2254 7.57864 15.542 8.26196L14.0059 9.79712C13.7718 10.0314 13.6397 10.3497 13.6396 10.6809V11.8518C13.6395 12.5809 13.3503 13.2816 12.835 13.7971L10.0615 16.5696L6.52539 13.0344L4.93555 14.6252C4.64273 14.9178 4.16685 14.9178 3.87402 14.6252C3.58164 14.3325 3.58168 13.8575 3.87402 13.5647L5.46484 11.9739L1.92969 8.43872L4.70312 5.66528C5.21879 5.14974 5.91828 4.85967 6.64746 4.85962H7.81836C8.14965 4.85962 8.46875 4.7285 8.70312 4.49438L10.2383 2.95825Z" fill="currentColor"/>
</svg>
