<svg width="18" height="18" viewBox="0 0 18 18" fill="none" xmlns="http://www.w3.org/2000/svg">
    <path d="M11.25 4C11.25 3.86193 11.1381 3.75 11 3.75H7C6.86193 3.75 6.75 3.86193 6.75 4V6.17188C6.74992 6.90111 6.45999 7.60056 5.94434 8.11621L5.11621 8.94434C4.88186 9.17869 4.75008 9.49671 4.75 9.82812V12.25H13.25V9.82812C13.2499 9.49671 13.1181 9.17869 12.8838 8.94434L12.0557 8.11621C11.54 7.60056 11.2501 6.90111 11.25 6.17188V4ZM12.75 6.17188C12.7501 6.50329 12.8819 6.82131 13.1162 7.05566L13.9443 7.88379C14.46 8.39944 14.7499 9.09889 14.75 9.82812V13.75H3.25V9.82812C3.25008 9.09889 3.54001 8.39944 4.05566 7.88379L4.88379 7.05566C5.11814 6.82132 5.24992 6.50329 5.25 6.17188V4C5.25 3.0335 6.0335 2.25 7 2.25H11C11.9665 2.25 12.75 3.0335 12.75 4V6.17188Z" fill="currentColor"/>
    <path d="M8.25 16V13C8.25 12.5858 8.58579 12.25 9 12.25C9.41421 12.25 9.75 12.5858 9.75 13V16C9.75 16.4142 9.41421 16.75 9 16.75C8.58579 16.75 8.25 16.4142 8.25 16Z" fill="currentColor"/>
</svg>
