<svg width="18" height="18" viewBox="0 0 18 18" fill="none" xmlns="http://www.w3.org/2000/svg">
    <path d="M14.4801 7.20198C14.5777 7.10435 14.5777 6.94606 14.4801 6.84843L11.6517 4.02C11.554 3.92237 11.3957 3.92237 11.2981 4.02L9.76236 5.55575C9.24665 6.07134 8.54706 6.36091 7.81781 6.36091L6.64667 6.36091C6.31525 6.36091 5.99718 6.49261 5.76278 6.72689L4.05026 8.43942L10.0607 14.4498L11.7732 12.7373C12.0075 12.5029 12.1392 12.1848 12.1392 11.8534V10.6823C12.1392 9.95303 12.4287 9.25343 12.9443 8.73773L14.4801 7.20198ZM14.005 9.79839C13.7707 10.0328 13.639 10.3509 13.639 10.6823V11.8534C13.639 12.5827 13.3494 13.2823 12.8339 13.798L10.0607 16.5711L1.92894 8.43942L4.70212 5.66623C5.21783 5.15064 5.91742 4.86107 6.64667 4.86107H7.81781C8.14923 4.86107 8.4673 4.72938 8.7017 4.49509L10.2374 2.95934C10.9209 2.27592 12.0289 2.27592 12.7123 2.95934L15.5407 5.78777C16.2242 6.47118 16.2242 7.57922 15.5407 8.26264L14.005 9.79839Z" fill="currentColor"/>
    <path d="M3.87348 13.5659L5.9948 11.4446C6.2877 11.1517 6.76257 11.1517 7.05546 11.4446C7.34836 11.7375 7.34836 12.2124 7.05546 12.5053L4.93414 14.6266C4.64125 14.9195 4.16638 14.9195 3.87348 14.6266C3.58059 14.3337 3.58059 13.8588 3.87348 13.5659Z" fill="currentColor"/>
</svg>
