<svg width="18" height="18" viewBox="0 0 18 18" fill="none" xmlns="http://www.w3.org/2000/svg">
    <path d="M15.5 9C15.5 5.41015 12.5899 2.5 9 2.5C5.41015 2.5 2.5 5.41015 2.5 9C2.5 12.5899 5.41015 15.5 9 15.5V17C4.58172 17 1 13.4183 1 9C1 4.58172 4.58172 1 9 1C13.4183 1 17 4.58172 17 9C17 13.4183 13.4183 17 9 17V15.5C12.5899 15.5 15.5 12.5899 15.5 9Z" fill="currentColor"/>
    <path d="M11.2512 8.27942C11.66 8.67282 11.66 9.32718 11.2512 9.72058L9.19338 11.7007C8.55807 12.312 7.5 11.8618 7.5 10.9801V7.0199C7.5 6.13824 8.55807 5.688 9.19338 6.29932L11.2512 8.27942Z" fill="currentColor"/>
</svg>
