<svg width="18" height="18" viewBox="0 0 18 18" fill="none" xmlns="http://www.w3.org/2000/svg">
    <g clip-path="url(#clip0_1994_18881)">
        <path d="M11.2139 6.53108C11.4726 6.20767 11.9451 6.15524 12.2686 6.41389C12.592 6.67265 12.6445 7.14513 12.3857 7.46858L9.46484 11.119C9.03667 11.6542 8.23857 11.6984 7.75391 11.2137L6.46973 9.93049C6.1769 9.63766 6.17703 9.16285 6.46973 8.86995C6.76262 8.57705 7.23738 8.57705 7.53027 8.86995L8.53809 9.87678L11.2139 6.53108Z" fill="currentColor"/>
        <path d="M12.045 16.7803C10.7453 17.289 9.34128 17.464 7.96097 17.291C7.95869 17.2908 7.95642 17.2903 7.95414 17.29C7.89137 17.2821 7.82831 17.2731 7.76566 17.2637C7.73216 17.2587 7.69853 17.2544 7.66507 17.249C7.62394 17.2424 7.58309 17.2339 7.54203 17.2266C7.48473 17.2164 7.42731 17.2067 7.37015 17.1953C5.74932 16.8729 4.26041 16.0767 3.09183 14.9082C1.92332 13.7397 1.12716 12.2507 0.804722 10.6299C0.589546 9.54789 0.593239 8.43969 0.806676 7.36816C0.807875 7.36116 0.807215 7.35369 0.808629 7.34668L0.875035 7.04687C0.878871 7.03092 0.884749 7.01497 0.888707 6.99902C0.899258 6.95625 0.910676 6.91372 0.92191 6.87109C0.932793 6.83024 0.941806 6.78863 0.95316 6.74805C0.953935 6.74529 0.95626 6.74298 0.957066 6.74023C1.04626 6.42281 1.15325 6.10952 1.28031 5.80273C1.62405 4.97287 2.09862 4.20948 2.67972 3.53711C2.68301 3.53315 2.68512 3.52734 2.68851 3.52344C2.69893 3.51143 2.71025 3.50023 2.72074 3.48828C2.74795 3.45727 2.77607 3.42709 2.80375 3.39648C2.84466 3.3512 2.88582 3.30616 2.92777 3.26172C2.94849 3.23979 2.96931 3.21799 2.99027 3.19629C3.02936 3.15578 3.06749 3.11397 3.10746 3.07422C3.25308 2.92942 3.40448 2.7903 3.55961 2.65723C3.56246 2.65478 3.56649 2.65376 3.56937 2.65137C3.81942 2.43745 4.08194 2.23685 4.35746 2.05273C5.10389 1.55399 5.92212 1.18344 6.77836 0.947265C6.78374 0.945657 6.78853 0.94192 6.79398 0.94043C6.8127 0.935305 6.83185 0.931749 6.85062 0.926758C6.88473 0.917679 6.91894 0.909037 6.95316 0.90039C7.01001 0.88607 7.06683 0.871529 7.12406 0.858398C7.16979 0.847864 7.21584 0.838867 7.26175 0.829101C7.30546 0.81983 7.34874 0.808406 7.39261 0.799805C7.41325 0.795761 7.43446 0.792961 7.45511 0.789062C7.47331 0.785639 7.49158 0.7826 7.5098 0.779297C7.59366 0.764011 7.67764 0.750041 7.76175 0.737305C7.77282 0.735647 7.78389 0.734035 7.79496 0.732422C7.86334 0.722355 7.93154 0.711383 8.00004 0.703125C8.00576 0.702436 8.0119 0.703675 8.01761 0.703125C8.34254 0.664659 8.67056 0.644534 9.00004 0.644531C9.39555 0.644584 9.71586 0.964825 9.71586 1.36035C9.71576 1.7558 9.39549 2.07612 9.00004 2.07617C7.63072 2.07619 6.2919 2.48241 5.15336 3.24316C4.82874 3.46007 4.52534 3.70384 4.24418 3.96973C4.20187 4.00968 4.15951 4.04974 4.1182 4.09082L4.11625 4.09277C3.47101 4.73507 2.9553 5.50139 2.60355 6.35059C2.0796 7.61561 1.94289 9.00765 2.21 10.3506C2.47716 11.6935 3.13634 12.9273 4.10453 13.8955C5.06928 14.8602 6.29747 15.5191 7.6348 15.7881C7.8001 15.8213 7.96637 15.8471 8.13285 15.8682C8.13543 15.8685 8.13808 15.8698 8.14066 15.8701C9.20907 16.0037 10.2944 15.8853 11.3106 15.5254C11.3707 15.5041 11.4306 15.4819 11.4903 15.459C11.5434 15.4385 11.5967 15.4183 11.6494 15.3965C12.751 14.9402 13.7137 14.2086 14.4463 13.2754L14.5996 13.0713C14.6495 13.0025 14.6986 12.933 14.7461 12.8623C14.8411 12.7211 14.9308 12.5768 15.0147 12.4297C15.2105 12.0862 15.6477 11.9655 15.9912 12.1611C16.3348 12.357 16.4555 12.7951 16.2598 13.1387C16.1651 13.3048 16.0636 13.468 15.9571 13.6279C15.954 13.6327 15.9514 13.6379 15.9483 13.6426C15.8889 13.7314 15.8282 13.8191 15.7657 13.9053C15.7385 13.9427 15.7094 13.9787 15.6817 14.0156C14.9045 15.0507 13.8985 15.8916 12.7422 16.4707C12.7403 16.4717 12.7383 16.4727 12.7364 16.4736C12.6797 16.502 12.6219 16.5285 12.5645 16.5557C12.5325 16.5708 12.501 16.5869 12.4688 16.6016C12.3724 16.6456 12.2751 16.6881 12.1768 16.7285C12.1332 16.7465 12.0889 16.7631 12.045 16.7803Z" fill="currentColor"/>
        <path d="M13.0928 2.50879C12.9362 2.81746 12.586 2.96409 12.2647 2.87598L12.1299 2.82422C12.0543 2.78588 11.9776 2.7485 11.9004 2.71289L11.667 2.61035C11.5101 2.54486 11.351 2.48615 11.1905 2.43262C10.8154 2.30754 10.6125 1.90148 10.7373 1.52637C10.8468 1.19796 11.1712 1.00102 11.502 1.04102L11.6426 1.07324C11.7397 1.10561 11.8366 1.13979 11.9327 1.17578L12.2188 1.28906C12.3135 1.32862 12.408 1.3692 12.501 1.41211L12.7774 1.5459C13.13 1.72463 13.2712 2.15606 13.0928 2.50879Z" fill="currentColor"/>
        <path d="M16.0098 5.87598C15.7082 6.04571 15.3355 5.9742 15.1172 5.72266L15.0332 5.60352C14.9918 5.52984 14.9486 5.45704 14.9043 5.38477L14.7676 5.16992C14.6734 5.02814 14.5736 4.88968 14.4698 4.75586C14.2275 4.44339 14.2844 3.99246 14.5967 3.75C14.9091 3.50791 15.3591 3.56489 15.6016 3.87695C15.6643 3.95774 15.7254 4.04081 15.7852 4.12402L15.96 4.37695C16.0169 4.4626 16.0725 4.54926 16.126 4.63672L16.2823 4.90137C16.4759 5.24571 16.3537 5.68172 16.0098 5.87598Z" fill="currentColor"/>
        <path d="M16.5625 10.2969C16.2176 10.2703 15.9479 10.0033 15.9063 9.67285L15.9034 9.52832C15.9098 9.44393 15.9146 9.35918 15.918 9.27442L15.9229 9.01953C15.9231 8.93429 15.9229 8.84864 15.92 8.76367L15.9063 8.50977C15.8783 8.11537 16.1751 7.77338 16.5694 7.74512C16.9639 7.71712 17.3059 8.01372 17.334 8.4082C17.3485 8.61229 17.3561 8.81786 17.3555 9.02344C17.3549 9.22877 17.3467 9.43393 17.3311 9.6377C17.3007 10.0319 16.9568 10.327 16.5625 10.2969Z" fill="currentColor"/>
    </g>
    <defs>
        <clipPath id="clip0_1994_18881">
            <rect width="18" height="18" fill="currentColor" transform="translate(18 18) rotate(-180)"/>
        </clipPath>
    </defs>
</svg>
