<svg width="18" height="18" viewBox="0 0 18 18" fill="none" xmlns="http://www.w3.org/2000/svg">
<path d="M9 1.5C13.1421 1.5 16.5 4.85786 16.5 9C16.5 13.1421 13.1421 16.5 9 16.5C4.85786 16.5 1.5 13.1421 1.5 9C1.5 4.85786 4.85786 1.5 9 1.5ZM9 3C5.68629 3 3 5.68629 3 9C3 12.3137 5.68629 15 9 15C12.3137 15 15 12.3137 15 9C15 5.68629 12.3137 3 9 3ZM9.09766 5.25781C9.11192 5.2597 9.12646 5.26194 9.14062 5.26465C9.14977 5.2664 9.15896 5.26938 9.16797 5.27148C9.19066 5.27673 9.21408 5.28072 9.23633 5.28809L12.2363 6.28809C12.6293 6.41907 12.8419 6.84435 12.7109 7.2373C12.5799 7.63013 12.1546 7.84288 11.7617 7.71191L9.74902 7.04102V12C9.74902 12.4142 9.41324 12.75 8.99902 12.75C8.58499 12.7498 8.24902 12.4141 8.24902 12V7.04102L6.23633 7.71191C5.84357 7.84241 5.41802 7.63003 5.28711 7.2373C5.15639 6.84466 5.3693 6.41932 5.76172 6.28809L8.76172 5.28809C8.78314 5.28094 8.80626 5.27758 8.82812 5.27246C8.83912 5.26989 8.85016 5.26579 8.86133 5.26367C8.8745 5.2612 8.88811 5.25956 8.90137 5.25781C8.93326 5.25366 8.966 5.25003 8.99902 5.25C9.03238 5.25 9.06545 5.25358 9.09766 5.25781Z" fill="currentColor"/>
</svg>
