<svg width="18" height="18" viewBox="0 0 18 18" fill="none" xmlns="http://www.w3.org/2000/svg">
<path fill-rule="evenodd" clip-rule="evenodd" d="M8.71942 12.937C9.34035 12.9373 9.84418 13.441 9.84442 14.062C9.84435 14.6831 9.34046 15.1867 8.71942 15.187C8.09815 15.187 7.5945 14.6832 7.59442 14.062C7.59467 13.4409 8.09825 12.937 8.71942 12.937ZM8.99091 2.25046C9.62076 2.24275 10.2431 2.33281 10.7145 2.51413L10.9069 2.59616L10.9079 2.59714C11.5488 2.91104 13.0776 3.80414 13.0778 5.76608C13.0777 7.77978 11.7188 8.69834 10.5808 9.48093C10.0629 9.83711 9.78604 10.1567 9.63251 10.4419C9.4817 10.7223 9.42162 11.0226 9.42157 11.3911C9.42146 11.7792 9.1066 12.0941 8.71845 12.0942C8.33031 12.0941 8.01543 11.7792 8.01532 11.3911C8.01537 10.8587 8.10478 10.314 8.39423 9.77585C8.68124 9.24249 9.13663 8.76791 9.78388 8.32272C10.978 7.50156 11.6715 6.96323 11.6716 5.76608C11.6714 4.67791 10.8529 4.13534 10.2907 3.85983C10.0732 3.75386 9.60538 3.64942 9.00849 3.65671C8.37652 3.66548 7.7515 3.80646 7.25067 4.21921C6.79793 4.59265 6.56743 5.00565 6.44892 5.31882C6.38944 5.47608 6.3574 5.60829 6.34149 5.69577C6.33368 5.73887 6.32974 5.77167 6.32782 5.78952C6.32701 5.79733 6.32694 5.80314 6.32684 5.80514V5.79831C6.3092 6.1856 5.98094 6.48611 5.59345 6.46921C5.20585 6.45196 4.90574 6.1225 4.92255 5.73483V5.72214L4.93036 5.64011C4.93563 5.59094 4.94428 5.52418 4.95868 5.44479C4.98756 5.28581 5.03956 5.06908 5.13349 4.82077C5.32238 4.32171 5.68155 3.68949 6.35614 3.13327C7.19493 2.44202 8.18135 2.26158 8.99091 2.25046Z" fill="currentColor"/>
</svg>
