<svg width="18" height="18" viewBox="0 0 18 18" fill="none" xmlns="http://www.w3.org/2000/svg">
<path d="M9 1C13.4183 1 17 4.58172 17 9C17 13.4183 13.4183 17 9 17C4.58172 17 1 13.4183 1 9C1 4.58172 4.58172 1 9 1ZM9 2.5C5.41015 2.5 2.5 5.41015 2.5 9C2.5 12.5899 5.41015 15.5 9 15.5C12.5899 15.5 15.5 12.5899 15.5 9C15.5 5.41015 12.5899 2.5 9 2.5ZM9.91992 12.8623H8.12012V11.1621H9.91992V12.8623ZM9.08008 5.1377C9.63341 5.1377 10.0974 5.22723 10.4707 5.40723C10.844 5.58055 11.1239 5.82131 11.3105 6.12793C11.5037 6.4345 11.6006 6.78458 11.6006 7.17773C11.6006 7.46408 11.5603 7.71048 11.4805 7.91699C11.4071 8.12366 11.2868 8.30777 11.1201 8.46777C10.9536 8.62096 10.7402 8.77046 10.4805 8.91699C10.2738 9.03033 10.1133 9.14448 10 9.25781C9.89353 9.37105 9.82023 9.50096 9.78027 9.64746C9.74029 9.78751 9.72071 10.3764 9.7207 10.5898H8.24023C8.24024 10.0501 8.29695 9.20494 8.41016 8.87793C8.53016 8.55126 8.77086 8.29719 9.13086 8.11719C9.33062 8.01728 9.48424 7.92449 9.59082 7.83789C9.69746 7.75124 9.76745 7.6607 9.80078 7.56738C9.8407 7.46751 9.86032 7.35089 9.86035 7.21777C9.86035 7.05777 9.80686 6.91378 9.7002 6.78711C9.6001 6.66065 9.39316 6.59766 9.08008 6.59766C8.78024 6.5977 8.55987 6.66767 8.41992 6.80762C8.28682 6.94092 8.20015 7.15747 8.16016 7.45703L6.40039 7.37793C6.44038 6.94469 6.57013 6.56082 6.79004 6.22754C7.00999 5.88762 7.31366 5.62106 7.7002 5.42773C8.08679 5.23444 8.54688 5.13773 9.08008 5.1377Z" fill="currentColor"/>
</svg>
