<svg width="18" height="18" viewBox="0 0 18 18" fill="none" xmlns="http://www.w3.org/2000/svg">
    <path d="M4.25 10.5V7.5C4.25 7.08579 4.58579 6.75 5 6.75C5.41421 6.75 5.75 7.08579 5.75 7.5V10.5C5.75 10.9142 5.41421 11.25 5 11.25C4.58579 11.25 4.25 10.9142 4.25 10.5Z" fill="currentColor" fill-opacity="0.5"/>
    <path d="M10.25 11V7C10.25 6.58579 10.5858 6.25 11 6.25C11.4142 6.25 11.75 6.58579 11.75 7V11C11.75 11.4142 11.4142 11.75 11 11.75C10.5858 11.75 10.25 11.4142 10.25 11Z" fill="currentColor" fill-opacity="0.5"/>
    <path d="M12.75 9.5V8.5C12.75 8.08579 13.0858 7.75 13.5 7.75C13.9142 7.75 14.25 8.08579 14.25 8.5V9.5C14.25 9.91421 13.9142 10.25 13.5 10.25C13.0858 10.25 12.75 9.91421 12.75 9.5Z" fill="currentColor" fill-opacity="0.5"/>
    <path d="M7.25 12.5V5.5C7.25 5.08579 7.58579 4.75 8 4.75C8.41421 4.75 8.75 5.08579 8.75 5.5V12.5C8.75 12.9142 8.41421 13.25 8 13.25C7.58579 13.25 7.25 12.9142 7.25 12.5Z" fill="currentColor" fill-opacity="0.5"/>
    <path d="M15.25 9C15.25 5.54822 12.4518 2.75 9 2.75C5.54822 2.75 2.75 5.54822 2.75 9C2.75 12.4518 5.54822 15.25 9 15.25C12.4518 15.25 15.25 12.4518 15.25 9ZM16.75 9C16.75 13.2802 13.2802 16.75 9 16.75C4.71979 16.75 1.25 13.2802 1.25 9C1.25 4.71979 4.71979 1.25 9 1.25C13.2802 1.25 16.75 4.71979 16.75 9Z" fill="currentColor" fill-opacity="0.5"/>
</svg>
