<svg width="18" height="19" viewBox="0 0 18 19" fill="none" xmlns="http://www.w3.org/2000/svg">
<path d="M16.2471 9.29581C16.139 5.38621 12.9356 2.25 8.99996 2.25C5.98656 2.25 3.40306 4.08849 2.30896 6.70419" stroke="currentColor" stroke-width="1.5" stroke-linecap="round" stroke-linejoin="round"/>
<path d="M1.88 3.80469L2.28801 6.7497L5.23201 6.34269" stroke="currentColor" stroke-width="1.5" stroke-linecap="round" stroke-linejoin="round"/>
<path d="M1.75281 9.70312C1.86021 13.6134 5.06381 16.7504 9.00001 16.7504C12.019 16.7504 14.6064 14.9051 15.6971 12.2817" stroke="currentColor" stroke-width="1.5" stroke-linecap="round" stroke-linejoin="round"/>
<path d="M16.1199 15.195L15.7119 12.25L12.7679 12.657" stroke="currentColor" stroke-width="1.5" stroke-linecap="round" stroke-linejoin="round"/>
<path d="M9 11.5C10.1046 11.5 11 10.605 11 9.5C11 8.395 10.1046 7.5 9 7.5C7.8954 7.5 7 8.395 7 9.5C7 10.605 7.8954 11.5 9 11.5Z" stroke="currentColor" stroke-width="1.5" stroke-linecap="round" stroke-linejoin="round"/>
</svg>
