<svg width="18" height="18" viewBox="0 0 18 18" fill="none" xmlns="http://www.w3.org/2000/svg">
    <path d="M4.21777 3.66941C4.52968 3.39685 5.00381 3.4288 5.27637 3.7407C5.54841 4.05253 5.5166 4.52586 5.20508 4.79832C4.31237 5.57849 3.75 6.72371 3.75 8.00047C3.75027 10.3474 5.65296 12.2505 8 12.2505C10.347 12.2505 12.2497 10.3474 12.25 8.00047C12.25 7.58625 12.5858 7.25047 13 7.25047C13.4142 7.25047 13.75 7.58625 13.75 8.00047C13.7499 9.31752 13.3055 10.53 12.5605 11.4995L16.0303 14.9692C16.3231 15.262 16.3229 15.7369 16.0303 16.0298C15.7374 16.3227 15.2626 16.3227 14.9697 16.0298L11.5 12.56C10.5304 13.3054 9.31754 13.7505 8 13.7505C4.82453 13.7505 2.25027 11.1759 2.25 8.00047C2.25 6.27286 3.01308 4.72232 4.21777 3.66941Z" fill="currentColor"/>
    <path d="M9.3125 1.5073C9.37693 1.33318 9.62307 1.33318 9.6875 1.5073L10.4131 3.46824C10.4333 3.52285 10.4767 3.56609 10.5312 3.5864L12.4932 4.31297C12.6671 4.3775 12.6672 4.62356 12.4932 4.68797L10.5312 5.41355C10.4766 5.43385 10.4333 5.47707 10.4131 5.53172L9.6875 7.49363C9.6229 7.66726 9.3771 7.66726 9.3125 7.49363L8.58691 5.53172C8.56669 5.47707 8.52336 5.43385 8.46875 5.41355L6.50684 4.68797C6.33277 4.62356 6.3329 4.3775 6.50684 4.31297L8.46875 3.5864C8.52331 3.56609 8.5667 3.52285 8.58691 3.46824L9.3125 1.5073Z" fill="currentColor"/>
</svg>
