<svg width="18" height="18" viewBox="0 0 18 18" fill="none" xmlns="http://www.w3.org/2000/svg">
<path d="M9 15.75C5.27227 15.7498 2.25 12.7278 2.25 9C2.25 5.27222 5.27227 2.25023 9 2.25C11.1025 2.25013 12.9796 3.21254 14.2168 4.71777L14.874 3.7207C15.1023 3.37539 15.5676 3.28079 15.9131 3.50879C16.2585 3.7371 16.3541 4.20231 16.126 4.54785L14.8936 6.41309C14.7636 6.60971 14.5487 6.73374 14.3135 6.74805L12.0811 6.88281C11.6679 6.90747 11.3123 6.5927 11.2871 6.17969C11.2623 5.76648 11.5771 5.41096 11.9902 5.38574L12.7607 5.33984C11.8065 4.35945 10.4746 3.75012 9 3.75C6.1007 3.75023 3.75 6.10064 3.75 9C3.75 11.8994 6.1007 14.2498 9 14.25C11.4449 14.2498 13.501 12.5776 14.084 10.3135C14.1872 9.91262 14.5962 9.67075 14.9971 9.77344C15.3981 9.87665 15.6401 10.2855 15.5371 10.6865C14.7878 13.5975 12.146 15.7498 9 15.75Z" fill="currentColor"/>
</svg>
