<svg width="18" height="18" viewBox="0 0 18 18" fill="currentColor" xmlns="http://www.w3.org/2000/svg">
    <path d="M14.624 12.416C14.3943 12.7607 13.9286 12.8538 13.584 12.624C13.2393 12.3943 13.1462 11.9286 13.376 11.584L15.0986 9L13.376 6.41602C13.1462 6.07137 13.2393 5.60574 13.584 5.37598C13.9286 5.14621 14.3943 5.23934 14.624 5.58398L16.624 8.58398C16.792 8.83591 16.792 9.16409 16.624 9.41601L14.624 12.416Z" fill="currentColor"/>
    <path d="M4.70019 3.75C5.78682 3.75 6.77142 4.38993 7.21289 5.38281L8.15722 7.50781C8.35785 7.95921 8.80582 8.25 9.2998 8.25H14C14.4142 8.25 14.75 8.58579 14.75 9C14.75 9.41421 14.4142 9.75 14 9.75H9.2998C8.21317 9.75 7.22857 9.11007 6.7871 8.11719L5.84277 5.99219C5.64214 5.54079 5.19417 5.25 4.70019 5.25H3C2.58578 5.25 2.25 4.91421 2.25 4.5C2.25 4.08579 2.58578 3.75 3 3.75H4.70019Z" fill="currentColor"/>
    <path d="M4.70019 14.25C5.78682 14.25 6.77142 13.6101 7.21288 12.6172L8.15722 10.4922C8.35785 10.0408 8.80582 9.75 9.2998 9.75L15 9.75C15.4142 9.75 15.75 9.41421 15.75 9C15.75 8.58579 15.4142 8.25 15 8.25L9.2998 8.25C8.21317 8.25 7.22856 8.88993 6.7871 9.88281L5.84277 12.0078C5.64213 12.4592 5.19416 12.75 4.70019 12.75H2.99999C2.58578 12.75 2.24999 13.0858 2.24999 13.5C2.24999 13.9142 2.58578 14.25 2.99999 14.25H4.70019Z" fill="currentColor"/>
</svg>
