<svg width="18" height="18" viewBox="0 0 18 18" fill="currentColor" xmlns="http://www.w3.org/2000/svg">
    <path d="M14.5303 7.53026C14.2374 7.82315 13.7626 7.82315 13.4697 7.53026C13.1768 7.23737 13.1768 6.76261 13.4697 6.46971L14.9394 4.99999L13.4697 3.53026C13.1768 3.23737 13.1768 2.76261 13.4697 2.46971C13.7626 2.17682 14.2374 2.17682 14.5303 2.46971L16.5303 4.46971C16.6709 4.61037 16.75 4.80108 16.75 4.99999C16.75 5.1989 16.6709 5.38961 16.5303 5.53026L14.5303 7.53026Z" fill="currentColor"/>
    <path d="M14.5303 15.5303C14.2374 15.8232 13.7626 15.8232 13.4697 15.5303C13.1768 15.2374 13.1768 14.7626 13.4697 14.4697L14.9394 13L13.4697 11.5303C13.1768 11.2374 13.1768 10.7626 13.4697 10.4697C13.7626 10.1768 14.2374 10.1768 14.5303 10.4697L16.5303 12.4697C16.6709 12.6104 16.75 12.8011 16.75 13C16.75 13.1989 16.6709 13.3896 16.5303 13.5303L14.5303 15.5303Z" fill="currentColor"/>
    <path d="M14.5 4.24998C14.9142 4.24998 15.25 4.58577 15.25 4.99998C15.25 5.4142 14.9142 5.74998 14.5 5.74998H11.2363C10.7628 5.74998 10.3299 6.01791 10.1181 6.44139L7.22362 12.2295C6.75779 13.1611 5.80528 13.75 4.76366 13.75H1.99998C1.58577 13.75 1.24998 13.4142 1.24998 13C1.24999 12.5858 1.58577 12.25 1.99998 12.25H4.76366C5.23712 12.25 5.67008 11.9821 5.88182 11.5586L8.77635 5.77049C9.24218 4.83883 10.1947 4.24998 11.2363 4.24998H14.5Z" fill="currentColor"/>
    <path d="M14.5 13.75C14.9142 13.75 15.25 13.4142 15.25 13C15.25 12.5858 14.9142 12.25 14.5 12.25L11.2363 12.25C10.7629 12.25 10.3299 11.9821 10.1182 11.5586L7.22362 5.7705C6.7578 4.83884 5.80529 4.24999 4.76366 4.24999L1.99999 4.24999C1.58578 4.24999 1.24999 4.58577 1.24999 4.99999C1.24999 5.4142 1.58578 5.74999 1.99999 5.74999L4.76366 5.74999C5.23713 5.74999 5.67009 6.01791 5.88183 6.44139L8.77636 12.2295C9.24218 13.1611 10.1947 13.75 11.2363 13.75L14.5 13.75Z" fill="currentColor"/>
</svg>
