<svg width="12" height="12" viewBox="0 0 12 12" fill="none" xmlns="http://www.w3.org/2000/svg">
    <path d="M3.69711 6.62598C4.49882 6.62603 5.24055 6.87925 5.84801 7.30931C5.96314 7.39082 5.94703 7.5621 5.82862 7.63876C4.72791 8.35148 3.99984 9.59111 3.99984 11C3.99984 11.0554 3.95766 11.102 3.90229 11.1046C3.83417 11.1078 3.7657 11.1103 3.69711 11.1104C2.58493 11.1103 1.54407 10.8064 0.652184 10.2773C0.231918 10.028 0.025003 9.52576 0.194176 9.06738C0.720637 7.6426 2.08919 6.62618 3.69711 6.62598Z" fill="currentColor"/>
    <path d="M8.39633 4.7373C9.82783 4.73745 11.0662 5.5439 11.6921 6.72621C11.7593 6.85316 11.6632 7 11.5195 7H7.99984C7.89732 7 7.79573 7.00414 7.69515 7.01172C7.28474 6.51501 6.79685 6.09099 6.24952 5.76272C6.12789 5.68976 6.10979 5.51761 6.22504 5.43495C6.83656 4.99628 7.58582 4.73733 8.39633 4.7373Z" fill="currentColor"/>
    <path d="M3.69711 2.88867C4.52276 2.88867 5.19222 3.55813 5.19222 4.38379C5.19221 5.20943 4.52275 5.87891 3.69711 5.87891C2.87157 5.87878 2.20201 5.20935 2.20199 4.38379C2.20199 3.55821 2.87156 2.8888 3.69711 2.88867Z" fill="currentColor"/>
    <path d="M8.39633 1C9.22186 1.00015 9.89144 1.66955 9.89144 2.49512C9.89137 3.32062 9.22181 3.99009 8.39633 3.99023C7.57071 3.99023 6.90128 3.32071 6.90121 2.49512C6.90121 1.66946 7.57067 1 8.39633 1Z" fill="currentColor"/>
    <path d="M11 9.75C11.4142 9.75 11.75 10.0858 11.75 10.5C11.75 10.9142 11.4142 11.25 11 11.25H7C6.58579 11.25 6.25 10.9142 6.25 10.5C6.25 10.0858 6.58579 9.75 7 9.75H11Z" fill="currentColor"/>
</svg>
