<svg width="12" height="12" viewBox="0 0 12 12" fill="none" xmlns="http://www.w3.org/2000/svg">
    <path d="M9.89108 2.49498C9.89108 3.32064 9.22175 3.98997 8.39609 3.98997C7.57044 3.98997 6.90111 3.32064 6.90111 2.49498C6.90111 1.66933 7.57044 1 8.39609 1C9.22175 1 9.89108 1.66933 9.89108 2.49498Z" fill="currentColor"/>
    <path d="M3.69763 6.6262C5.30487 6.62631 6.67101 7.6415 7.19759 9.06534C7.36723 9.52403 7.16075 10.0272 6.74021 10.2768C5.84899 10.8059 4.80937 11.1107 3.69763 11.1108C2.58527 11.1108 1.544 10.8069 0.651986 10.2778C0.231604 10.0284 0.0251812 9.5256 0.194589 9.06713C0.721102 7.6422 2.0895 6.6262 3.69763 6.6262Z" fill="currentColor"/>
    <path d="M8.39648 4.7372C10.0037 4.73737 11.3699 5.75286 11.8965 7.17666C12.066 7.63532 11.859 8.13796 11.4385 8.38759C10.6658 8.84626 9.78193 9.13588 8.83594 9.20498C8.40205 7.63518 7.35895 6.33826 5.99121 5.61709C6.64071 5.06875 7.47933 4.7372 8.39648 4.7372Z" fill="currentColor"/>
    <path d="M5.19237 4.38376C5.19237 5.20941 4.52304 5.87874 3.69738 5.87874C2.87173 5.87874 2.2024 5.20941 2.2024 4.38376C2.2024 3.5581 2.87173 2.88877 3.69738 2.88877C4.52304 2.88877 5.19237 3.5581 5.19237 4.38376Z" fill="currentColor"/>
</svg>
