<svg width="18" height="18" viewBox="0 0 18 18" fill="none" xmlns="http://www.w3.org/2000/svg">
    <path d="M12.5303 9.53028C12.2374 9.82317 11.7626 9.82317 11.4697 9.53028C11.1768 9.23738 11.1768 8.76262 11.4697 8.46973L13.9395 6L11.4697 3.53028C11.1768 3.23738 11.1768 2.76262 11.4697 2.46973C11.7626 2.17684 12.2374 2.17684 12.5303 2.46973L15.5303 5.46973C15.8232 5.76262 15.8232 6.23738 15.5303 6.53028L12.5303 9.53028Z" fill="currentColor"/>
    <path d="M6.75 11C6.75 11.4142 6.41422 11.75 6 11.75C5.58579 11.75 5.25 11.4142 5.25 11C5.25 7.82437 7.82436 5.25 11 5.25L14 5.25C14.4142 5.25 14.75 5.58579 14.75 6C14.75 6.41422 14.4142 6.75 14 6.75L11 6.75C8.65279 6.75 6.75 8.65279 6.75 11Z" fill="currentColor"/>
    <path d="M1.25 13V12C1.25 11.5858 1.58579 11.25 2 11.25C2.41421 11.25 2.75 11.5858 2.75 12V13C2.75 13.6904 3.30964 14.25 4 14.25H14C14.6904 14.25 15.25 13.6904 15.25 13V12C15.25 11.5858 15.5858 11.25 16 11.25C16.4142 11.25 16.75 11.5858 16.75 12V13C16.75 14.5188 15.5188 15.75 14 15.75H4C2.48122 15.75 1.25 14.5188 1.25 13Z" fill="currentColor"/>
</svg>
