<svg width="18" height="18" viewBox="0 0 18 18" fill="currentColor" xmlns="http://www.w3.org/2000/svg">
<path d="M10.3633 11.1327C11.0044 11.3002 11.5634 11.6952 11.9346 12.244C12.3058 12.7929 12.4644 13.4588 12.3809 14.1161C12.2973 14.7733 11.9771 15.3776 11.4805 15.8163C10.9838 16.2549 10.3444 16.4979 9.68164 16.4999C8.95841 16.4998 8.26434 16.2123 7.75293 15.701C7.24173 15.1898 6.95508 14.4962 6.95508 13.7733H9C9.36163 13.7733 9.70814 13.6295 9.96387 13.3739C10.2196 13.1182 10.3633 12.7716 10.3633 12.41V11.1327ZM11.9238 6.36804C12.4964 6.23877 13.0917 6.24602 13.6611 6.38855C14.2305 6.53112 14.7581 6.80559 15.2021 7.18933C15.6463 7.57318 15.9943 8.05574 16.2178 8.59851C16.4412 9.14125 16.5345 9.72918 16.4893 10.3143C16.444 10.8994 16.2612 11.4657 15.957 11.9677C15.6529 12.4695 15.2351 12.893 14.7373 13.204C14.2395 13.515 13.6755 13.7053 13.0908 13.7587C13.0875 12.9757 12.8149 12.2177 12.3184 11.6122C11.8217 11.0066 11.1308 10.5901 10.3633 10.4335V7.13269C10.8162 6.75921 11.3512 6.49739 11.9238 6.36804ZM9 4.91199C9.18083 4.91199 9.35456 4.98435 9.48242 5.11218C9.61007 5.23992 9.68156 5.41307 9.68164 5.59363V12.41C9.68164 12.5908 9.61029 12.7646 9.48242 12.8925C9.35456 13.0203 9.18083 13.0917 9 13.0917H2.18164C2.00088 13.0916 1.82704 13.0202 1.69922 12.8925C1.57143 12.7646 1.5 12.5908 1.5 12.41V5.59363C1.50008 5.41313 1.57165 5.2399 1.69922 5.11218C1.82704 4.9844 2.00088 4.91204 2.18164 4.91199H9ZM7.09473 6.80652C6.66448 6.68317 5.99246 6.56329 5.39941 6.63757C5.10214 6.67506 4.77079 6.76808 4.50488 6.98621C4.21655 7.22273 4.05664 7.56568 4.05664 7.97937C4.05679 8.47656 4.34257 8.81149 4.63965 9.0282C4.91911 9.23194 5.27432 9.37905 5.55859 9.49695L5.56543 9.49988C5.88159 9.62999 6.12194 9.73039 6.29102 9.84753C6.44374 9.95251 6.44336 10.0056 6.44336 10.0233V10.0243C6.44336 10.239 6.37952 10.291 6.35156 10.3114C6.29218 10.355 6.16281 10.4013 5.91895 10.4081C5.6844 10.4135 5.4093 10.3819 5.11816 10.3348C5.02214 10.3192 4.91864 10.3015 4.81445 10.2831C4.62913 10.2504 4.44165 10.2175 4.29102 10.1991L4.16406 11.2137C4.30849 11.2333 4.45241 11.2564 4.5957 11.2831C4.70342 11.3026 4.8238 11.3232 4.95605 11.3446C5.26068 11.3937 5.61107 11.4387 5.94434 11.4305C6.2682 11.4224 6.65071 11.3624 6.96094 11.1327C7.30238 10.8805 7.46582 10.4911 7.46582 10.0243C7.46572 9.52889 7.16248 9.2061 6.87207 9.00574C6.6096 8.8245 6.27685 8.68683 6.00488 8.57507L5.95703 8.55457C5.64552 8.42645 5.40716 8.32265 5.24219 8.20203C5.09164 8.09303 5.0791 8.02707 5.0791 7.97937C5.07916 7.84872 5.11887 7.80553 5.1543 7.77625C5.21153 7.72926 5.32697 7.67746 5.52637 7.65222C5.92728 7.60178 6.44968 7.68563 6.81445 7.78992L7.09473 6.80652ZM7.26953 2.06335C8.10207 1.5746 9.08063 1.3954 10.0322 1.55847C10.984 1.72169 11.8476 2.21666 12.4697 2.95496C13.0918 3.69336 13.4325 4.62825 13.4316 5.59363V5.64539C13.209 5.61088 12.9817 5.59363 12.75 5.59363C11.9042 5.59234 11.0755 5.83479 10.3633 6.29089V5.59363C10.3632 5.23219 10.2195 4.88535 9.96387 4.62976C9.70817 4.37431 9.36151 4.23035 9 4.23035H5.48242C5.8034 3.31984 6.43686 2.55229 7.26953 2.06335Z" fill="white"/>
</svg>
