<svg width="18" height="18" viewBox="0 0 18 18" fill="none" xmlns="http://www.w3.org/2000/svg">
    <path d="M13.25 7.28711L13.25 13C13.25 13.6904 12.6904 14.25 12 14.25L6 14.25C5.30965 14.25 4.75 13.6904 4.75 13L4.75 5C4.75 4.30964 5.30964 3.75 6 3.75L10.9453 3.75C11.0315 3.75 11.1125 3.7941 11.1582 3.86719L13.2119 7.1543C13.2367 7.19403 13.25 7.24025 13.25 7.28711ZM14.75 7.28711C14.75 6.95921 14.6581 6.63745 14.4844 6.35937L12.4297 3.07226C12.1099 2.56071 11.5486 2.25 10.9453 2.25L6 2.25C4.48122 2.25 3.25 3.48122 3.25 5L3.25 13C3.25 14.5188 4.48122 15.75 6 15.75L12 15.75C13.5188 15.75 14.75 14.5188 14.75 13L14.75 7.28711Z" fill="currentColor"/>
    <path d="M7 6.75C6.58579 6.75 6.25 6.41421 6.25 6C6.25 5.58579 6.58579 5.25 7 5.25L7.5 5.25C7.91421 5.25 8.25 5.58579 8.25 6C8.25 6.41421 7.91421 6.75 7.5 6.75L7 6.75Z" fill="currentColor"/>
    <path d="M7 12.75C6.58579 12.75 6.25 12.4142 6.25 12C6.25 11.5858 6.58579 11.25 7 11.25L10 11.25C10.4142 11.25 10.75 11.5858 10.75 12C10.75 12.4142 10.4142 12.75 10 12.75L7 12.75Z" fill="currentColor"/>
    <path d="M7 9.75C6.58579 9.75 6.25 9.41421 6.25 9C6.25 8.58579 6.58579 8.25 7 8.25L10 8.25C10.4142 8.25 10.75 8.58579 10.75 9C10.75 9.41421 10.4142 9.75 10 9.75L7 9.75Z" fill="currentColor"/>
    <path d="M10.2793 2.79397C10.3931 2.39577 10.8078 2.16554 11.2061 2.27932C11.6043 2.39317 11.8345 2.80784 11.7207 3.20608L11.0049 5.71194C10.9661 5.84773 11.0476 5.98907 11.1846 6.02346L14.1816 6.77248C14.5834 6.87293 14.8278 7.27989 14.7275 7.68166C14.6271 8.08343 14.2201 8.32787 13.8184 8.22756L10.8213 7.47854C9.8615 7.23859 9.29075 6.25109 9.5625 5.29983L10.2793 2.79397Z" fill="currentColor"/>
</svg>
