<svg width="18" height="18" viewBox="0 0 18 18" fill="none" xmlns="http://www.w3.org/2000/svg">
<path d="M10.035 2.58094C9.569 1.89294 8.431 1.89294 7.965 2.58094L5.617 6.04894C5.357 6.43294 5.331 6.92594 5.548 7.33594C5.765 7.74594 6.189 7.99994 6.652 7.99994H11.348C11.811 7.99994 12.235 7.74594 12.452 7.33594C12.669 6.92694 12.643 6.43394 12.383 6.04894L10.035 2.58094Z" fill="currentColor"/>
<path d="M11.348 10H6.652C6.189 10 5.765 10.254 5.548 10.664C5.331 11.073 5.357 11.566 5.617 11.951L7.965 15.419C8.198 15.763 8.585 15.968 9 15.968C9.415 15.968 9.802 15.762 10.035 15.419L12.383 11.951C12.643 11.567 12.669 11.074 12.452 10.664C12.235 10.254 11.811 10 11.348 10Z" fill="currentColor" fill-opacity="0.4"/>
</svg>
