<svg width="18" height="18" viewBox="0 0 18 18" fill="none" xmlns="http://www.w3.org/2000/svg">
<path d="M10.0345 2.58094C9.56851 1.89294 8.43052 1.89294 7.96451 2.58094L5.61651 6.04894C5.35652 6.43294 5.33051 6.92594 5.54751 7.33594C5.76451 7.74594 6.18851 7.99994 6.65151 7.99994H11.3475C11.8105 7.99994 12.2345 7.74594 12.4515 7.33594C12.6685 6.92694 12.6425 6.43394 12.3825 6.04894L10.0345 2.58094Z" fill="currentColor" fill-opacity="0.4"/>
<path d="M11.3475 10H6.65151C6.18851 10 5.76451 10.254 5.54751 10.664C5.33051 11.073 5.35652 11.566 5.61651 11.951L7.96451 15.419C8.19752 15.763 8.58451 15.968 8.99951 15.968C9.41452 15.968 9.80152 15.762 10.0345 15.419L12.3825 11.951C12.6425 11.567 12.6685 11.074 12.4515 10.664C12.2345 10.254 11.8105 10 11.3475 10Z" fill="currentColor" fill-opacity="0.4"/>
</svg>
