<svg width="18" height="18" viewBox="0 0 18 18" fill="none" xmlns="http://www.w3.org/2000/svg">
<path d="M9 1C9.7574 1.00026 10.2639 1.90921 11.2773 3.72656L11.54 4.19727C11.8278 4.71372 11.9724 4.97223 12.1963 5.14258C12.4202 5.31267 12.7003 5.37567 13.2598 5.50195L13.7686 5.61719C15.7361 6.0627 16.7195 6.28557 16.9541 7.03809C17.1876 7.79005 16.5173 8.57584 15.1758 10.1445L14.8281 10.5498C14.4475 10.9952 14.2565 11.219 14.1709 11.4941C14.0855 11.77 14.1143 12.068 14.1719 12.6621L14.2246 13.2031C14.4269 15.2961 14.5282 16.3426 13.916 16.8076C13.3033 17.2724 12.3814 16.8489 10.54 16.001L10.0625 15.7812C9.53952 15.5397 9.27747 15.42 9 15.4199C8.72247 15.4199 8.46046 15.5398 7.9375 15.7812L7.46094 16.001C5.61872 16.8489 4.69695 17.2724 4.08496 16.8086C3.47143 16.343 3.573 15.2967 3.77539 13.2031L3.82812 12.6621C3.88569 12.0672 3.91448 11.7693 3.82812 11.4941C3.74329 11.2183 3.55149 10.9954 3.1709 10.5508L2.82422 10.1445C1.48265 8.57652 0.812304 7.79089 1.0459 7.03809C1.27974 6.28564 2.26486 6.0619 4.23242 5.61719L4.74121 5.50195C5.29973 5.3757 5.57905 5.31277 5.80371 5.14258C6.02838 4.97221 6.17215 4.71374 6.45996 4.19727L6.72266 3.72656C7.73619 1.90903 8.24243 1 9 1Z" fill="currentColor"/>
</svg>
