<svg width="18" height="18" viewBox="0 0 18 18" fill="none" xmlns="http://www.w3.org/2000/svg">
<path d="M9 1C9.75741 1.00026 10.2639 1.90923 11.2773 3.72656L11.54 4.19727C11.8278 4.71371 11.9724 4.97224 12.1963 5.14258C12.4202 5.31267 12.7003 5.37568 13.2598 5.50195L13.7686 5.61719C15.7361 6.06268 16.7195 6.2856 16.9541 7.03809C17.1876 7.79004 16.5172 8.57588 15.1758 10.1445L14.8291 10.5498C14.4483 10.9954 14.2565 11.219 14.1709 11.4941C14.0855 11.77 14.1143 12.0681 14.1719 12.6621L14.2246 13.2031C14.4269 15.2961 14.5283 16.3427 13.916 16.8076L13.7969 16.8848C13.184 17.2178 12.2661 16.7958 10.54 16.001L10.0625 15.7812C9.53955 15.5398 9.27746 15.42 9 15.4199C8.72246 15.4199 8.46049 15.5397 7.9375 15.7812L7.46094 16.001L6.81152 16.2979C5.49415 16.8947 4.73371 17.1739 4.20312 16.8857L4.08496 16.8086C3.54822 16.4012 3.55847 15.5493 3.70508 13.9404L3.77539 13.2031L3.82812 12.6621C3.87847 12.1419 3.90689 11.8489 3.85547 11.5996L3.82812 11.4941C3.76452 11.2873 3.64101 11.1098 3.42285 10.8467L3.1709 10.5508L2.82422 10.1445C1.48263 8.57653 0.812301 7.79088 1.0459 7.03809C1.27974 6.28564 2.26482 6.0619 4.23242 5.61719L4.74121 5.50195C5.2302 5.39142 5.5052 5.32917 5.7168 5.20117L5.80371 5.14258C6.02833 4.97222 6.1722 4.71364 6.45996 4.19727L6.72266 3.72656C7.7362 1.90906 8.24243 1 9 1ZM9 2.80566C8.83501 3.05083 8.64104 3.37497 8.39355 3.8125L8.03223 4.45703L7.77051 4.92773C7.54931 5.32471 7.24509 5.93216 6.70996 6.33789C6.16696 6.7494 5.50239 6.86742 5.07129 6.96484L4.56348 7.08105C3.63625 7.29063 3.05657 7.42769 2.66699 7.56348C2.84324 7.82784 3.10458 8.15595 3.48926 8.61133L3.96387 9.16895L3.96484 9.16992L4.31055 9.5752L4.55762 9.8623C4.82078 10.1766 5.11353 10.5716 5.26172 11.0537C5.45723 11.6848 5.36647 12.3399 5.32129 12.8066V12.8086L5.26855 13.3486C5.17541 14.3122 5.12081 14.9366 5.12207 15.3789C5.50632 15.2423 6.03379 15.007 6.83398 14.6387L7.30859 14.4199L7.64551 14.2637C8.01723 14.0971 8.48729 13.9199 9 13.9199L9.25293 13.9336C9.83025 13.9963 10.3374 14.2561 10.6875 14.418L11.166 14.6377L11.167 14.6387C11.9669 15.007 12.494 15.2425 12.8779 15.3789C12.8791 14.9366 12.8246 14.312 12.7314 13.3486L12.6787 12.8076C12.6332 12.3379 12.5426 11.6814 12.7383 11.0498V11.0479C12.9368 10.4098 13.39 9.92451 13.6885 9.5752L13.6895 9.57422L14.0361 9.16895L14.5107 8.61133C14.8951 8.15616 15.1557 7.82782 15.332 7.56348C14.9426 7.42779 14.3644 7.29094 13.4375 7.08105L12.9287 6.96582C12.4988 6.86884 11.8314 6.74911 11.2881 6.33594C10.7557 5.93093 10.4523 5.32655 10.2295 4.92676L9.96777 4.45703C9.53269 3.67683 9.23749 3.15859 9 2.80566Z" fill="currentColor"/>
</svg>
