<svg width="18" height="18" viewBox="0 0 18 18" fill="none" xmlns="http://www.w3.org/2000/svg">
    <path d="M8.25 4V2C8.25 1.58579 8.58579 1.25 9 1.25C9.41421 1.25 9.75 1.58579 9.75 2V4C9.75 4.41421 9.41421 4.75 9 4.75C8.58579 4.75 8.25 4.41421 8.25 4Z" fill="currentColor"/>
    <path opacity="0.5" d="M8.25 16V14C8.25 13.5858 8.58579 13.25 9 13.25C9.41421 13.25 9.75 13.5858 9.75 14V16C9.75 16.4142 9.41421 16.75 9 16.75C8.58579 16.75 8.25 16.4142 8.25 16Z" fill="currentColor"/>
    <path opacity="0.88" d="M12.0037 4.93771L13.418 3.52349C13.7109 3.2306 14.1857 3.2306 14.4786 3.52349C14.7715 3.81639 14.7715 4.29126 14.4786 4.58415L13.0644 5.99837C12.7715 6.29126 12.2966 6.29126 12.0037 5.99837C11.7109 5.70547 11.7109 5.2306 12.0037 4.93771Z" fill="currentColor"/>
    <path opacity="0.35" d="M3.51845 13.4231L4.93267 12.0088C5.22556 11.716 5.70043 11.716 5.99333 12.0088C6.28622 12.3017 6.28622 12.7766 5.99333 13.0695L4.57911 14.4837C4.28622 14.7766 3.81135 14.7766 3.51845 14.4837C3.22556 14.1908 3.22556 13.716 3.51845 13.4231Z" fill="currentColor"/>
    <path opacity="0.75" d="M13.9951 8.25488L15.9951 8.25488C16.4093 8.25488 16.7451 8.59067 16.7451 9.00488C16.7451 9.4191 16.4093 9.75488 15.9951 9.75488L13.9951 9.75488C13.5809 9.75488 13.2451 9.4191 13.2451 9.00488C13.2451 8.59067 13.5809 8.25488 13.9951 8.25488Z" fill="currentColor"/>
    <path opacity="0.25" d="M1.99512 8.25488L3.99512 8.25488C4.40933 8.25488 4.74512 8.59067 4.74512 9.00488C4.74512 9.4191 4.40933 9.75488 3.99512 9.75488L1.99512 9.75488C1.5809 9.75488 1.24512 9.4191 1.24512 9.00488C1.24512 8.59067 1.5809 8.25488 1.99512 8.25488Z" fill="currentColor"/>
    <path opacity="0.66" d="M13.0575 12.0086L14.4717 13.4228C14.7646 13.7157 14.7646 14.1906 14.4717 14.4835C14.1788 14.7763 13.7039 14.7763 13.4111 14.4835L11.9968 13.0692C11.7039 12.7763 11.7039 12.3015 11.9968 12.0086C12.2897 11.7157 12.7646 11.7157 13.0575 12.0086Z" fill="currentColor"/>
    <path opacity="0.12" d="M4.57221 3.52323L5.98642 4.93744C6.27932 5.23034 6.27932 5.70521 5.98642 5.9981C5.69353 6.291 5.21866 6.291 4.92576 5.9981L3.51155 4.58389C3.21866 4.291 3.21866 3.81612 3.51155 3.52323C3.80444 3.23034 4.27932 3.23034 4.57221 3.52323Z" fill="currentColor"/>
</svg>
