<svg width="18" height="18" viewBox="0 0 18 18" fill="none" xmlns="http://www.w3.org/2000/svg">
    <path d="M3.99999 16C2.89542 16 1.99999 15.1046 1.99999 14L1.99999 4C1.99999 2.89543 2.89542 2 3.99999 2L4.99999 2C6.10456 2 6.99999 2.89543 6.99999 4L6.99999 14C6.99999 15.1046 6.10456 16 4.99999 16H3.99999Z" fill="#A0A0A0"/>
    <path d="M13 16C11.8954 16 11 15.1046 11 14L11 4C11 2.89543 11.8954 2 13 2L14 2C15.1046 2 16 2.89543 16 4L16 14C16 15.1046 15.1046 16 14 16H13Z" fill="#A0A0A0"/>
</svg>
