<svg width="18" height="18" viewBox="0 0 18 18" fill="none" xmlns="http://www.w3.org/2000/svg">
    <path d="M2.75 10C2.75 10.6904 3.30965 11.25 4 11.25L14 11.25C14.6904 11.25 15.25 10.6904 15.25 10V5C15.25 4.30964 14.6904 3.75 14 3.75L4 3.75C3.30965 3.75 2.75 4.30965 2.75 5L2.75 10ZM1.25 5C1.25 3.48122 2.48122 2.25 4 2.25L14 2.25C15.5188 2.25 16.75 3.48122 16.75 5V10C16.75 11.5188 15.5188 12.75 14 12.75L4 12.75C2.48122 12.75 1.25 11.5188 1.25 10L1.25 5Z" fill="#06B6D4"/>
    <path d="M5.25 12C5.25 11.5858 5.58579 11.25 6 11.25C6.41422 11.25 6.75 11.5858 6.75 12L6.75 15C6.75 15.4142 6.41422 15.75 6 15.75C5.58579 15.75 5.25 15.4142 5.25 15L5.25 12Z" fill="#06B6D4"/>
    <path d="M14 14.25C14.4142 14.25 14.75 14.5858 14.75 15C14.75 15.4142 14.4142 15.75 14 15.75H4C3.58579 15.75 3.25 15.4142 3.25 15C3.25 14.5858 3.58579 14.25 4 14.25H14Z" fill="#06B6D4"/>
    <path d="M11.25 12C11.25 11.5858 11.5858 11.25 12 11.25C12.4142 11.25 12.75 11.5858 12.75 12V15C12.75 15.4142 12.4142 15.75 12 15.75C11.5858 15.75 11.25 15.4142 11.25 15V12Z" fill="#06B6D4"/>
    <path d="M1.625 4.35059C1.98371 4.14349 2.4423 4.26632 2.64942 4.625L6.69141 11.625C6.89836 11.9837 6.77467 12.4423 6.41602 12.6494C6.05734 12.8563 5.59866 12.7336 5.3916 12.375L1.35059 5.375C1.14349 5.0163 1.26632 4.55771 1.625 4.35059Z" fill="#06B6D4"/>
    <path d="M5.75898 2.85077C6.11768 2.64367 6.57627 2.7665 6.78339 3.12519L11.6906 11.6252C11.8977 11.9839 11.7749 12.4425 11.4162 12.6496C11.0575 12.8565 10.5989 12.7338 10.3918 12.3752L5.48456 3.87519C5.27746 3.51648 5.40029 3.05789 5.75898 2.85077Z" fill="#06B6D4"/>
    <path d="M10.625 2.61873C10.9837 2.41162 11.4423 2.53442 11.6494 2.89314L16.1494 10.6871C16.3565 11.0458 16.2337 11.5044 15.875 11.7115C15.5163 11.9186 15.0577 11.7958 14.8506 11.4371L10.3506 3.64314C10.1435 3.28445 10.2664 2.82586 10.625 2.61873Z" fill="#06B6D4"/>
</svg>
