<svg width="14" height="14" viewBox="0 0 14 14" fill="none" xmlns="http://www.w3.org/2000/svg">
<path d="M1 3C1 1.89543 1.89543 1 3 1H11C12.1046 1 13 1.89543 13 3V11C13 12.1046 12.1046 13 11 13H3C1.89543 13 1 12.1046 1 11V3Z" fill="currentColor" fill-opacity="0.3"/>
<path d="M12.25 3C12.25 2.30964 11.6904 1.75 11 1.75H3C2.30964 1.75 1.75 2.30964 1.75 3V11C1.75 11.6904 2.30964 12.25 3 12.25H11C11.6904 12.25 12.25 11.6904 12.25 11V3ZM13.75 11C13.75 12.5188 12.5188 13.75 11 13.75H3C1.48122 13.75 0.25 12.5188 0.25 11V3C0.25 1.48122 1.48122 0.25 3 0.25H11C12.5188 0.25 13.75 1.48122 13.75 3V11Z" fill="currentColor"/>
</svg>
