<svg width="18" height="18" viewBox="0 0 18 18" fill="none" xmlns="http://www.w3.org/2000/svg">
<path d="M5.95606 6.43213C5.87517 6.29728 5.89662 6.12437 6.00781 6.01318L6.52539 5.49561C6.91591 5.10524 7.54897 5.10519 7.93945 5.49561L9.53516 7.09131L15.5459 1.08057C15.8359 0.790941 16.3067 0.790924 16.5967 1.08057C16.8867 1.37056 16.8866 1.84228 16.5967 2.13232L10.5859 8.14307L12.1826 9.73779C12.573 10.1282 12.5727 10.7613 12.1826 11.1519L11.6641 11.6704C11.553 11.7812 11.3808 11.8027 11.2461 11.7222C9.07547 10.4198 7.25844 8.60275 5.95606 6.43213ZM0.795899 9.52295C0.559528 9.12857 0.73465 8.61579 1.16309 8.44873L4.9502 6.97217C5.04421 6.9356 5.15199 6.969 5.20898 7.05225C6.62042 9.11454 8.3926 10.9051 10.4404 12.3374L10.6143 12.4585C10.7038 12.5211 10.7362 12.6387 10.6924 12.7388L9.08496 16.3989C8.90505 16.8084 8.40702 16.9669 8.02344 16.7368L6.99707 16.1216C4.69747 14.7419 2.77243 12.8176 1.39258 10.5181L0.795899 9.52295Z" fill="currentColor"/>
</svg>
