<svg width="18" height="18" viewBox="0 0 18 18" fill="currentColor" xmlns="http://www.w3.org/2000/svg">
    <path d="M4 6C5.10457 6 6 5.10457 6 4C6 2.89543 5.10457 2 4 2C2.89543 2 2 2.89543 2 4C2 5.10457 2.89543 6 4 6Z" fill="currentColor"/>
    <path d="M9 6C10.1046 6 11 5.10457 11 4C11 2.89543 10.1046 2 9 2C7.89543 2 7 2.89543 7 4C7 5.10457 7.89543 6 9 6Z" fill="currentColor"/>
    <path d="M14 6C15.1046 6 16 5.10457 16 4C16 2.89543 15.1046 2 14 2C12.8954 2 12 2.89543 12 4C12 5.10457 12.8954 6 14 6Z" fill="currentColor"/>
    <path d="M4 11C5.10457 11 6 10.1046 6 9C6 7.89543 5.10457 7 4 7C2.89543 7 2 7.89543 2 9C2 10.1046 2.89543 11 4 11Z" fill="currentColor"/>
    <path d="M9 11C10.1046 11 11 10.1046 11 9C11 7.89543 10.1046 7 9 7C7.89543 7 7 7.89543 7 9C7 10.1046 7.89543 11 9 11Z" fill="currentColor"/>
    <path d="M14 11C15.1046 11 16 10.1046 16 9C16 7.89543 15.1046 7 14 7C12.8954 7 12 7.89543 12 9C12 10.1046 12.8954 11 14 11Z" fill="currentColor"/>
    <path d="M4 16C5.10457 16 6 15.1046 6 14C6 12.8954 5.10457 12 4 12C2.89543 12 2 12.8954 2 14C2 15.1046 2.89543 16 4 16Z" fill="currentColor"/>
    <path d="M9 16C10.1046 16 11 15.1046 11 14C11 12.8954 10.1046 12 9 12C7.89543 12 7 12.8954 7 14C7 15.1046 7.89543 16 9 16Z" fill="currentColor"/>
    <path d="M14 16C15.1046 16 16 15.1046 16 14C16 12.8954 15.1046 12 14 12C12.8954 12 12 12.8954 12 14C12 15.1046 12.8954 16 14 16Z" fill="currentColor"/>
</svg>
