<svg width="18" height="18" viewBox="0 0 18 18" fill="none" xmlns="http://www.w3.org/2000/svg">
<path d="M9.30859 1.83301C11.6053 1.81813 13.4716 3.68177 13.46 5.97852L13.4355 10.7988C13.4315 11.5644 13.2143 12.3146 12.8086 12.9639L10.8086 16.1631C10.5299 16.6085 10.1013 16.9931 9.57715 17.1885C9.02929 17.3925 8.35443 17.3899 7.75293 16.9932C6.82815 16.3827 6.21703 15.3796 6.09473 14.2725C6.0616 13.9711 6.10216 13.7002 6.15234 13.4902L6.20898 13.2529C6.265 13.0181 6.08707 12.7914 5.8457 12.79L4.9834 12.7871C2.41168 12.7757 0.47593 10.4378 0.944336 7.90918L1.44238 5.23145C1.80302 3.28704 3.49319 1.87076 5.4707 1.85742L9.30859 1.83301ZM5.48535 4.10742C4.58659 4.11358 3.81826 4.75789 3.6543 5.6416L3.1582 8.31934C2.94553 9.46845 3.82448 10.5317 4.99316 10.5371L5.85645 10.54C7.54797 10.5481 8.79017 12.1321 8.39648 13.7773L8.34082 14.0127C8.33755 14.0267 8.33683 14.0386 8.33594 14.0449C8.38342 14.4282 8.57577 14.7781 8.8623 15.0176C8.87493 15.0034 8.88946 14.988 8.90039 14.9707L10.9014 11.7715C11.0856 11.4766 11.1836 11.1348 11.1855 10.7871L11.21 5.9668C11.215 4.92302 10.367 4.07629 9.32324 4.08301L5.48535 4.10742ZM16.7998 3.375C17.4208 3.37516 17.9246 3.87895 17.9248 4.5V10.5C17.9247 11.1211 17.421 11.6248 16.7998 11.625C16.1787 11.6248 15.675 11.1211 15.6748 10.5L15.6748 4.5C15.675 3.87898 16.1788 3.37519 16.7998 3.375Z" fill="currentColor"/>
</svg>
