<svg width="18" height="18" viewBox="0 0 18 18" fill="none" xmlns="http://www.w3.org/2000/svg">
<path d="M8.42285 0.811035C8.97053 0.607226 9.64478 0.610865 10.2461 1.00732C11.1708 1.61781 11.782 2.62093 11.9043 3.72803C11.9374 4.02931 11.8978 4.30034 11.8477 4.51025L11.79 4.74756C11.7343 4.9821 11.9123 5.20878 12.1533 5.21045L13.0166 5.21338C15.5883 5.22485 17.5231 7.56269 17.0547 10.0913L16.5566 12.769C16.1959 14.7134 14.5059 16.1289 12.5283 16.1421L8.69043 16.1675C6.39404 16.1821 4.5276 14.3185 4.53906 12.022L4.56445 7.20068C4.56861 6.43518 4.78567 5.6848 5.19141 5.03564L7.19043 1.83643C7.46912 1.39095 7.89866 1.00638 8.42285 0.811035ZM1.2002 6.37451C1.82108 6.37478 2.3239 6.87863 2.32422 7.49951V13.4995C2.3241 14.1206 1.82122 14.6242 1.2002 14.6245C0.579086 14.6243 0.0743364 14.1206 0.0742188 13.4995V7.49951C0.0745463 6.87857 0.579213 6.37468 1.2002 6.37451ZM9.09961 3.02881L7.09863 6.22803C6.91442 6.52288 6.81643 6.86473 6.81445 7.2124L6.78906 12.0337C6.78412 13.0772 7.63228 13.924 8.67578 13.9175L12.5137 13.8921C13.4125 13.8861 14.1806 13.2425 14.3447 12.3589L14.8418 9.68115C15.0545 8.53191 14.1747 7.46858 13.0059 7.46338L12.1436 7.46045C10.452 7.45245 9.20998 5.86835 9.60352 4.22314L9.65918 3.98682C9.6624 3.97286 9.66219 3.96086 9.66309 3.95459C9.61551 3.57152 9.42411 3.2214 9.1377 2.98193C9.12511 2.99615 9.11056 3.01154 9.09961 3.02881Z" fill="currentColor"/>
</svg>
