<svg width="18" height="18" viewBox="0 0 18 18" fill="none" xmlns="http://www.w3.org/2000/svg">
<path d="M8.42285 0.811768C8.97067 0.607849 9.64463 0.611312 10.2461 1.00806C11.1709 1.61852 11.782 2.62068 11.9043 3.72778C11.9374 4.02915 11.8978 4.30004 11.8477 4.51001L11.791 4.74731C11.735 4.98214 11.9129 5.20881 12.1543 5.21021L13.0166 5.21313C15.5883 5.22458 17.5231 7.56243 17.0547 10.0911L16.5576 12.7688C16.197 14.7132 14.5068 16.1294 12.5293 16.1428L8.69141 16.1672C6.39471 16.1821 4.52841 14.3185 4.54004 12.0217L4.56445 7.20142C4.56853 6.43584 4.78567 5.6856 5.19141 5.03638L7.19141 1.83716C7.47008 1.39166 7.89865 1.00713 8.42285 0.811768ZM1.2002 6.37524C1.8212 6.37551 2.3241 6.8792 2.32422 7.50024V13.5002C2.32398 14.1212 1.82114 14.625 1.2002 14.6252C0.579163 14.6251 0.0744614 14.1213 0.0742188 13.5002V7.50024C0.0743499 6.87914 0.579092 6.37541 1.2002 6.37524Z" fill="currentColor"/>
</svg>
