<svg width="18" height="18" viewBox="0 0 18 18" fill="none" xmlns="http://www.w3.org/2000/svg">
<path d="M9 1.5C13.1421 1.5 16.5 4.85786 16.5 9C16.5 13.1421 13.1421 16.5 9 16.5C4.85786 16.5 1.5 13.1421 1.5 9C1.5 4.85786 4.85786 1.5 9 1.5ZM9 3C5.68629 3 3 5.68629 3 9C3 12.3137 5.68629 15 9 15C12.3137 15 15 12.3137 15 9C15 5.68629 12.3137 3 9 3ZM9 5.25C9.41421 5.25 9.75 5.58579 9.75 6V10.959L11.7627 10.2881C12.1556 10.1573 12.581 10.3699 12.7119 10.7627C12.8428 11.1555 12.63 11.5808 12.2373 11.7119L9.2373 12.7119C9.21575 12.7191 9.19288 12.7224 9.1709 12.7275C9.15977 12.7301 9.14901 12.7342 9.1377 12.7363C9.1244 12.7388 9.11104 12.7404 9.09766 12.7422C9.06563 12.7464 9.03316 12.75 9 12.75C8.9665 12.75 8.9337 12.7464 8.90137 12.7422C8.88697 12.7403 8.87269 12.7381 8.8584 12.7354C8.84913 12.7336 8.8402 12.7306 8.83105 12.7285C8.80824 12.7232 8.78505 12.7194 8.7627 12.7119L5.7627 11.7119C5.36974 11.5809 5.1571 11.1557 5.28809 10.7627C5.41911 10.3698 5.84438 10.1571 6.2373 10.2881L8.25 10.959V6C8.25 5.58579 8.58579 5.25 9 5.25Z" fill="currentColor"/>
</svg>
