<svg width="18" height="18" viewBox="0 0 18 18" fill="none" xmlns="http://www.w3.org/2000/svg">
    <path d="M5.5 3.5C5.5 2.94772 5.05228 2.5 4.5 2.5C3.94772 2.5 3.5 2.94772 3.5 3.5C3.5 4.05228 3.94772 4.5 4.5 4.5V6C3.11929 6 2 4.88071 2 3.5C2 2.11929 3.11929 1 4.5 1C5.88071 1 7 2.11929 7 3.5C7 4.88071 5.88071 6 4.5 6V4.5C5.05228 4.5 5.5 4.05228 5.5 3.5Z" fill="currentColor"/>
    <path d="M14.5 11.5C14.5 10.9477 14.0523 10.5 13.5 10.5C12.9477 10.5 12.5 10.9477 12.5 11.5C12.5 12.0523 12.9477 12.5 13.5 12.5V14C12.1193 14 11 12.8807 11 11.5C11 10.1193 12.1193 9 13.5 9C14.8807 9 16 10.1193 16 11.5C16 12.8807 14.8807 14 13.5 14V12.5C14.0523 12.5 14.5 12.0523 14.5 11.5Z" fill="currentColor"/>
    <path d="M3.75 5.5C3.75 5.08579 4.08579 4.75001 4.5 4.75001C4.91421 4.75001 5.25 5.08579 5.25 5.5C5.25 6.83647 5.69411 8.13357 6.65527 9.09473C7.61069 10.0502 9.15388 10.75 11.5 10.75C11.9142 10.75 12.25 11.0858 12.25 11.5C12.25 11.9142 11.9142 12.25 11.5 12.25C8.84612 12.25 6.88931 11.4499 5.59473 10.1553C4.30589 8.86644 3.75 7.16354 3.75 5.5Z" fill="currentColor"/>
    <path d="M3.75 15.5V5.5C3.75 5.08579 4.08579 4.75001 4.5 4.75001C4.91421 4.75001 5.25 5.08579 5.25 5.5V15.5C5.25 15.9142 4.91421 16.25 4.5 16.25C4.08579 16.25 3.75 15.9142 3.75 15.5Z" fill="currentColor"/>
</svg>
