<svg width="18" height="18" viewBox="0 0 18 18" fill="none" xmlns="http://www.w3.org/2000/svg">
    <path d="M15.5 4C15.5 3.17157 14.8284 2.5 14 2.5H4C3.17157 2.5 2.5 3.17157 2.5 4V14C2.5 14.8284 3.17157 15.5 4 15.5H14C14.8284 15.5 15.5 14.8284 15.5 14V4ZM16.5 14C16.5 15.3807 15.3807 16.5 14 16.5H4C2.61929 16.5 1.5 15.3807 1.5 14V4C1.5 2.61929 2.61929 1.5 4 1.5H14C15.3807 1.5 16.5 2.61929 16.5 4V14Z" fill="currentColor"/>
    <path d="M11.251 8.60943C11.6599 9.00282 11.6599 9.65715 11.251 10.0505L9.19332 12.0306C8.55804 12.6419 7.5 12.1917 7.5 11.31V7.34995C7.5 6.46832 8.55804 6.0181 9.19332 6.6294L11.251 8.60943Z" fill="currentColor"/>
    <path d="M5 3.5C5.27614 3.5 5.5 3.72386 5.5 4C5.5 4.27614 5.27614 4.5 5 4.5H4C3.72386 4.5 3.5 4.27614 3.5 4C3.5 3.72386 3.72386 3.5 4 3.5H5Z" fill="currentColor"/>
    <path d="M8 3.5C8.27614 3.5 8.5 3.72386 8.5 4C8.5 4.27614 8.27614 4.5 8 4.5H7C6.72386 4.5 6.5 4.27614 6.5 4C6.5 3.72386 6.72386 3.5 7 3.5H8Z" fill="currentColor"/>
    <path d="M11 3.5C11.2761 3.5 11.5 3.72386 11.5 4C11.5 4.27614 11.2761 4.5 11 4.5H10C9.72386 4.5 9.5 4.27614 9.5 4C9.5 3.72386 9.72386 3.5 10 3.5H11Z" fill="currentColor"/>
    <path d="M14 3.5C14.2761 3.5 14.5 3.72386 14.5 4C14.5 4.27614 14.2761 4.5 14 4.5H13C12.7239 4.5 12.5 4.27614 12.5 4C12.5 3.72386 12.7239 3.5 13 3.5H14Z" fill="currentColor"/>
    <path d="M5 13.5C5.27614 13.5 5.5 13.7239 5.5 14C5.5 14.2761 5.27614 14.5 5 14.5H4C3.72386 14.5 3.5 14.2761 3.5 14C3.5 13.7239 3.72386 13.5 4 13.5H5Z" fill="currentColor"/>
    <path d="M8 13.5C8.27614 13.5 8.5 13.7239 8.5 14C8.5 14.2761 8.27614 14.5 8 14.5H7C6.72386 14.5 6.5 14.2761 6.5 14C6.5 13.7239 6.72386 13.5 7 13.5H8Z" fill="currentColor"/>
    <path d="M11 13.5C11.2761 13.5 11.5 13.7239 11.5 14C11.5 14.2761 11.2761 14.5 11 14.5H10C9.72386 14.5 9.5 14.2761 9.5 14C9.5 13.7239 9.72386 13.5 10 13.5H11Z" fill="currentColor"/>
    <path d="M14 13.5C14.2761 13.5 14.5 13.7239 14.5 14C14.5 14.2761 14.2761 14.5 14 14.5H13C12.7239 14.5 12.5 14.2761 12.5 14C12.5 13.7239 12.7239 13.5 13 13.5H14Z" fill="currentColor"/>
</svg>
