<svg width="18" height="18" viewBox="0 0 18 18" fill="none" xmlns="http://www.w3.org/2000/svg">
<path d="M15.75 11C15.75 11.4142 15.4142 11.75 15 11.75C14.5858 11.75 14.25 11.4142 14.25 11C14.25 8.10051 11.8995 5.75 9 5.75C6.10051 5.75 3.75 8.10051 3.75 11C3.75 11.4142 3.41421 11.75 3 11.75C2.58579 11.75 2.25 11.4142 2.25 11C2.25 7.27208 5.27208 4.25 9 4.25C12.7279 4.25 15.75 7.27208 15.75 11ZM12.5 11C12.5 12.933 10.933 14.5 9 14.5C7.067 14.5 5.5 12.933 5.5 11C5.5 9.067 7.067 7.5 9 7.5C10.933 7.5 12.5 9.067 12.5 11ZM11 11C11 9.89543 10.1046 9 9 9C7.89543 9 7 9.89543 7 11C7 12.1046 7.89543 13 9 13C10.1046 13 11 12.1046 11 11Z" fill="currentColor"/>
</svg>
