<svg width="18" height="18" viewBox="0 0 18 18" fill="none" xmlns="http://www.w3.org/2000/svg">
    <g clip-path="url(#clip0_2011_3920)">
        <path d="M16.5 3C16.5 2.17157 15.8284 1.5 15 1.5H3C2.17157 1.5 1.5 2.17157 1.5 3V15C1.5 15.8284 2.17157 16.5 3 16.5H15C15.8284 16.5 16.5 15.8284 16.5 15V3ZM17.5 15C17.5 16.3807 16.3807 17.5 15 17.5H3C1.61929 17.5 0.5 16.3807 0.5 15V3C0.5 1.61929 1.61929 0.5 3 0.5H15C16.3807 0.5 17.5 1.61929 17.5 3V15Z" fill="currentColor"/>
        <path d="M3 4.87502C3 3.83946 3.83949 2.99997 4.87506 2.99997C5.91062 2.99997 6.75011 3.83946 6.75011 4.87502C6.75011 5.91059 5.91062 6.75008 4.87506 6.75008C3.83949 6.75008 3 5.91059 3 4.87502Z" fill="currentColor"/>
        <path d="M11.2501 13.1253C11.2501 12.0897 12.0896 11.2503 13.1252 11.2503C14.1607 11.2503 15.0002 12.0897 15.0002 13.1253C15.0002 14.1609 14.1607 15.0004 13.1252 15.0004C12.0896 15.0004 11.2501 14.1609 11.2501 13.1253Z" fill="currentColor"/>
        <path d="M8.71867 4.78129C10.8901 4.7816 11.8934 7.47909 10.2499 8.89847L8.10246 10.7539C7.64286 11.1515 7.92426 11.9063 8.53215 11.9063H9.74992C10.2159 11.9063 10.5936 12.2841 10.5937 12.75C10.5937 13.216 10.2159 13.5938 9.74992 13.5938H8.53215C6.36048 13.5938 5.35644 10.8961 6.99992 9.4766L9.14738 7.62211C9.60749 7.22474 9.32648 6.4691 8.71867 6.46879H8.24992C7.78397 6.46872 7.40617 6.091 7.40617 5.62504C7.40617 5.15907 7.78397 4.78135 8.24992 4.78129H8.71867Z" fill="currentColor"/>
    </g>
    <defs>
        <clipPath id="clip0_2011_3920">
            <rect width="18" height="18" fill="currentColor"/>
        </clipPath>
    </defs>
</svg>
